<svg width="166" height="63" viewBox="0 0 166 63" fill="none" xmlns="http://www.w3.org/2000/svg">
<path d="M43.7571 61.499C41.4978 60.7417 39.7179 59.7719 38.4655 58.984C38.2278 59.5099 37.8944 60.1275 37.4245 60.7705C36.7137 61.7432 35.9456 62.4248 35.3425 62.8779C47.8875 63.0743 50.9533 63.0033 50.9572 62.8779C50.9613 62.7492 47.7455 62.8355 43.7571 61.499Z" fill="#D6C678"/>
<path d="M43.7571 61.499C41.4978 60.7417 39.7179 59.7719 38.4655 58.984C38.2278 59.5099 37.8944 60.1275 37.4245 60.7705C36.7137 61.7432 35.9456 62.4248 35.3425 62.8779C47.8875 63.0743 50.9533 63.0033 50.9572 62.8779C50.9613 62.7492 47.7455 62.8355 43.7571 61.499Z" fill="#D6C678"/>
<path d="M37.5808 58.2381C37.2322 57.8968 36.8497 57.4773 36.4704 56.972C36.1244 56.5112 35.8485 56.0688 35.6288 55.671C35.389 56.6018 34.8679 58.128 33.6771 59.6777C32.2884 61.4849 30.6731 62.433 29.7734 62.8779C30.7277 62.8779 31.6819 62.8779 32.6362 62.8779C33.2771 62.6912 34.3442 62.2889 35.3947 61.3949C36.7492 60.2423 37.3405 58.8985 37.5808 58.2381Z" fill="#D6C678"/>
<path d="M37.5808 58.2381C37.2322 57.8968 36.8497 57.4773 36.4704 56.972C36.1244 56.5112 35.8485 56.0688 35.6288 55.671C35.389 56.6018 34.8679 58.128 33.6771 59.6777C32.2884 61.4849 30.6731 62.433 29.7734 62.8779C30.7277 62.8779 31.6819 62.8779 32.6362 62.8779C33.2771 62.6912 34.3442 62.2889 35.3947 61.3949C36.7492 60.2423 37.3405 58.8985 37.5808 58.2381Z" fill="#D6C678"/>
<path d="M53.5703 38.736C45.3754 35.2443 35.0891 44.4955 33.9035 45.5619C32.6896 46.6536 33.1448 46.4375 29.1862 50.4148C24.4654 55.1581 22.0616 57.5595 19.899 58.966C17.7019 60.3948 14.1224 62.1977 8.77148 62.8779C11.5388 62.8779 14.3061 62.8779 17.0734 62.8779C19.5439 62.0227 21.3972 60.9244 22.6395 60.0643C23.6248 59.382 26.1757 57.5831 28.3159 54.5221C29.0577 53.4611 29.2662 52.9407 30.1895 51.8379C31.4865 50.2894 32.8103 49.2435 33.7421 48.5944C33.1538 49.2018 32.2465 50.1789 31.2307 51.4564C28.6547 54.6958 28.1312 56.4101 26.4768 58.3943C25.3756 59.7148 23.5125 61.4679 20.3004 62.8779C21.4454 62.8779 22.5905 62.8779 23.7355 62.8779C25.0263 62.3698 26.577 61.5643 28.0383 60.2327C30.8382 57.6817 31.035 55.9691 33.5208 52.3409C34.718 50.5937 38.1882 45.7988 43.9683 43.2687C46.1841 42.2989 48.6535 41.2616 51.3245 42.2281C53.3938 42.9769 55.9037 45.0441 55.8325 47.6752C55.7458 50.8753 51.858 53.501 49.0314 53.0694C48.0715 52.9227 46.9156 52.6532 45.6655 52.15C43.1745 51.1476 41.4586 49.6804 40.4434 48.6464C39.281 49.6004 38.1184 50.5544 36.956 51.5084C38.8308 53.2261 42.0692 55.6566 46.6372 56.7291C47.9035 57.0265 48.8297 57.2993 50.0723 57.2321C54.5819 56.9882 59.9312 52.8918 59.9993 47.7091C60.0531 43.6203 56.8036 40.1136 53.5703 38.736Z" fill="#D6C678"/>
<path d="M53.5703 38.736C45.3754 35.2443 35.0891 44.4955 33.9035 45.5619C32.6896 46.6536 33.1448 46.4375 29.1862 50.4148C24.4654 55.1581 22.0616 57.5595 19.899 58.966C17.7019 60.3948 14.1224 62.1977 8.77148 62.8779C11.5388 62.8779 14.3061 62.8779 17.0734 62.8779C19.5439 62.0227 21.3972 60.9244 22.6395 60.0643C23.6248 59.382 26.1757 57.5831 28.3159 54.5221C29.0577 53.4611 29.2662 52.9407 30.1895 51.8379C31.4865 50.2894 32.8103 49.2435 33.7421 48.5944C33.1538 49.2018 32.2465 50.1789 31.2307 51.4564C28.6547 54.6958 28.1312 56.4101 26.4768 58.3943C25.3756 59.7148 23.5125 61.4679 20.3004 62.8779C21.4454 62.8779 22.5905 62.8779 23.7355 62.8779C25.0263 62.3698 26.577 61.5643 28.0383 60.2327C30.8382 57.6817 31.035 55.9691 33.5208 52.3409C34.718 50.5937 38.1882 45.7988 43.9683 43.2687C46.1841 42.2989 48.6535 41.2616 51.3245 42.2281C53.3938 42.9769 55.9037 45.0441 55.8325 47.6752C55.7458 50.8753 51.858 53.501 49.0314 53.0694C48.0715 52.9227 46.9156 52.6532 45.6655 52.15C43.1745 51.1476 41.4586 49.6804 40.4434 48.6464C39.281 49.6004 38.1184 50.5544 36.956 51.5084C38.8308 53.2261 42.0692 55.6566 46.6372 56.7291C47.9035 57.0265 48.8297 57.2993 50.0723 57.2321C54.5819 56.9882 59.9312 52.8918 59.9993 47.7091C60.0531 43.6203 56.8036 40.1136 53.5703 38.736Z" fill="#D6C678"/>
<path d="M13.0655 57.024C14.7602 56.5745 16.0014 55.8533 16.9172 55.2548C17.9622 54.5719 27.3177 48.3308 30.8937 39.7612C31.7407 37.7312 32.3791 36.9438 33.3474 35.1868C33.8462 34.2815 34.749 32.6869 36.5398 31.5532C37.8422 30.7286 39.1386 30.4494 39.5497 30.3706C39.9722 30.2896 40.9953 30.1261 42.2911 30.2782C42.762 30.3336 43.1544 30.4171 43.4422 30.4893C43.7344 30.631 44.1818 30.8567 44.7114 31.163C45.6907 31.729 46.3329 32.2126 46.5072 32.3337C47.2148 32.8259 48.616 33.1912 51.6859 32.5157C51.2348 31.9867 50.7837 31.4577 50.3328 30.9287C50.0431 30.476 49.6421 29.9833 49.0875 29.5464C46.8767 27.8057 44.0369 28.3806 43.4623 28.5091C42.0663 28.2248 39.5056 27.9205 36.7479 28.9775C34.6477 29.7825 33.2848 31.0505 32.1557 32.229C27.7956 36.7791 27.9175 38.9535 24.1877 43.7298C23.8937 44.1065 20.1033 49.2626 13.5861 52.2368C11.8771 53.0168 10.7094 53.3152 9.41303 53.1681C6.95541 52.8891 3.85594 50.9879 3.5406 47.9699C3.25714 45.2558 5.36264 42.9517 7.25628 42.02C10.5345 40.4071 15.3066 41.8592 18.5307 45.9927L22.0701 42.8707C16.4821 37.6302 9.23383 36.4328 4.61926 39.4181C4.41112 39.5529 0.0829478 42.4537 0.00117707 47.4497C-0.0790287 52.3618 3.95337 56.6586 7.91279 57.2841C9.00359 57.4564 10.8724 57.6056 13.0655 57.024Z" fill="#D6C678"/>
<path d="M13.0655 57.024C14.7602 56.5745 16.0014 55.8533 16.9172 55.2548C17.9622 54.5719 27.3177 48.3308 30.8937 39.7612C31.7407 37.7312 32.3791 36.9438 33.3474 35.1868C33.8462 34.2815 34.749 32.6869 36.5398 31.5532C37.8422 30.7286 39.1386 30.4494 39.5497 30.3706C39.9722 30.2896 40.9953 30.1261 42.2911 30.2782C42.762 30.3336 43.1544 30.4171 43.4422 30.4893C43.7344 30.631 44.1818 30.8567 44.7114 31.163C45.6907 31.729 46.3329 32.2126 46.5072 32.3337C47.2148 32.8259 48.616 33.1912 51.6859 32.5157C51.2348 31.9867 50.7837 31.4577 50.3328 30.9287C50.0431 30.476 49.6421 29.9833 49.0875 29.5464C46.8767 27.8057 44.0369 28.3806 43.4623 28.5091C42.0663 28.2248 39.5056 27.9205 36.7479 28.9775C34.6477 29.7825 33.2848 31.0505 32.1557 32.229C27.7956 36.7791 27.9175 38.9535 24.1877 43.7298C23.8937 44.1065 20.1033 49.2626 13.5861 52.2368C11.8771 53.0168 10.7094 53.3152 9.41303 53.1681C6.95541 52.8891 3.85594 50.9879 3.5406 47.9699C3.25714 45.2558 5.36264 42.9517 7.25628 42.02C10.5345 40.4071 15.3066 41.8592 18.5307 45.9927L22.0701 42.8707C16.4821 37.6302 9.23383 36.4328 4.61926 39.4181C4.41112 39.5529 0.0829478 42.4537 0.00117707 47.4497C-0.0790287 52.3618 3.95337 56.6586 7.91279 57.2841C9.00359 57.4564 10.8724 57.6056 13.0655 57.024Z" fill="#D6C678"/>
<path d="M22.6253 10.5573C22.4045 11.1474 21.9753 12.5385 22.3131 14.269C22.7073 16.2891 23.9034 17.5266 24.3486 17.9461C25.0575 18.5496 25.9961 19.4966 26.7892 20.8601C28.0776 23.0753 28.2877 25.1964 28.316 26.3064C28.3202 27.4136 28.2746 28.7773 28.1079 30.3303C27.9338 31.9513 27.6918 33.1818 27.596 33.6491C27.2857 35.1606 26.7638 37.1609 25.8414 39.4537C26.4895 38.7909 27.2513 37.8966 27.969 36.748C28.6903 35.5934 29.1613 34.5113 29.473 33.6352C30.1318 30.3365 30.7907 27.0379 31.4495 23.7394C31.7688 22.7184 32.2921 21.4229 33.174 20.0624C33.7047 19.2433 34.2589 18.5651 34.7701 18.0155C35.1414 17.7586 36.8609 16.5093 37.3032 14.165C37.6283 12.442 37.0857 11.0695 36.8521 10.5573C36.4505 10.8413 35.8681 11.2649 35.1865 11.8062C33.6302 13.042 32.852 13.66 32.3066 14.4425C31.8997 15.0263 31.127 16.4013 31.3466 18.8481C31.0209 19.5024 30.6841 20.2916 30.3981 21.207C30.0876 22.2005 29.9102 23.1081 29.8081 23.8781C29.2993 22.2476 28.7902 20.6174 28.2814 18.9869C28.2851 18.135 28.1983 14.986 25.8631 12.9132C25.3637 12.4698 24.842 12.1471 24.3486 11.9103C24.1168 11.836 23.7938 11.7032 23.4581 11.4593C23.0274 11.1462 22.7678 10.7893 22.6253 10.5573Z" fill="#D6C678"/>
<path d="M22.6253 10.5573C22.4045 11.1474 21.9753 12.5385 22.3131 14.269C22.7073 16.2891 23.9034 17.5266 24.3486 17.9461C25.0575 18.5496 25.9961 19.4966 26.7892 20.8601C28.0776 23.0753 28.2877 25.1964 28.316 26.3064C28.3202 27.4136 28.2746 28.7773 28.1079 30.3303C27.9338 31.9513 27.6918 33.1818 27.596 33.6491C27.2857 35.1606 26.7638 37.1609 25.8414 39.4537C26.4895 38.7909 27.2513 37.8966 27.969 36.748C28.6903 35.5934 29.1613 34.5113 29.473 33.6352C30.1318 30.3365 30.7907 27.0379 31.4495 23.7394C31.7688 22.7184 32.2921 21.4229 33.174 20.0624C33.7047 19.2433 34.2589 18.5651 34.7701 18.0155C35.1414 17.7586 36.8609 16.5093 37.3032 14.165C37.6283 12.442 37.0857 11.0695 36.8521 10.5573C36.4505 10.8413 35.8681 11.2649 35.1865 11.8062C33.6302 13.042 32.852 13.66 32.3066 14.4425C31.8997 15.0263 31.127 16.4013 31.3466 18.8481C31.0209 19.5024 30.6841 20.2916 30.3981 21.207C30.0876 22.2005 29.9102 23.1081 29.8081 23.8781C29.2993 22.2476 28.7902 20.6174 28.2814 18.9869C28.2851 18.135 28.1983 14.986 25.8631 12.9132C25.3637 12.4698 24.842 12.1471 24.3486 11.9103C24.1168 11.836 23.7938 11.7032 23.4581 11.4593C23.0274 11.1462 22.7678 10.7893 22.6253 10.5573Z" fill="#D6C678"/>
<path d="M26.2342 33.7646C27.6435 30.5509 27.0122 26.8537 24.6725 24.4679C21.6486 21.3842 17.3963 22.1493 17.0735 22.213C17.2093 22.6824 17.7551 24.3557 19.4677 25.5085C20.986 26.5306 22.5187 26.5359 23.0418 26.5146C22.6014 26.381 21.8438 26.0888 21.0985 25.4391C20.295 24.7388 19.895 23.962 19.7105 23.5312C20.3332 23.6305 21.6182 23.9272 22.7988 24.9535C24.8417 26.7293 24.9239 29.2568 24.9309 29.6945C24.1025 29.2547 22.9755 28.7741 21.5844 28.4919C18.8811 27.9434 16.6244 28.4362 15.4078 28.8041C13.2025 28.0992 11.8703 28.6904 11.4521 28.9081C10.7077 29.2955 10.1255 29.9213 9.19672 30.9201C8.6341 31.525 8.20432 32.0624 7.91284 32.4465C9.89784 33.3606 11.1119 33.2057 11.8605 32.8801C12.564 32.5742 13.0104 32.0505 14.5056 31.3363C15.1245 31.041 15.6595 30.8386 15.9283 30.7466C18.8298 29.7547 21.9911 30.9344 22.3131 31.0588C24.2425 31.8053 25.5237 32.9841 26.2342 33.7646Z" fill="#D6C678"/>
<path d="M26.2342 33.7646C27.6435 30.5509 27.0122 26.8537 24.6725 24.4679C21.6486 21.3842 17.3963 22.1493 17.0735 22.213C17.2093 22.6824 17.7551 24.3557 19.4677 25.5085C20.986 26.5306 22.5187 26.5359 23.0418 26.5146C22.6014 26.381 21.8438 26.0888 21.0985 25.4391C20.295 24.7388 19.895 23.962 19.7105 23.5312C20.3332 23.6305 21.6182 23.9272 22.7988 24.9535C24.8417 26.7293 24.9239 29.2568 24.9309 29.6945C24.1025 29.2547 22.9755 28.7741 21.5844 28.4919C18.8811 27.9434 16.6244 28.4362 15.4078 28.8041C13.2025 28.0992 11.8703 28.6904 11.4521 28.9081C10.7077 29.2955 10.1255 29.9213 9.19672 30.9201C8.6341 31.525 8.20432 32.0624 7.91284 32.4465C9.89784 33.3606 11.1119 33.2057 11.8605 32.8801C12.564 32.5742 13.0104 32.0505 14.5056 31.3363C15.1245 31.041 15.6595 30.8386 15.9283 30.7466C18.8298 29.7547 21.9911 30.9344 22.3131 31.0588C24.2425 31.8053 25.5237 32.9841 26.2342 33.7646Z" fill="#D6C678"/>
<path d="M38.2574 25.4911C37.6686 26.0024 37.0889 26.327 36.6439 26.532C37.1439 26.5844 38.6907 26.6824 40.2614 25.7252C42.0742 24.6207 42.6546 22.8809 42.7857 22.4471C42.5204 22.3589 38.8552 21.2092 35.7591 23.67C32.4661 26.2871 33.0047 30.4547 33.0303 30.6291C33.2692 30.4077 33.5448 30.174 33.8592 29.9401C34.1593 29.717 34.4488 29.5277 34.718 29.3677C34.7317 28.8618 34.84 27.1787 36.1233 25.6472C37.5089 23.9939 39.3208 23.6426 39.7928 23.566C39.5233 24.0686 39.0491 24.8037 38.2574 25.4911Z" fill="#D6C678"/>
<path d="M38.2574 25.4911C37.6686 26.0024 37.0889 26.327 36.6439 26.532C37.1439 26.5844 38.6907 26.6824 40.2614 25.7252C42.0742 24.6207 42.6546 22.8809 42.7857 22.4471C42.5204 22.3589 38.8552 21.2092 35.7591 23.67C32.4661 26.2871 33.0047 30.4547 33.0303 30.6291C33.2692 30.4077 33.5448 30.174 33.8592 29.9401C34.1593 29.717 34.4488 29.5277 34.718 29.3677C34.7317 28.8618 34.84 27.1787 36.1233 25.6472C37.5089 23.9939 39.3208 23.6426 39.7928 23.566C39.5233 24.0686 39.0491 24.8037 38.2574 25.4911Z" fill="#D6C678"/>
<path d="M16.7091 20.9381C16.7302 20.8746 16.7596 20.7797 16.7889 20.6634C16.9382 20.3798 17.133 19.8539 16.9464 19.2132C16.7163 18.4231 16.0454 17.9395 15.6457 17.652C15.1752 17.3129 14.7269 17.1287 14.4246 17.0283C14.4203 17.0616 14.4162 17.097 14.4125 17.1339C14.3205 17.0962 14.2351 17.0633 14.1588 17.0356C14.0815 17.3497 14.0019 17.8339 14.0676 18.4145C14.1234 18.9077 14.2173 19.7381 14.8875 20.3399C15.5827 20.9641 16.4618 20.9507 16.7091 20.9381Z" fill="#D6C678"/>
<path d="M16.7091 20.9381C16.7302 20.8746 16.7596 20.7797 16.7889 20.6634C16.9382 20.3798 17.133 19.8539 16.9464 19.2132C16.7163 18.4231 16.0454 17.9395 15.6457 17.652C15.1752 17.3129 14.7269 17.1287 14.4246 17.0283C14.4203 17.0616 14.4162 17.097 14.4125 17.1339C14.3205 17.0962 14.2351 17.0633 14.1588 17.0356C14.0815 17.3497 14.0019 17.8339 14.0676 18.4145C14.1234 18.9077 14.2173 19.7381 14.8875 20.3399C15.5827 20.9641 16.4618 20.9507 16.7091 20.9381Z" fill="#D6C678"/>
<path d="M28.8431 10.4396C28.5373 11.0263 28.0228 12.0136 28.3151 13.1772C28.6185 14.3844 29.5999 15.024 29.8824 15.1943C30.2394 14.9187 31.4032 13.9509 31.4437 12.5676C31.4658 11.8141 31.1491 11.1339 30.8099 10.406C30.5205 9.78467 30.2056 9.30612 29.9706 8.98383C29.6514 9.27346 29.203 9.74908 28.8431 10.4396Z" fill="#D6C678"/>
<path d="M28.8431 10.4396C28.5373 11.0263 28.0228 12.0136 28.3151 13.1772C28.6185 14.3844 29.5999 15.024 29.8824 15.1943C30.2394 14.9187 31.4032 13.9509 31.4437 12.5676C31.4658 11.8141 31.1491 11.1339 30.8099 10.406C30.5205 9.78467 30.2056 9.30612 29.9706 8.98383C29.6514 9.27346 29.203 9.74908 28.8431 10.4396Z" fill="#D6C678"/>
<path d="M29.8618 6.83687C30.2548 6.53354 31.5358 5.46809 31.5804 3.9452C31.6048 3.1158 31.256 2.36697 30.8828 1.56572C30.5641 0.881626 30.2175 0.354764 29.9587 3.80316e-06C29.6073 0.31878 29.1138 0.842506 28.7174 1.60268C28.381 2.24845 27.8144 3.33542 28.1364 4.61639C28.4702 5.94547 29.5508 6.64932 29.8618 6.83687Z" fill="#D6C678"/>
<path d="M29.8618 6.83687C30.2548 6.53354 31.5358 5.46809 31.5804 3.9452C31.6048 3.1158 31.256 2.36697 30.8828 1.56572C30.5641 0.881626 30.2175 0.354764 29.9587 3.80316e-06C29.6073 0.31878 29.1138 0.842506 28.7174 1.60268C28.381 2.24845 27.8144 3.33542 28.1364 4.61639C28.4702 5.94547 29.5508 6.64932 29.8618 6.83687Z" fill="#D6C678"/>
<path d="M21.655 36.8147C23.1426 36.8147 24.3486 35.6091 24.3486 34.1218C22.861 34.1218 21.655 35.3274 21.655 36.8147Z" fill="#D6C678"/>
<path d="M21.655 36.8147C23.1426 36.8147 24.3486 35.6091 24.3486 34.1218C22.861 34.1218 21.655 35.3274 21.655 36.8147Z" fill="#D6C678"/>
<path d="M17.5324 34.8952L17.4456 35.6102L18.1608 35.6971C19.6375 35.8764 20.9801 34.8248 21.1595 33.3485L21.2463 32.6335L20.5311 32.5467C19.0544 32.3673 17.7118 33.4189 17.5324 34.8952Z" fill="#D6C678"/>
<path d="M17.5324 34.8952L17.4456 35.6102L18.1608 35.6971C19.6375 35.8764 20.9801 34.8248 21.1595 33.3485L21.2463 32.6335L20.5311 32.5467C19.0544 32.3673 17.7118 33.4189 17.5324 34.8952Z" fill="#D6C678"/>
<path d="M13.0854 34.6696C14.4437 35.276 16.0366 34.6666 16.6431 33.3086C15.2846 32.7023 13.6919 33.3117 13.0854 34.6696Z" fill="#D6C678"/>
<path d="M13.0854 34.6696C14.4437 35.276 16.0366 34.6666 16.6431 33.3086C15.2846 32.7023 13.6919 33.3117 13.0854 34.6696Z" fill="#D6C678"/>
<path d="M35.2378 34.1659C35.2621 35.6528 36.4876 36.8386 37.975 36.8143C37.9507 35.3272 36.7251 34.1415 35.2378 34.1659Z" fill="#D6C678"/>
<path d="M35.2378 34.1659C35.2621 35.6528 36.4876 36.8386 37.975 36.8143C37.9507 35.3272 36.7251 34.1415 35.2378 34.1659Z" fill="#D6C678"/>
<path d="M39.0286 32.5285L38.3149 32.627L38.4135 33.3405C38.617 34.8137 39.9766 35.8432 41.4502 35.6396L42.1638 35.541L42.0652 34.8276C41.8618 33.3543 40.5022 32.3251 39.0286 32.5285Z" fill="#D6C678"/>
<path d="M39.0286 32.5285L38.3149 32.627L38.4135 33.3405C38.617 34.8137 39.9766 35.8432 41.4502 35.6396L42.1638 35.541L42.0652 34.8276C41.8618 33.3543 40.5022 32.3251 39.0286 32.5285Z" fill="#D6C678"/>
<path d="M42.9287 33.2268C43.5574 34.5747 45.16 35.1579 46.5082 34.5293C45.8795 33.1815 44.2769 32.5983 42.9287 33.2268Z" fill="#D6C678"/>
<path d="M42.9287 33.2268C43.5574 34.5747 45.16 35.1579 46.5082 34.5293C45.8795 33.1815 44.2769 32.5983 42.9287 33.2268Z" fill="#D6C678"/>
<path d="M55.3992 26.3311C55.7075 26.427 56.0246 26.4713 56.3356 26.4713C57.4344 26.4713 58.4681 25.911 58.8707 25.0073C57.4697 24.5798 55.9168 25.1724 55.3992 26.3311Z" fill="white"/>
<path d="M55.3992 26.3311C55.7075 26.427 56.0246 26.4713 56.3356 26.4713C57.4344 26.4713 58.4681 25.911 58.8707 25.0073C57.4697 24.5798 55.9168 25.1724 55.3992 26.3311Z" fill="white"/>
<path d="M54.1148 22.3433C55.2091 22.1383 55.8343 21.3244 56.2046 20.8409C56.6411 20.2703 56.8623 19.7102 56.9787 19.3311C56.6131 19.2574 56.0851 19.1794 55.4479 19.1765C54.7003 19.1735 54.0027 19.172 53.3788 19.4815C52.2317 20.0506 51.8835 21.4026 51.7937 21.808C52.0502 21.9791 52.9794 22.5555 54.1148 22.3433Z" fill="#D6C678"/>
<path d="M54.1148 22.3433C55.2091 22.1383 55.8343 21.3244 56.2046 20.8409C56.6411 20.2703 56.8623 19.7102 56.9787 19.3311C56.6131 19.2574 56.0851 19.1794 55.4479 19.1765C54.7003 19.1735 54.0027 19.172 53.3788 19.4815C52.2317 20.0506 51.8835 21.4026 51.7937 21.808C52.0502 21.9791 52.9794 22.5555 54.1148 22.3433Z" fill="#D6C678"/>
<path d="M37.3281 4.09718C37.5331 3.90416 38.2012 3.22885 38.198 2.3752C38.1951 1.90936 37.9946 1.51275 37.7794 1.08817C37.5949 0.726959 37.3989 0.454137 37.2528 0.271476C37.0701 0.471933 36.8148 0.794817 36.6158 1.24443C36.4476 1.62637 36.163 2.26764 36.3592 2.96347C36.5642 3.6859 37.1569 4.01172 37.3281 4.09718Z" fill="#D6C678"/>
<path d="M37.3281 4.09718C37.5331 3.90416 38.2012 3.22885 38.198 2.3752C38.1951 1.90936 37.9946 1.51275 37.7794 1.08817C37.5949 0.726959 37.3989 0.454137 37.2528 0.271476C37.0701 0.471933 36.8148 0.794817 36.6158 1.24443C36.4476 1.62637 36.163 2.26764 36.3592 2.96347C36.5642 3.6859 37.1569 4.01172 37.3281 4.09718Z" fill="#D6C678"/>
<path d="M37.2189 21.4793C39.4664 21.0414 41.3082 19.2265 41.6902 16.7983C38.6154 16.2838 35.7278 18.3891 35.2368 21.5043C35.9137 21.6179 36.5833 21.6031 37.2189 21.4793Z" fill="#D6C678"/>
<path d="M37.2189 21.4793C39.4664 21.0414 41.3082 19.2265 41.6902 16.7983C38.6154 16.2838 35.7278 18.3891 35.2368 21.5043C35.9137 21.6179 36.5833 21.6031 37.2189 21.4793Z" fill="#D6C678"/>
<path d="M38.1438 9.26467L38.3102 9.64935L40.2864 8.79589C42.2922 7.92894 43.2153 5.6011 42.3481 3.59594L42.1814 3.21124L40.2054 4.06627C38.1997 4.93323 37.2766 7.26108 38.1438 9.26467Z" fill="#D6C678"/>
<path d="M38.1438 9.26467L38.3102 9.64935L40.2864 8.79589C42.2922 7.92894 43.2153 5.6011 42.3481 3.59594L42.1814 3.21124L40.2054 4.06627C38.1997 4.93323 37.2766 7.26108 38.1438 9.26467Z" fill="#D6C678"/>
<path d="M44.8181 19.601C45.0983 19.141 45.1427 18.6441 45.1883 18.112C45.2282 17.6579 45.2016 17.2849 45.1691 17.0283C44.8669 17.1286 44.4185 17.3129 43.948 17.652C43.5483 17.9395 42.8774 18.4231 42.6473 19.2132C42.4084 20.033 42.7948 20.6669 42.9098 20.8423C43.2314 20.7584 44.3021 20.4457 44.8181 19.601Z" fill="#D6C678"/>
<path d="M44.8181 19.601C45.0983 19.141 45.1427 18.6441 45.1883 18.112C45.2282 17.6579 45.2016 17.2849 45.1691 17.0283C44.8669 17.1286 44.4185 17.3129 43.948 17.652C43.5483 17.9395 42.8774 18.4231 42.6473 19.2132C42.4084 20.033 42.7948 20.6669 42.9098 20.8423C43.2314 20.7584 44.3021 20.4457 44.8181 19.601Z" fill="#D6C678"/>
<path d="M45.8904 8.48179C46.1527 8.09847 46.2133 7.65767 46.2781 7.18596C46.3327 6.78348 46.3268 6.44729 46.3106 6.21437C46.0467 6.2748 45.6529 6.39566 45.234 6.65225C44.8772 6.86894 44.2784 7.23602 44.0439 7.92012C43.8005 8.62925 44.1029 9.23512 44.1943 9.40331C44.4731 9.36048 45.4081 9.18642 45.8904 8.48179Z" fill="#D6C678"/>
<path d="M45.8904 8.48179C46.1527 8.09847 46.2133 7.65767 46.2781 7.18596C46.3327 6.78348 46.3268 6.44729 46.3106 6.21437C46.0467 6.2748 45.6529 6.39566 45.234 6.65225C44.8772 6.86894 44.2784 7.23602 44.0439 7.92012C43.8005 8.62925 44.1029 9.23512 44.1943 9.40331C44.4731 9.36048 45.4081 9.18642 45.8904 8.48179Z" fill="#D6C678"/>
<path d="M33.9776 9.54334C35.2473 8.81055 35.9567 7.48069 35.9567 6.11405C35.9567 5.44326 35.7855 4.76209 35.4258 4.13999L34.2092 4.84325C32.3171 5.9357 31.6682 8.35351 32.761 10.245L33.9776 9.54334Z" fill="#D6C678"/>
<path d="M33.9776 9.54334C35.2473 8.81055 35.9567 7.48069 35.9567 6.11405C35.9567 5.44326 35.7855 4.76209 35.4258 4.13999L34.2092 4.84325C32.3171 5.9357 31.6682 8.35351 32.761 10.245L33.9776 9.54334Z" fill="#D6C678"/>
<path d="M44.2298 27.111C44.7666 27.0639 45.1929 26.803 45.6485 26.5228C46.038 26.2856 46.321 26.0423 46.5082 25.8639C46.2473 25.6811 45.8329 25.429 45.2813 25.252C44.8124 25.1031 44.0248 24.8511 43.2521 25.1341C42.4514 25.4303 42.1697 26.1174 42.0989 26.3151C42.3555 26.5228 43.2433 27.1981 44.2298 27.111Z" fill="#D6C678"/>
<path d="M44.2298 27.111C44.7666 27.0639 45.1929 26.803 45.6485 26.5228C46.038 26.2856 46.321 26.0423 46.5082 25.8639C46.2473 25.6811 45.8329 25.429 45.2813 25.252C44.8124 25.1031 44.0248 24.8511 43.2521 25.1341C42.4514 25.4303 42.1697 26.1174 42.0989 26.3151C42.3555 26.5228 43.2433 27.1981 44.2298 27.111Z" fill="#D6C678"/>
<path d="M49.2055 19.0482C48.4639 19.091 47.2133 19.1616 46.2178 20.3176C45.1855 21.516 45.0749 23.1291 45.0571 23.5846C45.5188 23.8175 47.0953 24.5325 48.4845 23.6215C49.2425 23.1246 49.7454 22.2754 50.2852 21.3672C50.7466 20.5918 51.052 19.884 51.2451 19.3798C50.7895 19.2015 50.0802 18.9965 49.2055 19.0482Z" fill="#D6C678"/>
<path d="M49.2055 19.0482C48.4639 19.091 47.2133 19.1616 46.2178 20.3176C45.1855 21.516 45.0749 23.1291 45.0571 23.5846C45.5188 23.8175 47.0953 24.5325 48.4845 23.6215C49.2425 23.1246 49.7454 22.2754 50.2852 21.3672C50.7466 20.5918 51.052 19.884 51.2451 19.3798C50.7895 19.2015 50.0802 18.9965 49.2055 19.0482Z" fill="#D6C678"/>
<path d="M47.2618 18.0987C47.7219 18.0382 48.1599 17.9054 48.5639 17.7183C49.99 17.0533 50.9824 15.6764 50.9397 14.2184C48.853 14.4926 47.2072 16.2279 47.2618 18.0987Z" fill="#D6C678"/>
<path d="M47.2618 18.0987C47.7219 18.0382 48.1599 17.9054 48.5639 17.7183C49.99 17.0533 50.9824 15.6764 50.9397 14.2184C48.853 14.4926 47.2072 16.2279 47.2618 18.0987Z" fill="#D6C678"/>
<path d="M53.8139 26.178C54.2239 25.5485 54.3744 24.9336 54.4348 24.5178C53.9776 24.447 53.3215 24.3749 52.5472 24.3866C51.6403 24.4013 50.7923 24.4146 50.1006 24.767C48.8294 25.4127 48.6907 26.8914 48.6672 27.3352C49.0137 27.5151 50.2629 28.1196 51.5945 27.8616C52.8806 27.6125 53.4659 26.7131 53.8139 26.178Z" fill="#D6C678"/>
<path d="M53.8139 26.178C54.2239 25.5485 54.3744 24.9336 54.4348 24.5178C53.9776 24.447 53.3215 24.3749 52.5472 24.3866C51.6403 24.4013 50.7923 24.4146 50.1006 24.767C48.8294 25.4127 48.6907 26.8914 48.6672 27.3352C49.0137 27.5151 50.2629 28.1196 51.5945 27.8616C52.8806 27.6125 53.4659 26.7131 53.8139 26.178Z" fill="#D6C678"/>
<path d="M49.1361 10.043V9.49014H48.8693C45.7059 9.49014 43.1428 12.0525 43.1428 15.215V15.7679H43.4099C46.5717 15.7679 49.1361 13.2055 49.1361 10.043Z" fill="#D6C678"/>
<path d="M49.1361 10.043V9.49014H48.8693C45.7059 9.49014 43.1428 12.0525 43.1428 15.215V15.7679H43.4099C46.5717 15.7679 49.1361 13.2055 49.1361 10.043Z" fill="#D6C678"/>
<path d="M54.3139 16.443C54.6353 16.011 54.724 15.5201 54.8198 14.9938C54.9008 14.5456 54.9082 14.1711 54.8994 13.9131C54.5882 13.9869 54.1252 14.1285 53.6267 14.4218C53.202 14.6723 52.4897 15.0926 52.1873 15.8577C51.8747 16.6525 52.2006 17.3203 52.301 17.5045C52.6283 17.4515 53.7226 17.2376 54.3139 16.443Z" fill="#D6C678"/>
<path d="M54.3139 16.443C54.6353 16.011 54.724 15.5201 54.8198 14.9938C54.9008 14.5456 54.9082 14.1711 54.8994 13.9131C54.5882 13.9869 54.1252 14.1285 53.6267 14.4218C53.202 14.6723 52.4897 15.0926 52.1873 15.8577C51.8747 16.6525 52.2006 17.3203 52.301 17.5045C52.6283 17.4515 53.7226 17.2376 54.3139 16.443Z" fill="#D6C678"/>
<path d="M40.3972 10.1404C38.8236 10.82 38.0994 12.6466 38.7794 14.2184L41.0017 13.2586C42.1741 12.7528 42.8732 11.6103 42.8732 10.4101C42.8732 9.99884 42.792 9.5817 42.6181 9.18059L40.3972 10.1404Z" fill="#D6C678"/>
<path d="M40.3972 10.1404C38.8236 10.82 38.0994 12.6466 38.7794 14.2184L41.0017 13.2586C42.1741 12.7528 42.8732 11.6103 42.8732 10.4101C42.8732 9.99884 42.792 9.5817 42.6181 9.18059L40.3972 10.1404Z" fill="#D6C678"/>
<path d="M53.8039 30.7335L55.0646 30.244C54.6767 29.2445 53.5501 28.7475 52.5503 29.1367L51.2893 29.6262C51.6772 30.6258 52.804 31.1227 53.8039 30.7335Z" fill="#D6C678"/>
<path d="M53.8039 30.7335L55.0646 30.244C54.6767 29.2445 53.5501 28.7475 52.5503 29.1367L51.2893 29.6262C51.6772 30.6258 52.804 31.1227 53.8039 30.7335Z" fill="#D6C678"/>
<path d="M3.25799 26.4713C3.56903 26.4713 3.88614 26.427 4.19444 26.3311C3.67682 25.1724 2.12376 24.5798 0.7229 25.0073C1.12549 25.911 2.15917 26.4713 3.25799 26.4713Z" fill="#D6C678"/>
<path d="M3.25799 26.4713C3.56903 26.4713 3.88614 26.427 4.19444 26.3311C3.67682 25.1724 2.12376 24.5798 0.7229 25.0073C1.12549 25.911 2.15917 26.4713 3.25799 26.4713Z" fill="#D6C678"/>
<path d="M5.47891 22.3433C6.61431 22.5555 7.54353 21.9791 7.8 21.808C7.71001 21.4026 7.362 20.0506 6.21466 19.4815C5.59101 19.172 4.89342 19.1735 4.14575 19.1765C3.5086 19.1794 2.98061 19.2574 2.61499 19.3311C2.73139 19.7102 2.95263 20.2703 3.38927 20.8409C3.75939 21.3244 4.3846 22.1383 5.47891 22.3433Z" fill="#D6C678"/>
<path d="M5.47891 22.3433C6.61431 22.5555 7.54353 21.9791 7.8 21.808C7.71001 21.4026 7.362 20.0506 6.21466 19.4815C5.59101 19.172 4.89342 19.1735 4.14575 19.1765C3.5086 19.1794 2.98061 19.2574 2.61499 19.3311C2.73139 19.7102 2.95263 20.2703 3.38927 20.8409C3.75939 21.3244 4.3846 22.1383 5.47891 22.3433Z" fill="#D6C678"/>
<path d="M22.2654 4.09718C22.4366 4.01172 23.0293 3.6859 23.2343 2.96347C23.4305 2.26764 23.1459 1.62637 22.9777 1.24443C22.7787 0.794817 22.5234 0.471933 22.3407 0.271476C22.1946 0.454137 21.9986 0.726959 21.8141 1.08817C21.5989 1.51275 21.3984 1.90936 21.3953 2.3752C21.3923 3.22885 22.0604 3.90416 22.2654 4.09718Z" fill="#D6C678"/>
<path d="M22.2654 4.09718C22.4366 4.01172 23.0293 3.6859 23.2343 2.96347C23.4305 2.26764 23.1459 1.62637 22.9777 1.24443C22.7787 0.794817 22.5234 0.471933 22.3407 0.271476C22.1946 0.454137 21.9986 0.726959 21.8141 1.08817C21.5989 1.51275 21.3984 1.90936 21.3953 2.3752C21.3923 3.22885 22.0604 3.90416 22.2654 4.09718Z" fill="#D6C678"/>
<path d="M22.3747 21.4793C23.0103 21.6031 23.6799 21.6179 24.3568 21.5043C23.8657 18.3891 20.9781 16.2838 17.9033 16.7983C18.2854 19.2265 20.1272 21.0414 22.3747 21.4793Z" fill="#D6C678"/>
<path d="M22.3747 21.4793C23.0103 21.6031 23.6799 21.6179 24.3568 21.5043C23.8657 18.3891 20.9781 16.2838 17.9033 16.7983C18.2854 19.2265 20.1272 21.0414 22.3747 21.4793Z" fill="#D6C678"/>
<path d="M19.3073 8.79589L21.2834 9.64935L21.4499 9.26467C22.3171 7.26108 21.394 4.93323 19.3882 4.06627L17.4122 3.21124L17.2456 3.59594C16.3784 5.6011 17.3015 7.92894 19.3073 8.79589Z" fill="#D6C678"/>
<path d="M19.3073 8.79589L21.2834 9.64935L21.4499 9.26467C22.3171 7.26108 21.394 4.93323 19.3882 4.06627L17.4122 3.21124L17.2456 3.59594C16.3784 5.6011 17.3015 7.92894 19.3073 8.79589Z" fill="#D6C678"/>
<path d="M13.7032 8.48179C14.1854 9.18642 15.1205 9.36048 15.3993 9.40331C15.4906 9.23512 15.7929 8.62925 15.5497 7.92012C15.3152 7.23602 14.7164 6.86894 14.3595 6.65225C13.9407 6.39566 13.5469 6.2748 13.283 6.21437C13.2668 6.44729 13.2609 6.78348 13.3155 7.18596C13.3803 7.65767 13.4407 8.09847 13.7032 8.48179Z" fill="#D6C678"/>
<path d="M13.7032 8.48179C14.1854 9.18642 15.1205 9.36048 15.3993 9.40331C15.4906 9.23512 15.7929 8.62925 15.5497 7.92012C15.3152 7.23602 14.7164 6.86894 14.3595 6.65225C13.9407 6.39566 13.5469 6.2748 13.283 6.21437C13.2668 6.44729 13.2609 6.78348 13.3155 7.18596C13.3803 7.65767 13.4407 8.09847 13.7032 8.48179Z" fill="#D6C678"/>
<path d="M25.6161 9.54334L26.8327 10.245C27.9254 8.35351 27.2765 5.9357 25.3845 4.84325L24.1679 4.13999C23.8081 4.76209 23.637 5.44326 23.637 6.11405C23.637 7.48069 24.3463 8.81055 25.6161 9.54334Z" fill="#D6C678"/>
<path d="M25.6161 9.54334L26.8327 10.245C27.9254 8.35351 27.2765 5.9357 25.3845 4.84325L24.1679 4.13999C23.8081 4.76209 23.637 5.44326 23.637 6.11405C23.637 7.48069 24.3463 8.81055 25.6161 9.54334Z" fill="#D6C678"/>
<path d="M13.0854 25.8639C13.2727 26.0423 13.5557 26.2856 13.9452 26.5228C14.4008 26.803 14.8271 27.0639 15.3639 27.111C16.3504 27.1981 17.2381 26.5228 17.4948 26.3151C17.424 26.1174 17.1423 25.4303 16.3416 25.1341C15.5689 24.8511 14.7813 25.1031 14.3124 25.252C13.7607 25.429 13.3464 25.6811 13.0854 25.8639Z" fill="#D6C678"/>
<path d="M13.0854 25.8639C13.2727 26.0423 13.5557 26.2856 13.9452 26.5228C14.4008 26.803 14.8271 27.0639 15.3639 27.111C16.3504 27.1981 17.2381 26.5228 17.4948 26.3151C17.424 26.1174 17.1423 25.4303 16.3416 25.1341C15.5689 24.8511 14.7813 25.1031 14.3124 25.252C13.7607 25.429 13.3464 25.6811 13.0854 25.8639Z" fill="#D6C678"/>
<path d="M11.1093 23.6215C12.4984 24.5325 14.0749 23.8175 14.5366 23.5846C14.5188 23.1291 14.4083 21.516 13.376 20.3176C12.3804 19.1616 11.1298 19.091 10.3882 19.0482C9.51358 18.9965 8.80424 19.2015 8.34863 19.3798C8.54171 19.884 8.84708 20.5918 9.30856 21.3672C9.84828 22.2754 10.3512 23.1246 11.1093 23.6215Z" fill="#D6C678"/>
<path d="M11.1093 23.6215C12.4984 24.5325 14.0749 23.8175 14.5366 23.5846C14.5188 23.1291 14.4083 21.516 13.376 20.3176C12.3804 19.1616 11.1298 19.091 10.3882 19.0482C9.51358 18.9965 8.80424 19.2015 8.34863 19.3798C8.54171 19.884 8.84708 20.5918 9.30856 21.3672C9.84828 22.2754 10.3512 23.1246 11.1093 23.6215Z" fill="#D6C678"/>
<path d="M11.0298 17.7183C11.4337 17.9054 11.8717 18.0382 12.3318 18.0987C12.3864 16.2279 10.7406 14.4926 8.65391 14.2184C8.61127 15.6764 9.60366 17.0533 11.0298 17.7183Z" fill="#D6C678"/>
<path d="M11.0298 17.7183C11.4337 17.9054 11.8717 18.0382 12.3318 18.0987C12.3864 16.2279 10.7406 14.4926 8.65391 14.2184C8.61127 15.6764 9.60366 17.0533 11.0298 17.7183Z" fill="#D6C678"/>
<path d="M7.99895 27.8616C9.33056 28.1196 10.5798 27.5151 10.9263 27.3352C10.9028 26.8914 10.7641 25.4127 9.49293 24.767C8.80121 24.4146 7.95318 24.4013 7.04627 24.3866C6.27199 24.3749 5.61586 24.447 5.15869 24.5178C5.21914 24.9336 5.36958 25.5485 5.77961 26.178C6.12762 26.7131 6.71292 27.6125 7.99895 27.8616Z" fill="#D6C678"/>
<path d="M7.99895 27.8616C9.33056 28.1196 10.5798 27.5151 10.9263 27.3352C10.9028 26.8914 10.7641 25.4127 9.49293 24.767C8.80121 24.4146 7.95318 24.4013 7.04627 24.3866C6.27199 24.3749 5.61586 24.447 5.15869 24.5178C5.21914 24.9336 5.36958 25.5485 5.77961 26.178C6.12762 26.7131 6.71292 27.6125 7.99895 27.8616Z" fill="#D6C678"/>
<path d="M16.1838 15.7679H16.4508V15.215C16.4508 12.0525 13.8878 9.49014 10.7244 9.49014H10.4575V10.043C10.4575 13.2055 13.022 15.7679 16.1838 15.7679Z" fill="#D6C678"/>
<path d="M16.1838 15.7679H16.4508V15.215C16.4508 12.0525 13.8878 9.49014 10.7244 9.49014H10.4575V10.043C10.4575 13.2055 13.022 15.7679 16.1838 15.7679Z" fill="#D6C678"/>
<path d="M5.27979 16.443C5.87116 17.2376 6.96547 17.4515 7.29275 17.5045C7.39311 17.3203 7.71902 16.6525 7.40641 15.8577C7.10398 15.0926 6.39171 14.6723 5.96701 14.4218C5.46856 14.1285 5.00552 13.9869 4.69428 13.9131C4.68548 14.1711 4.69292 14.5456 4.77391 14.9938C4.86976 15.5201 4.95838 16.011 5.27979 16.443Z" fill="#D6C678"/>
<path d="M5.27979 16.443C5.87116 17.2376 6.96547 17.4515 7.29275 17.5045C7.39311 17.3203 7.71902 16.6525 7.40641 15.8577C7.10398 15.0926 6.39171 14.6723 5.96701 14.4218C5.46856 14.1285 5.00552 13.9869 4.69428 13.9131C4.68548 14.1711 4.69292 14.5456 4.77391 14.9938C4.86976 15.5201 4.95838 16.011 5.27979 16.443Z" fill="#D6C678"/>
<path d="M18.592 13.2586L20.8143 14.2184C21.4943 12.6466 20.7701 10.82 19.1967 10.1404L16.9756 9.18059C16.8016 9.5817 16.7205 9.99884 16.7205 10.4101C16.7205 11.6103 17.4196 12.7528 18.592 13.2586Z" fill="#D6C678"/>
<path d="M18.592 13.2586L20.8143 14.2184C21.4943 12.6466 20.7701 10.82 19.1967 10.1404L16.9756 9.18059C16.8016 9.5817 16.7205 9.99884 16.7205 10.4101C16.7205 11.6103 17.4196 12.7528 18.592 13.2586Z" fill="#D6C678"/>
<path d="M4.52905 30.244L5.78985 30.7335C6.78968 31.1227 7.91648 30.6258 8.3044 29.6262L7.04341 29.1367C6.04358 28.7475 4.91678 29.2445 4.52905 30.244Z" fill="#D6C678"/>
<path d="M4.52905 30.244L5.78985 30.7335C6.78968 31.1227 7.91648 30.6258 8.3044 29.6262L7.04341 29.1367C6.04358 28.7475 4.91678 29.2445 4.52905 30.244Z" fill="#D6C678"/>
<path d="M105 13.8256C104.488 13.9493 104.118 14.0726 103.89 14.1961C103.665 14.3198 103.484 14.4742 103.351 14.6595C103.217 14.8447 103.117 15.1229 103.053 15.4936C102.989 15.8641 102.958 16.4373 102.958 17.2122V31.7876C102.958 32.5404 102.983 33.0908 103.036 33.439C103.089 33.7872 103.175 34.0624 103.298 34.2646C103.42 34.4667 103.601 34.6353 103.84 34.7701C104.077 34.9049 104.463 35.0397 105 35.1744V36H97.7208V35.1744C98.3828 35.0171 98.8418 34.8375 99.1004 34.6353C99.3563 34.4332 99.5288 34.1354 99.6234 33.7421C99.7152 33.349 99.7625 32.6975 99.7625 31.7876V25.3342C99.7625 23.6382 99.7875 21.9218 99.8403 20.1864C99.8932 18.4506 99.9544 17.2629 100.024 16.6226H99.7263L92.8143 33.3209H90.8061L84.3836 16.3528H84.086C84.1444 17.0382 84.2 18.2799 84.2529 20.0768C84.3029 21.8743 84.3308 23.7222 84.3308 25.6206V31.7876C84.3308 32.5404 84.3558 33.0908 84.4087 33.439C84.4615 33.7872 84.5477 34.0624 84.6701 34.2646C84.7925 34.4667 84.9733 34.6353 85.2125 34.7701C85.4517 34.9049 85.8383 35.0397 86.3724 35.1744V36H80V35.1744C80.7232 34.9948 81.2072 34.7953 81.4491 34.5763C81.6939 34.3572 81.8552 34.0455 81.9303 33.6412C82.0054 33.2368 82.0444 32.6191 82.0444 31.7876V17.2122C82.0444 16.4373 82.0138 15.8727 81.9554 15.5189C81.897 15.165 81.8024 14.8898 81.6689 14.6933C81.5354 14.4968 81.3574 14.3394 81.1348 14.2216C80.9151 14.1034 80.5368 13.9716 80 13.8256V13H86.2333L92.3609 29.3949L99.1004 13H105V13.8256Z" fill="white"/>
<path d="M113.232 27.8141C113.232 30.0362 113.606 31.7426 114.352 32.9343C115.099 34.1262 116.167 34.722 117.56 34.722C118.323 34.722 118.972 34.5469 119.509 34.1961C120.045 33.846 120.481 33.3741 120.817 32.7807C121.155 32.1878 121.397 31.5001 121.544 30.718C121.691 29.9361 121.768 29.119 121.768 28.2671C121.768 26.6815 121.58 25.3658 121.212 24.3195C120.841 23.2735 120.334 22.505 119.697 22.0142C119.059 21.5234 118.328 21.278 117.508 21.278C116.126 21.278 115.069 21.8444 114.336 22.9768C113.6 24.1092 113.232 25.7218 113.232 27.8141ZM117.301 36C114.93 36 113.12 35.3396 111.872 34.0182C110.624 32.6974 110 30.7422 110 28.1539C110 26.374 110.327 24.8693 110.981 23.64C111.638 22.4104 112.535 21.4964 113.676 20.8978C114.816 20.2993 116.116 20 117.576 20C120.015 20 121.863 20.6715 123.117 22.0142C124.37 23.3567 125 25.2846 125 27.7979C125 29.5884 124.687 31.0982 124.057 32.3278C123.43 33.5571 122.542 34.4768 121.389 35.0862C120.239 35.6956 118.876 36 117.301 36Z" fill="white"/>
<path d="M133.912 14V17.1663H130.286V14H133.912ZM128.276 35.2004C128.788 35.0698 129.152 34.9554 129.369 34.8576C129.586 34.7596 129.771 34.6239 129.921 34.4496C130.072 34.2759 130.188 34.0091 130.276 33.65C130.361 33.2909 130.405 32.7305 130.405 31.9688V24.8531C130.405 24.1569 130.389 23.5966 130.364 23.1722C130.339 22.7478 130.245 22.4082 130.088 22.1523C129.931 21.8964 129.692 21.7061 129.369 21.581C129.049 21.4559 128.59 21.3501 128 21.2627V20.3978L132.59 20.2509H133.793V31.92C133.793 32.8558 133.846 33.5057 133.95 33.8703C134.057 34.2351 134.257 34.5123 134.553 34.7027C134.848 34.893 135.331 35.0592 136 35.2004V36H128.276V35.2004Z" fill="white"/>
<path d="M137 20.8729C137.6 20.7853 138.083 20.6324 138.455 20.4136C138.823 20.1948 139.115 19.9129 139.323 19.5684C139.532 19.2238 139.698 18.792 139.818 18.2725C139.938 17.7528 140.064 16.9955 140.195 16H142.741V20.0525H148.534V21.7094H142.741V29.0107C142.741 30.0718 142.79 30.9167 142.884 31.5457C142.979 32.1746 143.159 32.6669 143.422 33.0222C143.684 33.378 143.985 33.6321 144.319 33.7852C144.653 33.9384 145.085 34.0148 145.611 34.0148C146.088 34.0148 146.537 33.9248 146.957 33.7442C147.374 33.5638 147.785 33.304 148.194 32.9646L149 33.8509C148.151 34.6056 147.348 35.1527 146.588 35.4913C145.828 35.8303 145.042 36 144.23 36C142.687 36 141.538 35.5817 140.787 34.7449C140.032 33.9084 139.655 32.5984 139.655 30.8155V21.7094H137V20.8729Z" fill="white"/>
<path d="M161.035 28.364C158.684 28.3856 156.925 28.6772 155.758 29.2376C154.588 29.7985 154.004 30.6453 154.004 31.7777C154.004 32.3925 154.137 32.8776 154.402 33.2336C154.668 33.5896 155.005 33.835 155.409 33.9698C155.816 34.1048 156.294 34.1719 156.85 34.1719C157.638 34.1719 158.352 33.9943 158.994 33.6383C159.635 33.2823 160.136 32.8294 160.496 32.2793C160.855 31.7289 161.035 31.1848 161.035 30.6453V28.364ZM161.328 33.4279L161.068 33.363C160.061 34.3232 159.115 35.0027 158.23 35.4015C157.345 35.8002 156.405 36 155.409 36C154.529 36 153.755 35.841 153.083 35.5229C152.411 35.2048 151.896 34.7573 151.539 34.1799C151.18 33.6032 151 32.9371 151 32.1819C151 30.6074 151.835 29.3912 153.509 28.5339C155.179 27.6762 157.688 27.1777 161.035 27.0372V25.986C161.035 24.8642 160.919 23.9798 160.687 23.3328C160.454 22.6855 160.092 22.2109 159.594 21.9088C159.096 21.607 158.429 21.4559 157.597 21.4559C156.695 21.4559 155.968 21.6771 155.417 22.1194C154.87 22.5615 154.455 23.2247 154.175 24.1092H151.902V22.0063C153.014 21.4667 153.94 21.0705 154.682 20.8169C155.42 20.5635 156.161 20.3637 156.903 20.2183C157.644 20.0727 158.396 20 159.16 20C160.305 20 161.226 20.1699 161.92 20.5096C162.614 20.8494 163.134 21.3698 163.483 22.0707C163.829 22.7718 164.003 23.8287 164.003 25.2416V30.8716C164.003 31.6699 164.008 32.2334 164.02 32.5623C164.031 32.8913 164.067 33.1959 164.125 33.4764C164.183 33.7569 164.268 33.9806 164.385 34.1479C164.501 34.3152 164.672 34.4577 164.896 34.5766C165.123 34.6954 165.488 34.8191 166 34.9485V35.7412H161.242L161.328 33.4279Z" fill="white"/>
<mask id="mask0_10_56" style="mask-type:luminance" maskUnits="userSpaceOnUse" x="98" y="43" width="9" height="9">
<path d="M105.05 43.0169H106.381V51.7214H105.05V47.8199H99.9067V51.7214H98.5754V43.0169H99.9067V46.7831H105.05V43.0169Z" fill="white"/>
</mask>
<g mask="url(#mask0_10_56)">
<path d="M105.05 43.017H106.381V51.7214H105.05V47.8199H99.9067V51.7214H98.5754V43.017H99.9067V46.7831H105.05V43.017Z" fill="white"/>
</g>
<mask id="mask1_10_56" style="mask-type:luminance" maskUnits="userSpaceOnUse" x="110" y="42" width="9" height="10">
<path d="M116.592 49.894C117.103 49.3013 117.361 48.4578 117.361 47.3631C117.361 46.2684 117.106 45.4268 116.597 44.8383C116.088 44.25 115.37 43.9554 114.438 43.9554C113.524 43.9554 112.811 44.25 112.302 44.8383C111.793 45.4268 111.538 46.2684 111.538 47.3631C111.538 48.4578 111.793 49.3013 112.302 49.894C112.811 50.4868 113.524 50.783 114.438 50.783C115.358 50.783 116.077 50.4868 116.592 49.894ZM112.173 51.2771C111.533 50.915 111.037 50.4005 110.691 49.7338C110.341 49.0667 110.168 48.2809 110.168 47.3753C110.168 46.462 110.341 45.6696 110.682 44.9988C111.026 44.3281 111.521 43.8136 112.165 43.4555C112.811 43.0976 113.566 42.9183 114.438 42.9183C115.316 42.9183 116.077 43.0976 116.72 43.4555C117.366 43.8136 117.859 44.3281 118.203 44.9988C118.547 45.6696 118.72 46.458 118.72 47.3631C118.72 48.2687 118.547 49.0569 118.203 49.7274C117.859 50.3984 117.366 50.915 116.72 51.2771C116.077 51.6392 115.316 51.8201 114.438 51.8201C113.566 51.8201 112.811 51.6392 112.173 51.2771Z" fill="white"/>
</mask>
<g mask="url(#mask1_10_56)">
<path d="M116.592 49.894C117.103 49.3013 117.361 48.4578 117.361 47.3631C117.361 46.2684 117.106 45.4268 116.597 44.8383C116.088 44.25 115.37 43.9554 114.438 43.9554C113.524 43.9554 112.811 44.25 112.302 44.8383C111.793 45.4268 111.538 46.2684 111.538 47.3631C111.538 48.4578 111.793 49.3013 112.302 49.894C112.811 50.4868 113.524 50.783 114.438 50.783C115.358 50.783 116.077 50.4868 116.592 49.894ZM112.173 51.2771C111.533 50.915 111.037 50.4005 110.691 49.7338C110.341 49.0667 110.168 48.2809 110.168 47.3753C110.168 46.462 110.341 45.6696 110.682 44.9988C111.026 44.3281 111.521 43.8136 112.165 43.4555C112.811 43.0976 113.566 42.9183 114.438 42.9183C115.316 42.9183 116.077 43.0976 116.72 43.4555C117.366 43.8136 117.859 44.3281 118.203 44.9988C118.547 45.6696 118.72 46.458 118.72 47.3631C118.72 48.2687 118.547 49.0569 118.203 49.7274C117.859 50.3984 117.366 50.915 116.72 51.2771C116.077 51.6392 115.316 51.8201 114.438 51.8201C113.566 51.8201 112.811 51.6392 112.173 51.2771Z" fill="white"/>
</g>
<mask id="mask2_10_56" style="mask-type:luminance" maskUnits="userSpaceOnUse" x="121" y="43" width="8" height="9">
<path d="M124.137 51.7214V44.0789H121.03V43.0169H128.614V44.0789H125.493V51.7214H124.137Z" fill="white"/>
</mask>
<g mask="url(#mask2_10_56)">
<path d="M124.137 51.7214V44.0789H121.03V43.017H128.614V44.0789H125.493V51.7214H124.137Z" fill="white"/>
</g>
<mask id="mask3_10_56" style="mask-type:luminance" maskUnits="userSpaceOnUse" x="131" y="43" width="7" height="9">
<path d="M131.8 51.7214V43.0169H137.779V44.0418H133.117V46.7831H137.519V47.8199H133.117V50.6965H137.779V51.7214H131.8Z" fill="white"/>
</mask>
<g mask="url(#mask3_10_56)">
<path d="M131.8 51.7214V43.017H137.779V44.0419H133.117V46.7831H137.519V47.8199H133.117V50.6965H137.779V51.7214H131.8Z" fill="white"/>
</g>
<mask id="mask4_10_56" style="mask-type:luminance" maskUnits="userSpaceOnUse" x="141" y="43" width="7" height="9">
<path d="M141.395 51.7214V43.0169H142.741V50.6595H147.204V51.7214H141.395Z" fill="white"/>
</mask>
<g mask="url(#mask4_10_56)">
<path d="M141.395 51.7214V43.017H142.741V50.6595H147.204V51.7214H141.395Z" fill="white"/>
</g>
</svg>
