<svg width="180" height="63" viewBox="0 0 180 63" fill="none" xmlns="http://www.w3.org/2000/svg">
<path d="M43.7571 61.499C41.4978 60.7417 39.7179 59.7719 38.4655 58.984C38.2278 59.5099 37.8944 60.1275 37.4245 60.7705C36.7137 61.7432 35.9456 62.4248 35.3425 62.8779C47.8875 63.0743 50.9533 63.0033 50.9572 62.8779C50.9613 62.7492 47.7455 62.8355 43.7571 61.499Z" fill="black"/>
<path d="M43.7571 61.499C41.4978 60.7417 39.7179 59.7719 38.4655 58.984C38.2278 59.5099 37.8944 60.1275 37.4245 60.7705C36.7137 61.7432 35.9456 62.4248 35.3425 62.8779C47.8875 63.0743 50.9533 63.0033 50.9572 62.8779C50.9613 62.7492 47.7455 62.8355 43.7571 61.499Z" fill="url(#paint0_radial_10_55)"/>
<path d="M37.5808 58.2381C37.2322 57.8968 36.8497 57.4773 36.4704 56.972C36.1244 56.5112 35.8485 56.0688 35.6288 55.671C35.389 56.6018 34.8679 58.128 33.6771 59.6777C32.2884 61.4849 30.6731 62.433 29.7734 62.8779C30.7277 62.8779 31.6819 62.8779 32.6362 62.8779C33.2771 62.6912 34.3442 62.2889 35.3947 61.3949C36.7492 60.2423 37.3405 58.8985 37.5808 58.2381Z" fill="black"/>
<path d="M37.5808 58.2381C37.2322 57.8968 36.8497 57.4773 36.4704 56.972C36.1244 56.5112 35.8485 56.0688 35.6288 55.671C35.389 56.6018 34.8679 58.128 33.6771 59.6777C32.2884 61.4849 30.6731 62.433 29.7734 62.8779C30.7277 62.8779 31.6819 62.8779 32.6362 62.8779C33.2771 62.6912 34.3442 62.2889 35.3947 61.3949C36.7492 60.2423 37.3405 58.8985 37.5808 58.2381Z" fill="url(#paint1_radial_10_55)"/>
<path d="M53.5703 38.736C45.3754 35.2443 35.0891 44.4955 33.9035 45.5619C32.6896 46.6536 33.1448 46.4375 29.1862 50.4148C24.4654 55.1581 22.0616 57.5595 19.899 58.966C17.7019 60.3948 14.1224 62.1977 8.77148 62.8779C11.5388 62.8779 14.3061 62.8779 17.0734 62.8779C19.5439 62.0227 21.3972 60.9244 22.6395 60.0643C23.6248 59.382 26.1757 57.5831 28.3159 54.5221C29.0577 53.4611 29.2662 52.9407 30.1895 51.8379C31.4865 50.2894 32.8103 49.2435 33.7421 48.5944C33.1538 49.2018 32.2465 50.1789 31.2307 51.4564C28.6547 54.6958 28.1312 56.4101 26.4768 58.3943C25.3756 59.7148 23.5125 61.4679 20.3004 62.8779C21.4454 62.8779 22.5905 62.8779 23.7355 62.8779C25.0263 62.3698 26.577 61.5643 28.0383 60.2327C30.8382 57.6817 31.035 55.9691 33.5208 52.3409C34.718 50.5937 38.1882 45.7988 43.9683 43.2687C46.1841 42.2989 48.6535 41.2616 51.3245 42.2281C53.3938 42.9769 55.9037 45.0441 55.8325 47.6752C55.7458 50.8753 51.858 53.501 49.0314 53.0694C48.0715 52.9227 46.9156 52.6532 45.6655 52.15C43.1745 51.1476 41.4586 49.6804 40.4434 48.6464C39.281 49.6004 38.1184 50.5544 36.956 51.5084C38.8308 53.2261 42.0692 55.6566 46.6372 56.7291C47.9035 57.0265 48.8297 57.2993 50.0723 57.2321C54.5819 56.9882 59.9312 52.8918 59.9993 47.7091C60.0531 43.6203 56.8036 40.1136 53.5703 38.736Z" fill="black"/>
<path d="M53.5703 38.736C45.3754 35.2443 35.0891 44.4955 33.9035 45.5619C32.6896 46.6536 33.1448 46.4375 29.1862 50.4148C24.4654 55.1581 22.0616 57.5595 19.899 58.966C17.7019 60.3948 14.1224 62.1977 8.77148 62.8779C11.5388 62.8779 14.3061 62.8779 17.0734 62.8779C19.5439 62.0227 21.3972 60.9244 22.6395 60.0643C23.6248 59.382 26.1757 57.5831 28.3159 54.5221C29.0577 53.4611 29.2662 52.9407 30.1895 51.8379C31.4865 50.2894 32.8103 49.2435 33.7421 48.5944C33.1538 49.2018 32.2465 50.1789 31.2307 51.4564C28.6547 54.6958 28.1312 56.4101 26.4768 58.3943C25.3756 59.7148 23.5125 61.4679 20.3004 62.8779C21.4454 62.8779 22.5905 62.8779 23.7355 62.8779C25.0263 62.3698 26.577 61.5643 28.0383 60.2327C30.8382 57.6817 31.035 55.9691 33.5208 52.3409C34.718 50.5937 38.1882 45.7988 43.9683 43.2687C46.1841 42.2989 48.6535 41.2616 51.3245 42.2281C53.3938 42.9769 55.9037 45.0441 55.8325 47.6752C55.7458 50.8753 51.858 53.501 49.0314 53.0694C48.0715 52.9227 46.9156 52.6532 45.6655 52.15C43.1745 51.1476 41.4586 49.6804 40.4434 48.6464C39.281 49.6004 38.1184 50.5544 36.956 51.5084C38.8308 53.2261 42.0692 55.6566 46.6372 56.7291C47.9035 57.0265 48.8297 57.2993 50.0723 57.2321C54.5819 56.9882 59.9312 52.8918 59.9993 47.7091C60.0531 43.6203 56.8036 40.1136 53.5703 38.736Z" fill="url(#paint2_radial_10_55)"/>
<path d="M13.0655 57.024C14.7602 56.5745 16.0014 55.8533 16.9172 55.2548C17.9622 54.5719 27.3177 48.3308 30.8937 39.7612C31.7407 37.7312 32.3791 36.9438 33.3474 35.1868C33.8462 34.2815 34.749 32.6869 36.5398 31.5532C37.8422 30.7286 39.1386 30.4494 39.5497 30.3706C39.9722 30.2896 40.9953 30.1261 42.2911 30.2782C42.762 30.3336 43.1544 30.4171 43.4422 30.4893C43.7344 30.631 44.1818 30.8567 44.7114 31.163C45.6907 31.729 46.3329 32.2126 46.5072 32.3337C47.2148 32.8259 48.616 33.1912 51.6859 32.5157C51.2348 31.9867 50.7837 31.4577 50.3328 30.9287C50.0431 30.476 49.6421 29.9833 49.0875 29.5464C46.8767 27.8057 44.0369 28.3806 43.4623 28.5091C42.0663 28.2248 39.5056 27.9205 36.7479 28.9775C34.6477 29.7825 33.2848 31.0505 32.1557 32.229C27.7956 36.7791 27.9175 38.9535 24.1877 43.7298C23.8937 44.1065 20.1033 49.2626 13.5861 52.2368C11.8771 53.0168 10.7094 53.3152 9.41303 53.1681C6.95541 52.8891 3.85594 50.9879 3.5406 47.9699C3.25714 45.2558 5.36264 42.9517 7.25628 42.02C10.5345 40.4071 15.3066 41.8592 18.5307 45.9927L22.0701 42.8707C16.4821 37.6302 9.23383 36.4328 4.61926 39.4181C4.41112 39.5529 0.0829478 42.4537 0.00117707 47.4497C-0.0790287 52.3618 3.95337 56.6586 7.91279 57.2841C9.00359 57.4564 10.8724 57.6056 13.0655 57.024Z" fill="black"/>
<path d="M13.0655 57.024C14.7602 56.5745 16.0014 55.8533 16.9172 55.2548C17.9622 54.5719 27.3177 48.3308 30.8937 39.7612C31.7407 37.7312 32.3791 36.9438 33.3474 35.1868C33.8462 34.2815 34.749 32.6869 36.5398 31.5532C37.8422 30.7286 39.1386 30.4494 39.5497 30.3706C39.9722 30.2896 40.9953 30.1261 42.2911 30.2782C42.762 30.3336 43.1544 30.4171 43.4422 30.4893C43.7344 30.631 44.1818 30.8567 44.7114 31.163C45.6907 31.729 46.3329 32.2126 46.5072 32.3337C47.2148 32.8259 48.616 33.1912 51.6859 32.5157C51.2348 31.9867 50.7837 31.4577 50.3328 30.9287C50.0431 30.476 49.6421 29.9833 49.0875 29.5464C46.8767 27.8057 44.0369 28.3806 43.4623 28.5091C42.0663 28.2248 39.5056 27.9205 36.7479 28.9775C34.6477 29.7825 33.2848 31.0505 32.1557 32.229C27.7956 36.7791 27.9175 38.9535 24.1877 43.7298C23.8937 44.1065 20.1033 49.2626 13.5861 52.2368C11.8771 53.0168 10.7094 53.3152 9.41303 53.1681C6.95541 52.8891 3.85594 50.9879 3.5406 47.9699C3.25714 45.2558 5.36264 42.9517 7.25628 42.02C10.5345 40.4071 15.3066 41.8592 18.5307 45.9927L22.0701 42.8707C16.4821 37.6302 9.23383 36.4328 4.61926 39.4181C4.41112 39.5529 0.0829478 42.4537 0.00117707 47.4497C-0.0790287 52.3618 3.95337 56.6586 7.91279 57.2841C9.00359 57.4564 10.8724 57.6056 13.0655 57.024Z" fill="url(#paint3_radial_10_55)"/>
<path d="M22.6253 10.5573C22.4045 11.1474 21.9753 12.5385 22.3131 14.269C22.7073 16.2891 23.9034 17.5266 24.3486 17.9461C25.0575 18.5496 25.9961 19.4966 26.7892 20.8601C28.0776 23.0753 28.2877 25.1964 28.316 26.3064C28.3202 27.4136 28.2746 28.7773 28.1079 30.3303C27.9338 31.9513 27.6918 33.1818 27.596 33.6491C27.2857 35.1606 26.7638 37.1609 25.8414 39.4537C26.4895 38.7909 27.2513 37.8966 27.969 36.748C28.6903 35.5934 29.1613 34.5113 29.473 33.6352C30.1318 30.3365 30.7907 27.0379 31.4495 23.7394C31.7688 22.7184 32.2921 21.4229 33.174 20.0624C33.7047 19.2433 34.2589 18.5651 34.7701 18.0155C35.1414 17.7586 36.8609 16.5093 37.3032 14.165C37.6283 12.442 37.0857 11.0695 36.8521 10.5573C36.4505 10.8413 35.8681 11.2649 35.1865 11.8062C33.6302 13.042 32.852 13.66 32.3066 14.4425C31.8997 15.0263 31.127 16.4013 31.3466 18.8481C31.0209 19.5024 30.6841 20.2916 30.3981 21.207C30.0876 22.2005 29.9102 23.1081 29.8081 23.8781C29.2993 22.2476 28.7902 20.6174 28.2814 18.9869C28.2851 18.135 28.1983 14.986 25.8631 12.9132C25.3637 12.4698 24.842 12.1471 24.3486 11.9103C24.1168 11.836 23.7938 11.7032 23.4581 11.4593C23.0274 11.1462 22.7678 10.7893 22.6253 10.5573Z" fill="black"/>
<path d="M22.6253 10.5573C22.4045 11.1474 21.9753 12.5385 22.3131 14.269C22.7073 16.2891 23.9034 17.5266 24.3486 17.9461C25.0575 18.5496 25.9961 19.4966 26.7892 20.8601C28.0776 23.0753 28.2877 25.1964 28.316 26.3064C28.3202 27.4136 28.2746 28.7773 28.1079 30.3303C27.9338 31.9513 27.6918 33.1818 27.596 33.6491C27.2857 35.1606 26.7638 37.1609 25.8414 39.4537C26.4895 38.7909 27.2513 37.8966 27.969 36.748C28.6903 35.5934 29.1613 34.5113 29.473 33.6352C30.1318 30.3365 30.7907 27.0379 31.4495 23.7394C31.7688 22.7184 32.2921 21.4229 33.174 20.0624C33.7047 19.2433 34.2589 18.5651 34.7701 18.0155C35.1414 17.7586 36.8609 16.5093 37.3032 14.165C37.6283 12.442 37.0857 11.0695 36.8521 10.5573C36.4505 10.8413 35.8681 11.2649 35.1865 11.8062C33.6302 13.042 32.852 13.66 32.3066 14.4425C31.8997 15.0263 31.127 16.4013 31.3466 18.8481C31.0209 19.5024 30.6841 20.2916 30.3981 21.207C30.0876 22.2005 29.9102 23.1081 29.8081 23.8781C29.2993 22.2476 28.7902 20.6174 28.2814 18.9869C28.2851 18.135 28.1983 14.986 25.8631 12.9132C25.3637 12.4698 24.842 12.1471 24.3486 11.9103C24.1168 11.836 23.7938 11.7032 23.4581 11.4593C23.0274 11.1462 22.7678 10.7893 22.6253 10.5573Z" fill="url(#paint4_radial_10_55)"/>
<path d="M26.2342 33.7646C27.6435 30.5509 27.0122 26.8537 24.6725 24.4679C21.6486 21.3842 17.3963 22.1493 17.0735 22.213C17.2093 22.6824 17.7551 24.3557 19.4677 25.5085C20.986 26.5306 22.5187 26.5359 23.0418 26.5146C22.6014 26.381 21.8438 26.0888 21.0985 25.4391C20.295 24.7388 19.895 23.962 19.7105 23.5312C20.3332 23.6305 21.6182 23.9272 22.7988 24.9535C24.8417 26.7293 24.9239 29.2568 24.9309 29.6945C24.1025 29.2547 22.9755 28.7741 21.5844 28.4919C18.8811 27.9434 16.6244 28.4362 15.4078 28.8041C13.2025 28.0992 11.8703 28.6904 11.4521 28.9081C10.7077 29.2955 10.1255 29.9213 9.19672 30.9201C8.6341 31.525 8.20432 32.0624 7.91284 32.4465C9.89784 33.3606 11.1119 33.2057 11.8605 32.8801C12.564 32.5742 13.0104 32.0505 14.5056 31.3363C15.1245 31.041 15.6595 30.8386 15.9283 30.7466C18.8298 29.7547 21.9911 30.9344 22.3131 31.0588C24.2425 31.8053 25.5237 32.9841 26.2342 33.7646Z" fill="black"/>
<path d="M26.2342 33.7646C27.6435 30.5509 27.0122 26.8537 24.6725 24.4679C21.6486 21.3842 17.3963 22.1493 17.0735 22.213C17.2093 22.6824 17.7551 24.3557 19.4677 25.5085C20.986 26.5306 22.5187 26.5359 23.0418 26.5146C22.6014 26.381 21.8438 26.0888 21.0985 25.4391C20.295 24.7388 19.895 23.962 19.7105 23.5312C20.3332 23.6305 21.6182 23.9272 22.7988 24.9535C24.8417 26.7293 24.9239 29.2568 24.9309 29.6945C24.1025 29.2547 22.9755 28.7741 21.5844 28.4919C18.8811 27.9434 16.6244 28.4362 15.4078 28.8041C13.2025 28.0992 11.8703 28.6904 11.4521 28.9081C10.7077 29.2955 10.1255 29.9213 9.19672 30.9201C8.6341 31.525 8.20432 32.0624 7.91284 32.4465C9.89784 33.3606 11.1119 33.2057 11.8605 32.8801C12.564 32.5742 13.0104 32.0505 14.5056 31.3363C15.1245 31.041 15.6595 30.8386 15.9283 30.7466C18.8298 29.7547 21.9911 30.9344 22.3131 31.0588C24.2425 31.8053 25.5237 32.9841 26.2342 33.7646Z" fill="url(#paint5_radial_10_55)"/>
<path d="M38.2574 25.4911C37.6686 26.0024 37.0889 26.327 36.6439 26.532C37.1439 26.5844 38.6907 26.6824 40.2614 25.7252C42.0742 24.6207 42.6546 22.8809 42.7857 22.4471C42.5204 22.3589 38.8552 21.2092 35.7591 23.67C32.4661 26.2871 33.0047 30.4547 33.0303 30.6291C33.2692 30.4077 33.5448 30.174 33.8592 29.9401C34.1593 29.717 34.4488 29.5277 34.718 29.3677C34.7317 28.8618 34.84 27.1787 36.1233 25.6472C37.5089 23.9939 39.3208 23.6426 39.7928 23.566C39.5233 24.0686 39.0491 24.8037 38.2574 25.4911Z" fill="black"/>
<path d="M38.2574 25.4911C37.6686 26.0024 37.0889 26.327 36.6439 26.532C37.1439 26.5844 38.6907 26.6824 40.2614 25.7252C42.0742 24.6207 42.6546 22.8809 42.7857 22.4471C42.5204 22.3589 38.8552 21.2092 35.7591 23.67C32.4661 26.2871 33.0047 30.4547 33.0303 30.6291C33.2692 30.4077 33.5448 30.174 33.8592 29.9401C34.1593 29.717 34.4488 29.5277 34.718 29.3677C34.7317 28.8618 34.84 27.1787 36.1233 25.6472C37.5089 23.9939 39.3208 23.6426 39.7928 23.566C39.5233 24.0686 39.0491 24.8037 38.2574 25.4911Z" fill="url(#paint6_radial_10_55)"/>
<path d="M16.7091 20.9381C16.7302 20.8746 16.7596 20.7797 16.7889 20.6634C16.9382 20.3798 17.133 19.8539 16.9464 19.2132C16.7163 18.4231 16.0454 17.9395 15.6457 17.652C15.1752 17.3129 14.7269 17.1287 14.4246 17.0283C14.4203 17.0616 14.4162 17.097 14.4125 17.1339C14.3205 17.0962 14.2351 17.0633 14.1588 17.0356C14.0815 17.3497 14.0019 17.8339 14.0676 18.4145C14.1234 18.9077 14.2173 19.7381 14.8875 20.3399C15.5827 20.9641 16.4618 20.9507 16.7091 20.9381Z" fill="black"/>
<path d="M16.7091 20.9381C16.7302 20.8746 16.7596 20.7797 16.7889 20.6634C16.9382 20.3798 17.133 19.8539 16.9464 19.2132C16.7163 18.4231 16.0454 17.9395 15.6457 17.652C15.1752 17.3129 14.7269 17.1287 14.4246 17.0283C14.4203 17.0616 14.4162 17.097 14.4125 17.1339C14.3205 17.0962 14.2351 17.0633 14.1588 17.0356C14.0815 17.3497 14.0019 17.8339 14.0676 18.4145C14.1234 18.9077 14.2173 19.7381 14.8875 20.3399C15.5827 20.9641 16.4618 20.9507 16.7091 20.9381Z" fill="url(#paint7_radial_10_55)"/>
<path d="M28.8431 10.4396C28.5373 11.0263 28.0228 12.0136 28.3151 13.1772C28.6185 14.3844 29.5999 15.024 29.8824 15.1943C30.2394 14.9187 31.4032 13.9509 31.4437 12.5676C31.4658 11.8141 31.1491 11.1339 30.8099 10.406C30.5205 9.78467 30.2056 9.30612 29.9706 8.98383C29.6514 9.27346 29.203 9.74908 28.8431 10.4396Z" fill="black"/>
<path d="M28.8431 10.4396C28.5373 11.0263 28.0228 12.0136 28.3151 13.1772C28.6185 14.3844 29.5999 15.024 29.8824 15.1943C30.2394 14.9187 31.4032 13.9509 31.4437 12.5676C31.4658 11.8141 31.1491 11.1339 30.8099 10.406C30.5205 9.78467 30.2056 9.30612 29.9706 8.98383C29.6514 9.27346 29.203 9.74908 28.8431 10.4396Z" fill="url(#paint8_radial_10_55)"/>
<path d="M29.8618 6.83687C30.2548 6.53354 31.5358 5.46809 31.5804 3.9452C31.6048 3.1158 31.256 2.36697 30.8828 1.56572C30.5641 0.881626 30.2175 0.354764 29.9587 3.80316e-06C29.6073 0.31878 29.1138 0.842506 28.7174 1.60268C28.381 2.24845 27.8144 3.33542 28.1364 4.61639C28.4702 5.94547 29.5508 6.64932 29.8618 6.83687Z" fill="black"/>
<path d="M29.8618 6.83687C30.2548 6.53354 31.5358 5.46809 31.5804 3.9452C31.6048 3.1158 31.256 2.36697 30.8828 1.56572C30.5641 0.881626 30.2175 0.354764 29.9587 3.80316e-06C29.6073 0.31878 29.1138 0.842506 28.7174 1.60268C28.381 2.24845 27.8144 3.33542 28.1364 4.61639C28.4702 5.94547 29.5508 6.64932 29.8618 6.83687Z" fill="url(#paint9_radial_10_55)"/>
<path d="M21.655 36.8147C23.1426 36.8147 24.3486 35.6091 24.3486 34.1218C22.861 34.1218 21.655 35.3274 21.655 36.8147Z" fill="black"/>
<path d="M21.655 36.8147C23.1426 36.8147 24.3486 35.6091 24.3486 34.1218C22.861 34.1218 21.655 35.3274 21.655 36.8147Z" fill="url(#paint10_radial_10_55)"/>
<path d="M17.5324 34.8952L17.4456 35.6102L18.1608 35.6971C19.6375 35.8764 20.9801 34.8248 21.1595 33.3485L21.2463 32.6335L20.5311 32.5467C19.0544 32.3673 17.7118 33.4189 17.5324 34.8952Z" fill="black"/>
<path d="M17.5324 34.8952L17.4456 35.6102L18.1608 35.6971C19.6375 35.8764 20.9801 34.8248 21.1595 33.3485L21.2463 32.6335L20.5311 32.5467C19.0544 32.3673 17.7118 33.4189 17.5324 34.8952Z" fill="url(#paint11_radial_10_55)"/>
<path d="M13.0854 34.6696C14.4437 35.276 16.0366 34.6666 16.6431 33.3086C15.2846 32.7023 13.6919 33.3117 13.0854 34.6696Z" fill="black"/>
<path d="M13.0854 34.6696C14.4437 35.276 16.0366 34.6666 16.6431 33.3086C15.2846 32.7023 13.6919 33.3117 13.0854 34.6696Z" fill="url(#paint12_radial_10_55)"/>
<path d="M35.2378 34.1659C35.2621 35.6528 36.4876 36.8386 37.975 36.8143C37.9507 35.3272 36.7251 34.1415 35.2378 34.1659Z" fill="black"/>
<path d="M35.2378 34.1659C35.2621 35.6528 36.4876 36.8386 37.975 36.8143C37.9507 35.3272 36.7251 34.1415 35.2378 34.1659Z" fill="url(#paint13_radial_10_55)"/>
<path d="M39.0286 32.5285L38.3149 32.627L38.4135 33.3405C38.617 34.8137 39.9766 35.8432 41.4502 35.6396L42.1638 35.541L42.0652 34.8276C41.8618 33.3543 40.5022 32.3251 39.0286 32.5285Z" fill="black"/>
<path d="M39.0286 32.5285L38.3149 32.627L38.4135 33.3405C38.617 34.8137 39.9766 35.8432 41.4502 35.6396L42.1638 35.541L42.0652 34.8276C41.8618 33.3543 40.5022 32.3251 39.0286 32.5285Z" fill="url(#paint14_radial_10_55)"/>
<path d="M42.9287 33.2268C43.5574 34.5747 45.16 35.1579 46.5082 34.5293C45.8795 33.1815 44.2769 32.5983 42.9287 33.2268Z" fill="black"/>
<path d="M42.9287 33.2268C43.5574 34.5747 45.16 35.1579 46.5082 34.5293C45.8795 33.1815 44.2769 32.5983 42.9287 33.2268Z" fill="url(#paint15_radial_10_55)"/>
<path d="M55.3992 26.3311C55.7075 26.427 56.0246 26.4713 56.3356 26.4713C57.4344 26.4713 58.4681 25.911 58.8707 25.0073C57.4697 24.5798 55.9168 25.1724 55.3992 26.3311Z" fill="black"/>
<path d="M55.3992 26.3311C55.7075 26.427 56.0246 26.4713 56.3356 26.4713C57.4344 26.4713 58.4681 25.911 58.8707 25.0073C57.4697 24.5798 55.9168 25.1724 55.3992 26.3311Z" fill="url(#paint16_radial_10_55)"/>
<path d="M54.1148 22.3433C55.2091 22.1383 55.8343 21.3244 56.2046 20.8409C56.6411 20.2703 56.8623 19.7102 56.9787 19.3311C56.6131 19.2574 56.0851 19.1794 55.4479 19.1765C54.7003 19.1735 54.0027 19.172 53.3788 19.4815C52.2317 20.0506 51.8835 21.4026 51.7937 21.808C52.0502 21.9791 52.9794 22.5555 54.1148 22.3433Z" fill="black"/>
<path d="M54.1148 22.3433C55.2091 22.1383 55.8343 21.3244 56.2046 20.8409C56.6411 20.2703 56.8623 19.7102 56.9787 19.3311C56.6131 19.2574 56.0851 19.1794 55.4479 19.1765C54.7003 19.1735 54.0027 19.172 53.3788 19.4815C52.2317 20.0506 51.8835 21.4026 51.7937 21.808C52.0502 21.9791 52.9794 22.5555 54.1148 22.3433Z" fill="url(#paint17_radial_10_55)"/>
<path d="M37.3281 4.09718C37.5331 3.90416 38.2012 3.22885 38.198 2.3752C38.1951 1.90936 37.9946 1.51275 37.7794 1.08817C37.5949 0.726959 37.3989 0.454137 37.2528 0.271476C37.0701 0.471933 36.8148 0.794817 36.6158 1.24443C36.4476 1.62637 36.163 2.26764 36.3592 2.96347C36.5642 3.6859 37.1569 4.01172 37.3281 4.09718Z" fill="black"/>
<path d="M37.3281 4.09718C37.5331 3.90416 38.2012 3.22885 38.198 2.3752C38.1951 1.90936 37.9946 1.51275 37.7794 1.08817C37.5949 0.726959 37.3989 0.454137 37.2528 0.271476C37.0701 0.471933 36.8148 0.794817 36.6158 1.24443C36.4476 1.62637 36.163 2.26764 36.3592 2.96347C36.5642 3.6859 37.1569 4.01172 37.3281 4.09718Z" fill="url(#paint18_radial_10_55)"/>
<path d="M37.2189 21.4793C39.4664 21.0414 41.3082 19.2265 41.6902 16.7983C38.6154 16.2838 35.7278 18.3891 35.2368 21.5043C35.9137 21.6179 36.5833 21.6031 37.2189 21.4793Z" fill="black"/>
<path d="M37.2189 21.4793C39.4664 21.0414 41.3082 19.2265 41.6902 16.7983C38.6154 16.2838 35.7278 18.3891 35.2368 21.5043C35.9137 21.6179 36.5833 21.6031 37.2189 21.4793Z" fill="url(#paint19_radial_10_55)"/>
<path d="M38.1438 9.26467L38.3102 9.64935L40.2864 8.79589C42.2922 7.92894 43.2153 5.6011 42.3481 3.59594L42.1814 3.21124L40.2054 4.06627C38.1997 4.93323 37.2766 7.26108 38.1438 9.26467Z" fill="black"/>
<path d="M38.1438 9.26467L38.3102 9.64935L40.2864 8.79589C42.2922 7.92894 43.2153 5.6011 42.3481 3.59594L42.1814 3.21124L40.2054 4.06627C38.1997 4.93323 37.2766 7.26108 38.1438 9.26467Z" fill="url(#paint20_radial_10_55)"/>
<path d="M44.8181 19.601C45.0983 19.141 45.1427 18.6441 45.1883 18.112C45.2282 17.6579 45.2016 17.2849 45.1691 17.0283C44.8669 17.1286 44.4185 17.3129 43.948 17.652C43.5483 17.9395 42.8774 18.4231 42.6473 19.2132C42.4084 20.033 42.7948 20.6669 42.9098 20.8423C43.2314 20.7584 44.3021 20.4457 44.8181 19.601Z" fill="black"/>
<path d="M44.8181 19.601C45.0983 19.141 45.1427 18.6441 45.1883 18.112C45.2282 17.6579 45.2016 17.2849 45.1691 17.0283C44.8669 17.1286 44.4185 17.3129 43.948 17.652C43.5483 17.9395 42.8774 18.4231 42.6473 19.2132C42.4084 20.033 42.7948 20.6669 42.9098 20.8423C43.2314 20.7584 44.3021 20.4457 44.8181 19.601Z" fill="url(#paint21_radial_10_55)"/>
<path d="M45.8904 8.48179C46.1527 8.09847 46.2133 7.65767 46.2781 7.18596C46.3327 6.78348 46.3268 6.44729 46.3106 6.21437C46.0467 6.2748 45.6529 6.39566 45.234 6.65225C44.8772 6.86894 44.2784 7.23602 44.0439 7.92012C43.8005 8.62925 44.1029 9.23512 44.1943 9.40331C44.4731 9.36048 45.4081 9.18642 45.8904 8.48179Z" fill="black"/>
<path d="M45.8904 8.48179C46.1527 8.09847 46.2133 7.65767 46.2781 7.18596C46.3327 6.78348 46.3268 6.44729 46.3106 6.21437C46.0467 6.2748 45.6529 6.39566 45.234 6.65225C44.8772 6.86894 44.2784 7.23602 44.0439 7.92012C43.8005 8.62925 44.1029 9.23512 44.1943 9.40331C44.4731 9.36048 45.4081 9.18642 45.8904 8.48179Z" fill="url(#paint22_radial_10_55)"/>
<path d="M33.9776 9.54334C35.2473 8.81055 35.9567 7.48069 35.9567 6.11405C35.9567 5.44326 35.7855 4.76209 35.4258 4.13999L34.2092 4.84325C32.3171 5.9357 31.6682 8.35351 32.761 10.245L33.9776 9.54334Z" fill="black"/>
<path d="M33.9776 9.54334C35.2473 8.81055 35.9567 7.48069 35.9567 6.11405C35.9567 5.44326 35.7855 4.76209 35.4258 4.13999L34.2092 4.84325C32.3171 5.9357 31.6682 8.35351 32.761 10.245L33.9776 9.54334Z" fill="url(#paint23_radial_10_55)"/>
<path d="M44.2298 27.111C44.7666 27.0639 45.1929 26.803 45.6485 26.5228C46.038 26.2856 46.321 26.0423 46.5082 25.8639C46.2473 25.6811 45.8329 25.429 45.2813 25.252C44.8124 25.1031 44.0248 24.8511 43.2521 25.1341C42.4514 25.4303 42.1697 26.1174 42.0989 26.3151C42.3555 26.5228 43.2433 27.1981 44.2298 27.111Z" fill="black"/>
<path d="M44.2298 27.111C44.7666 27.0639 45.1929 26.803 45.6485 26.5228C46.038 26.2856 46.321 26.0423 46.5082 25.8639C46.2473 25.6811 45.8329 25.429 45.2813 25.252C44.8124 25.1031 44.0248 24.8511 43.2521 25.1341C42.4514 25.4303 42.1697 26.1174 42.0989 26.3151C42.3555 26.5228 43.2433 27.1981 44.2298 27.111Z" fill="url(#paint24_radial_10_55)"/>
<path d="M49.2055 19.0482C48.4639 19.091 47.2133 19.1616 46.2178 20.3176C45.1855 21.516 45.0749 23.1291 45.0571 23.5846C45.5188 23.8175 47.0953 24.5325 48.4845 23.6215C49.2425 23.1246 49.7454 22.2754 50.2852 21.3672C50.7466 20.5918 51.052 19.884 51.2451 19.3798C50.7895 19.2015 50.0802 18.9965 49.2055 19.0482Z" fill="black"/>
<path d="M49.2055 19.0482C48.4639 19.091 47.2133 19.1616 46.2178 20.3176C45.1855 21.516 45.0749 23.1291 45.0571 23.5846C45.5188 23.8175 47.0953 24.5325 48.4845 23.6215C49.2425 23.1246 49.7454 22.2754 50.2852 21.3672C50.7466 20.5918 51.052 19.884 51.2451 19.3798C50.7895 19.2015 50.0802 18.9965 49.2055 19.0482Z" fill="url(#paint25_radial_10_55)"/>
<path d="M47.2618 18.0987C47.7219 18.0382 48.1599 17.9054 48.5639 17.7183C49.99 17.0533 50.9824 15.6764 50.9397 14.2184C48.853 14.4926 47.2072 16.2279 47.2618 18.0987Z" fill="black"/>
<path d="M47.2618 18.0987C47.7219 18.0382 48.1599 17.9054 48.5639 17.7183C49.99 17.0533 50.9824 15.6764 50.9397 14.2184C48.853 14.4926 47.2072 16.2279 47.2618 18.0987Z" fill="url(#paint26_radial_10_55)"/>
<path d="M53.8139 26.178C54.2239 25.5485 54.3744 24.9336 54.4348 24.5178C53.9776 24.447 53.3215 24.3749 52.5472 24.3866C51.6403 24.4013 50.7923 24.4146 50.1006 24.767C48.8294 25.4127 48.6907 26.8914 48.6672 27.3352C49.0137 27.5151 50.2629 28.1196 51.5945 27.8616C52.8806 27.6125 53.4659 26.7131 53.8139 26.178Z" fill="black"/>
<path d="M53.8139 26.178C54.2239 25.5485 54.3744 24.9336 54.4348 24.5178C53.9776 24.447 53.3215 24.3749 52.5472 24.3866C51.6403 24.4013 50.7923 24.4146 50.1006 24.767C48.8294 25.4127 48.6907 26.8914 48.6672 27.3352C49.0137 27.5151 50.2629 28.1196 51.5945 27.8616C52.8806 27.6125 53.4659 26.7131 53.8139 26.178Z" fill="url(#paint27_radial_10_55)"/>
<path d="M49.1361 10.043V9.49014H48.8693C45.7059 9.49014 43.1428 12.0525 43.1428 15.215V15.7679H43.4099C46.5717 15.7679 49.1361 13.2055 49.1361 10.043Z" fill="black"/>
<path d="M49.1361 10.043V9.49014H48.8693C45.7059 9.49014 43.1428 12.0525 43.1428 15.215V15.7679H43.4099C46.5717 15.7679 49.1361 13.2055 49.1361 10.043Z" fill="url(#paint28_radial_10_55)"/>
<path d="M54.3139 16.443C54.6353 16.011 54.724 15.5201 54.8198 14.9938C54.9008 14.5456 54.9082 14.1711 54.8994 13.9131C54.5882 13.9869 54.1252 14.1285 53.6267 14.4218C53.202 14.6723 52.4897 15.0926 52.1873 15.8577C51.8747 16.6525 52.2006 17.3203 52.301 17.5045C52.6283 17.4515 53.7226 17.2376 54.3139 16.443Z" fill="black"/>
<path d="M54.3139 16.443C54.6353 16.011 54.724 15.5201 54.8198 14.9938C54.9008 14.5456 54.9082 14.1711 54.8994 13.9131C54.5882 13.9869 54.1252 14.1285 53.6267 14.4218C53.202 14.6723 52.4897 15.0926 52.1873 15.8577C51.8747 16.6525 52.2006 17.3203 52.301 17.5045C52.6283 17.4515 53.7226 17.2376 54.3139 16.443Z" fill="url(#paint29_radial_10_55)"/>
<path d="M40.3972 10.1404C38.8236 10.82 38.0994 12.6466 38.7794 14.2184L41.0017 13.2586C42.1741 12.7528 42.8732 11.6103 42.8732 10.4101C42.8732 9.99884 42.792 9.5817 42.6181 9.18059L40.3972 10.1404Z" fill="black"/>
<path d="M40.3972 10.1404C38.8236 10.82 38.0994 12.6466 38.7794 14.2184L41.0017 13.2586C42.1741 12.7528 42.8732 11.6103 42.8732 10.4101C42.8732 9.99884 42.792 9.5817 42.6181 9.18059L40.3972 10.1404Z" fill="url(#paint30_radial_10_55)"/>
<path d="M53.8039 30.7335L55.0646 30.244C54.6767 29.2445 53.5501 28.7475 52.5503 29.1367L51.2893 29.6262C51.6772 30.6258 52.804 31.1227 53.8039 30.7335Z" fill="black"/>
<path d="M53.8039 30.7335L55.0646 30.244C54.6767 29.2445 53.5501 28.7475 52.5503 29.1367L51.2893 29.6262C51.6772 30.6258 52.804 31.1227 53.8039 30.7335Z" fill="url(#paint31_radial_10_55)"/>
<path d="M3.25799 26.4713C3.56903 26.4713 3.88614 26.427 4.19444 26.3311C3.67682 25.1724 2.12376 24.5798 0.7229 25.0073C1.12549 25.911 2.15917 26.4713 3.25799 26.4713Z" fill="black"/>
<path d="M3.25799 26.4713C3.56903 26.4713 3.88614 26.427 4.19444 26.3311C3.67682 25.1724 2.12376 24.5798 0.7229 25.0073C1.12549 25.911 2.15917 26.4713 3.25799 26.4713Z" fill="url(#paint32_radial_10_55)"/>
<path d="M5.47891 22.3433C6.61431 22.5555 7.54353 21.9791 7.8 21.808C7.71001 21.4026 7.362 20.0506 6.21466 19.4815C5.59101 19.172 4.89342 19.1735 4.14575 19.1765C3.5086 19.1794 2.98061 19.2574 2.61499 19.3311C2.73139 19.7102 2.95263 20.2703 3.38927 20.8409C3.75939 21.3244 4.3846 22.1383 5.47891 22.3433Z" fill="black"/>
<path d="M5.47891 22.3433C6.61431 22.5555 7.54353 21.9791 7.8 21.808C7.71001 21.4026 7.362 20.0506 6.21466 19.4815C5.59101 19.172 4.89342 19.1735 4.14575 19.1765C3.5086 19.1794 2.98061 19.2574 2.61499 19.3311C2.73139 19.7102 2.95263 20.2703 3.38927 20.8409C3.75939 21.3244 4.3846 22.1383 5.47891 22.3433Z" fill="url(#paint33_radial_10_55)"/>
<path d="M22.2654 4.09718C22.4366 4.01172 23.0293 3.6859 23.2343 2.96347C23.4305 2.26764 23.1459 1.62637 22.9777 1.24443C22.7787 0.794817 22.5234 0.471933 22.3407 0.271476C22.1946 0.454137 21.9986 0.726959 21.8141 1.08817C21.5989 1.51275 21.3984 1.90936 21.3953 2.3752C21.3923 3.22885 22.0604 3.90416 22.2654 4.09718Z" fill="black"/>
<path d="M22.2654 4.09718C22.4366 4.01172 23.0293 3.6859 23.2343 2.96347C23.4305 2.26764 23.1459 1.62637 22.9777 1.24443C22.7787 0.794817 22.5234 0.471933 22.3407 0.271476C22.1946 0.454137 21.9986 0.726959 21.8141 1.08817C21.5989 1.51275 21.3984 1.90936 21.3953 2.3752C21.3923 3.22885 22.0604 3.90416 22.2654 4.09718Z" fill="url(#paint34_radial_10_55)"/>
<path d="M22.3747 21.4793C23.0103 21.6031 23.6799 21.6179 24.3568 21.5043C23.8657 18.3891 20.9781 16.2838 17.9033 16.7983C18.2854 19.2265 20.1272 21.0414 22.3747 21.4793Z" fill="black"/>
<path d="M22.3747 21.4793C23.0103 21.6031 23.6799 21.6179 24.3568 21.5043C23.8657 18.3891 20.9781 16.2838 17.9033 16.7983C18.2854 19.2265 20.1272 21.0414 22.3747 21.4793Z" fill="url(#paint35_radial_10_55)"/>
<path d="M19.3073 8.79589L21.2834 9.64935L21.4499 9.26467C22.3171 7.26108 21.394 4.93323 19.3882 4.06627L17.4122 3.21124L17.2456 3.59594C16.3784 5.6011 17.3015 7.92894 19.3073 8.79589Z" fill="black"/>
<path d="M19.3073 8.79589L21.2834 9.64935L21.4499 9.26467C22.3171 7.26108 21.394 4.93323 19.3882 4.06627L17.4122 3.21124L17.2456 3.59594C16.3784 5.6011 17.3015 7.92894 19.3073 8.79589Z" fill="url(#paint36_radial_10_55)"/>
<path d="M13.7032 8.48179C14.1854 9.18642 15.1205 9.36048 15.3993 9.40331C15.4906 9.23512 15.7929 8.62925 15.5497 7.92012C15.3152 7.23602 14.7164 6.86894 14.3595 6.65225C13.9407 6.39566 13.5469 6.2748 13.283 6.21437C13.2668 6.44729 13.2609 6.78348 13.3155 7.18596C13.3803 7.65767 13.4407 8.09847 13.7032 8.48179Z" fill="black"/>
<path d="M13.7032 8.48179C14.1854 9.18642 15.1205 9.36048 15.3993 9.40331C15.4906 9.23512 15.7929 8.62925 15.5497 7.92012C15.3152 7.23602 14.7164 6.86894 14.3595 6.65225C13.9407 6.39566 13.5469 6.2748 13.283 6.21437C13.2668 6.44729 13.2609 6.78348 13.3155 7.18596C13.3803 7.65767 13.4407 8.09847 13.7032 8.48179Z" fill="url(#paint37_radial_10_55)"/>
<path d="M25.6161 9.54334L26.8327 10.245C27.9254 8.35351 27.2765 5.9357 25.3845 4.84325L24.1679 4.13999C23.8081 4.76209 23.637 5.44326 23.637 6.11405C23.637 7.48069 24.3463 8.81055 25.6161 9.54334Z" fill="black"/>
<path d="M25.6161 9.54334L26.8327 10.245C27.9254 8.35351 27.2765 5.9357 25.3845 4.84325L24.1679 4.13999C23.8081 4.76209 23.637 5.44326 23.637 6.11405C23.637 7.48069 24.3463 8.81055 25.6161 9.54334Z" fill="url(#paint38_radial_10_55)"/>
<path d="M13.0854 25.8639C13.2727 26.0423 13.5557 26.2856 13.9452 26.5228C14.4008 26.803 14.8271 27.0639 15.3639 27.111C16.3504 27.1981 17.2381 26.5228 17.4948 26.3151C17.424 26.1174 17.1423 25.4303 16.3416 25.1341C15.5689 24.8511 14.7813 25.1031 14.3124 25.252C13.7607 25.429 13.3464 25.6811 13.0854 25.8639Z" fill="black"/>
<path d="M13.0854 25.8639C13.2727 26.0423 13.5557 26.2856 13.9452 26.5228C14.4008 26.803 14.8271 27.0639 15.3639 27.111C16.3504 27.1981 17.2381 26.5228 17.4948 26.3151C17.424 26.1174 17.1423 25.4303 16.3416 25.1341C15.5689 24.8511 14.7813 25.1031 14.3124 25.252C13.7607 25.429 13.3464 25.6811 13.0854 25.8639Z" fill="url(#paint39_radial_10_55)"/>
<path d="M11.1093 23.6215C12.4984 24.5325 14.0749 23.8175 14.5366 23.5846C14.5188 23.1291 14.4083 21.516 13.376 20.3176C12.3804 19.1616 11.1298 19.091 10.3882 19.0482C9.51358 18.9965 8.80424 19.2015 8.34863 19.3798C8.54171 19.884 8.84708 20.5918 9.30856 21.3672C9.84828 22.2754 10.3512 23.1246 11.1093 23.6215Z" fill="black"/>
<path d="M11.1093 23.6215C12.4984 24.5325 14.0749 23.8175 14.5366 23.5846C14.5188 23.1291 14.4083 21.516 13.376 20.3176C12.3804 19.1616 11.1298 19.091 10.3882 19.0482C9.51358 18.9965 8.80424 19.2015 8.34863 19.3798C8.54171 19.884 8.84708 20.5918 9.30856 21.3672C9.84828 22.2754 10.3512 23.1246 11.1093 23.6215Z" fill="url(#paint40_radial_10_55)"/>
<path d="M11.0298 17.7183C11.4337 17.9054 11.8717 18.0382 12.3318 18.0987C12.3864 16.2279 10.7406 14.4926 8.65391 14.2184C8.61127 15.6764 9.60366 17.0533 11.0298 17.7183Z" fill="black"/>
<path d="M11.0298 17.7183C11.4337 17.9054 11.8717 18.0382 12.3318 18.0987C12.3864 16.2279 10.7406 14.4926 8.65391 14.2184C8.61127 15.6764 9.60366 17.0533 11.0298 17.7183Z" fill="url(#paint41_radial_10_55)"/>
<path d="M7.99895 27.8616C9.33056 28.1196 10.5798 27.5151 10.9263 27.3352C10.9028 26.8914 10.7641 25.4127 9.49293 24.767C8.80121 24.4146 7.95318 24.4013 7.04627 24.3866C6.27199 24.3749 5.61586 24.447 5.15869 24.5178C5.21914 24.9336 5.36958 25.5485 5.77961 26.178C6.12762 26.7131 6.71292 27.6125 7.99895 27.8616Z" fill="black"/>
<path d="M7.99895 27.8616C9.33056 28.1196 10.5798 27.5151 10.9263 27.3352C10.9028 26.8914 10.7641 25.4127 9.49293 24.767C8.80121 24.4146 7.95318 24.4013 7.04627 24.3866C6.27199 24.3749 5.61586 24.447 5.15869 24.5178C5.21914 24.9336 5.36958 25.5485 5.77961 26.178C6.12762 26.7131 6.71292 27.6125 7.99895 27.8616Z" fill="url(#paint42_radial_10_55)"/>
<path d="M16.1838 15.7679H16.4508V15.215C16.4508 12.0525 13.8878 9.49014 10.7244 9.49014H10.4575V10.043C10.4575 13.2055 13.022 15.7679 16.1838 15.7679Z" fill="black"/>
<path d="M16.1838 15.7679H16.4508V15.215C16.4508 12.0525 13.8878 9.49014 10.7244 9.49014H10.4575V10.043C10.4575 13.2055 13.022 15.7679 16.1838 15.7679Z" fill="url(#paint43_radial_10_55)"/>
<path d="M5.27979 16.443C5.87116 17.2376 6.96547 17.4515 7.29275 17.5045C7.39311 17.3203 7.71902 16.6525 7.40641 15.8577C7.10398 15.0926 6.39171 14.6723 5.96701 14.4218C5.46856 14.1285 5.00552 13.9869 4.69428 13.9131C4.68548 14.1711 4.69292 14.5456 4.77391 14.9938C4.86976 15.5201 4.95838 16.011 5.27979 16.443Z" fill="black"/>
<path d="M5.27979 16.443C5.87116 17.2376 6.96547 17.4515 7.29275 17.5045C7.39311 17.3203 7.71902 16.6525 7.40641 15.8577C7.10398 15.0926 6.39171 14.6723 5.96701 14.4218C5.46856 14.1285 5.00552 13.9869 4.69428 13.9131C4.68548 14.1711 4.69292 14.5456 4.77391 14.9938C4.86976 15.5201 4.95838 16.011 5.27979 16.443Z" fill="url(#paint44_radial_10_55)"/>
<path d="M18.592 13.2586L20.8143 14.2184C21.4943 12.6466 20.7701 10.82 19.1967 10.1404L16.9756 9.18059C16.8016 9.5817 16.7205 9.99884 16.7205 10.4101C16.7205 11.6103 17.4196 12.7528 18.592 13.2586Z" fill="black"/>
<path d="M18.592 13.2586L20.8143 14.2184C21.4943 12.6466 20.7701 10.82 19.1967 10.1404L16.9756 9.18059C16.8016 9.5817 16.7205 9.99884 16.7205 10.4101C16.7205 11.6103 17.4196 12.7528 18.592 13.2586Z" fill="url(#paint45_radial_10_55)"/>
<path d="M4.52905 30.244L5.78985 30.7335C6.78968 31.1227 7.91648 30.6258 8.3044 29.6262L7.04341 29.1367C6.04358 28.7475 4.91678 29.2445 4.52905 30.244Z" fill="black"/>
<path d="M4.52905 30.244L5.78985 30.7335C6.78968 31.1227 7.91648 30.6258 8.3044 29.6262L7.04341 29.1367C6.04358 28.7475 4.91678 29.2445 4.52905 30.244Z" fill="url(#paint46_radial_10_55)"/>
<path d="M101 8.07683C100.345 8.23827 99.8714 8.399 99.5794 8.56009C99.291 8.72152 99.0596 8.92289 98.8887 9.16452C98.7179 9.40615 98.5897 9.76894 98.5078 10.2526C98.4259 10.7358 98.3867 11.4835 98.3867 12.4941V31.5055C98.3867 32.4875 98.4188 33.2054 98.4864 33.6595C98.5541 34.1137 98.6644 34.4727 98.8211 34.7364C98.9777 35.0001 99.2092 35.22 99.5153 35.3958C99.818 35.5716 100.313 35.7474 101 35.9232V37H91.6827V35.9232C92.53 35.718 93.1175 35.4837 93.4486 35.22C93.7761 34.9563 93.9969 34.5679 94.1179 34.0549C94.2354 33.5422 94.296 32.6923 94.296 31.5055V23.088C94.296 20.8759 94.328 18.6371 94.3956 16.3735C94.4633 14.1095 94.5416 12.5603 94.6306 11.7251H94.2496L85.4023 33.5055H82.8318L74.611 11.3732H74.2301C74.3048 12.2672 74.376 13.8868 74.4437 16.2306C74.5078 18.5751 74.5434 20.9855 74.5434 23.4617V31.5055C74.5434 32.4875 74.5754 33.2054 74.6431 33.6595C74.7107 34.1137 74.8211 34.4727 74.9777 34.7364C75.1344 35.0001 75.3658 35.22 75.672 35.3958C75.9782 35.5716 76.4731 35.7474 77.1566 35.9232V37H69V35.9232C69.9257 35.6889 70.5452 35.4287 70.8549 35.1429C71.1682 34.8572 71.3747 34.4506 71.4708 33.9232C71.567 33.3959 71.6168 32.5901 71.6168 31.5055V12.4941C71.6168 11.4835 71.5777 10.747 71.5029 10.2855C71.4281 9.82392 71.3071 9.46497 71.1362 9.20864C70.9653 8.9523 70.7374 8.74709 70.4526 8.59336C70.1713 8.43928 69.6871 8.26733 69 8.07683V7H76.9786L84.822 28.3846L93.4486 7H101V8.07683Z" fill="#1D1F1E"/>
<path d="M112.094 26.2561C112.094 29.1724 112.567 31.4122 113.513 32.9763C114.459 34.5407 115.812 35.3226 117.576 35.3226C118.543 35.3226 119.364 35.0928 120.044 34.6324C120.724 34.1729 121.277 33.5535 121.701 32.7746C122.129 31.9965 122.436 31.0938 122.623 30.0673C122.809 29.0412 122.906 27.9687 122.906 26.8505C122.906 24.7695 122.668 23.0426 122.202 21.6694C121.732 20.2964 121.09 19.2879 120.282 18.6437C119.475 17.9995 118.549 17.6774 117.51 17.6774C115.76 17.6774 114.421 18.4207 113.492 19.907C112.56 21.3933 112.094 23.5099 112.094 26.2561ZM117.248 37C114.245 37 111.953 36.1332 110.372 34.3989C108.791 32.6653 108 30.0991 108 26.702C108 24.3658 108.414 22.391 109.243 20.7775C110.075 19.1637 111.21 17.964 112.657 17.1784C114.1 16.3928 115.746 16 117.597 16C120.686 16 123.027 16.8813 124.615 18.6437C126.203 20.4057 127 22.9361 127 26.2348C127 28.5848 126.603 30.5664 125.806 32.1802C125.012 33.7937 123.886 35.0008 122.426 35.8006C120.969 36.6004 119.243 37 117.248 37Z" fill="#1D1F1E"/>
<path d="M138.39 8V12.1737H133.857V8H138.39ZM131.345 35.9459C131.985 35.7739 132.44 35.623 132.711 35.4942C132.982 35.3649 133.213 35.186 133.402 34.9563C133.59 34.7274 133.735 34.3757 133.845 33.9023C133.951 33.4289 134.006 32.6902 134.006 31.6862V22.3063C134.006 21.3887 133.987 20.65 133.955 20.0906C133.924 19.5312 133.806 19.0835 133.61 18.7462C133.414 18.4089 133.115 18.158 132.711 17.9931C132.311 17.8282 131.738 17.6887 131 17.5735V16.4334L136.738 16.2398H138.241V31.6218C138.241 32.8554 138.308 33.712 138.437 34.1926C138.571 34.6735 138.822 35.039 139.191 35.2899C139.56 35.5408 140.164 35.7598 141 35.9459V37H131.345V35.9459Z" fill="#1D1F1E"/>
<path d="M142 17.3347C142.8 17.2209 143.444 17.0221 143.94 16.7376C144.431 16.4532 144.82 16.0868 145.098 15.6389C145.376 15.191 145.597 14.6296 145.757 13.9543C145.917 13.2787 146.085 12.2941 146.26 11H149.655V16.2683H157.379V18.4223H149.655V27.9139C149.655 29.2933 149.72 30.3917 149.846 31.2093C149.971 32.027 150.211 32.667 150.562 33.1288C150.913 33.5913 151.313 33.9217 151.758 34.1208C152.204 34.32 152.78 34.4192 153.481 34.4192C154.117 34.4192 154.715 34.3023 155.276 34.0675C155.832 33.833 156.381 33.4952 156.925 33.054L158 34.2061C156.868 35.1873 155.798 35.8986 154.784 36.3387C153.77 36.7794 152.723 37 151.64 37C149.583 37 148.051 36.4562 147.049 35.3684C146.043 34.2809 145.54 32.5779 145.54 30.2602V18.4223H142V17.3347Z" fill="#1D1F1E"/>
<path d="M173.38 26.9777C170.245 27.0061 167.9 27.3888 166.343 28.1243C164.783 28.8605 164.005 29.9719 164.005 31.4582C164.005 32.2651 164.182 32.9018 164.536 33.3691C164.89 33.8363 165.34 34.1584 165.879 34.3353C166.421 34.5126 167.059 34.6006 167.8 34.6006C168.851 34.6006 169.803 34.3675 170.658 33.9002C171.514 33.433 172.181 32.8386 172.661 32.1166C173.14 31.3942 173.38 30.68 173.38 29.9719V26.9777ZM173.771 33.6242L173.424 33.5389C172.082 34.7992 170.821 35.691 169.64 36.2144C168.46 36.7378 167.206 37 165.879 37C164.706 37 163.673 36.7913 162.777 36.3738C161.881 35.9563 161.195 35.3689 160.719 34.6111C160.24 33.8542 160 32.98 160 31.9887C160 29.9222 161.114 28.326 163.345 27.2007C165.573 26.0751 168.918 25.4207 173.38 25.2363V23.8566C173.38 22.3842 173.225 21.2234 172.915 20.3742C172.606 19.5247 172.122 18.9018 171.459 18.5053C170.795 18.1091 169.906 17.9109 168.796 17.9109C167.594 17.9109 166.624 18.2012 165.89 18.7817C165.159 19.362 164.606 20.2325 164.234 21.3933H161.202V18.6332C162.685 17.9251 163.92 17.4051 164.909 17.0722C165.893 16.7396 166.882 16.4774 167.87 16.2866C168.859 16.0954 169.862 16 170.88 16C172.406 16 173.635 16.223 174.56 16.6689C175.486 17.1148 176.179 17.7979 176.644 18.7178C177.105 19.638 177.337 21.0252 177.337 22.8796V30.269C177.337 31.3168 177.345 32.0564 177.359 32.4881C177.374 32.9198 177.422 33.3197 177.5 33.6878C177.577 34.0559 177.691 34.3495 177.846 34.5691C178.001 34.7887 178.23 34.9758 178.528 35.1318C178.831 35.2877 179.318 35.4501 180 35.62V36.6603H173.657L173.771 33.6242Z" fill="#1D1F1E"/>
<mask id="mask0_10_55" style="mask-type:luminance" maskUnits="userSpaceOnUse" x="92" y="45" width="11" height="12">
<path d="M101.264 45.6616H102.978V56.8729H101.264V51.8478H94.6397V56.8729H92.925V45.6616H94.6397V50.5124H101.264V45.6616Z" fill="white"/>
</mask>
<g mask="url(#mask0_10_55)">
<path d="M101.295 46H103V57H101.295V52.0696H94.7055V57H93V46H94.7055V50.7593H101.295V46Z" fill="#1D1F1E"/>
</g>
<mask id="mask1_10_55" style="mask-type:luminance" maskUnits="userSpaceOnUse" x="107" y="45" width="12" height="12">
<path d="M116.13 54.5193C116.789 53.7558 117.121 52.6695 117.121 51.2595C117.121 49.8495 116.793 48.7655 116.137 48.0075C115.482 47.2498 114.556 46.8703 113.356 46.8703C112.178 46.8703 111.26 47.2498 110.604 48.0075C109.949 48.7655 109.621 49.8495 109.621 51.2595C109.621 52.6695 109.949 53.7558 110.604 54.5193C111.26 55.2827 112.178 55.6643 113.356 55.6643C114.541 55.6643 115.467 55.2827 116.13 54.5193ZM110.439 56.3006C109.614 55.8342 108.976 55.1717 108.53 54.3128C108.079 53.4537 107.856 52.4416 107.856 51.2751C107.856 50.0988 108.079 49.0782 108.519 48.2143C108.962 47.3503 109.599 46.6877 110.428 46.2265C111.26 45.7656 112.233 45.5346 113.356 45.5346C114.487 45.5346 115.467 45.7656 116.296 46.2265C117.128 46.6877 117.762 47.3503 118.205 48.2143C118.648 49.0782 118.871 50.0937 118.871 51.2595C118.871 52.4259 118.648 53.4411 118.205 54.3047C117.762 55.1689 117.128 55.8342 116.296 56.3006C115.467 56.767 114.487 57 113.356 57C112.233 57 111.26 56.767 110.439 56.3006Z" fill="white"/>
</mask>
<g mask="url(#mask1_10_55)">
<path d="M116.263 54.62C116.921 53.8875 117.252 52.8453 117.252 51.4925C117.252 50.1397 116.924 49.0997 116.27 48.3725C115.615 47.6456 114.691 47.2815 113.493 47.2815C112.317 47.2815 111.399 47.6456 110.745 48.3725C110.09 49.0997 109.763 50.1397 109.763 51.4925C109.763 52.8453 110.09 53.8875 110.745 54.62C111.399 55.3524 112.317 55.7185 113.493 55.7185C114.676 55.7185 115.601 55.3524 116.263 54.62ZM110.579 56.329C109.755 55.8816 109.119 55.2459 108.673 54.4219C108.223 53.5976 108 52.6266 108 51.5075C108 50.379 108.223 49.3998 108.662 48.5709C109.104 47.742 109.741 47.1063 110.568 46.6638C111.399 46.2216 112.371 46 113.493 46C114.622 46 115.601 46.2216 116.428 46.6638C117.259 47.1063 117.892 47.742 118.335 48.5709C118.777 49.3998 119 50.374 119 51.4925C119 52.6116 118.777 53.5855 118.335 54.4141C117.892 55.2433 117.259 55.8816 116.428 56.329C115.601 56.7764 114.622 57 113.493 57C112.371 57 111.399 56.7764 110.579 56.329Z" fill="#1D1F1E"/>
</g>
<mask id="mask2_10_55" style="mask-type:luminance" maskUnits="userSpaceOnUse" x="121" y="45" width="11" height="12">
<path d="M125.848 56.8729V47.0294H121.846V45.6616H131.615V47.0294H127.595V56.8729H125.848Z" fill="white"/>
</mask>
<g mask="url(#mask2_10_55)">
<path d="M126.097 57V47.342H122V46H132V47.342H127.885V57H126.097Z" fill="#1D1F1E"/>
</g>
<mask id="mask3_10_55" style="mask-type:luminance" maskUnits="userSpaceOnUse" x="135" y="45" width="9" height="12">
<path d="M135.718 56.8729V45.6616H143.419V46.9817H137.414V50.5124H143.084V51.8478H137.414V55.5528H143.419V56.8729H135.718Z" fill="white"/>
</mask>
<g mask="url(#mask3_10_55)">
<path d="M136 57V46H143V47.2952H137.542V50.7593H142.695V52.0696H137.542V55.7048H143V57H136Z" fill="#1D1F1E"/>
</g>
<mask id="mask4_10_55" style="mask-type:luminance" maskUnits="userSpaceOnUse" x="148" y="45" width="8" height="12">
<path d="M148.077 56.8729V45.6616H149.809V55.5051H155.558V56.8729H148.077Z" fill="white"/>
</mask>
<g mask="url(#mask4_10_55)">
<path d="M148 57V46H149.853V55.658H156V57H148Z" fill="#1D1F1E"/>
</g>
<defs>
<radialGradient id="paint0_radial_10_55" cx="0" cy="0" r="1" gradientUnits="userSpaceOnUse" gradientTransform="translate(30.7039 23.8527) scale(44.4471 44.4344)">
<stop stop-color="#EBE49C"/>
<stop offset="0.481959" stop-color="#D6C678"/>
<stop offset="1" stop-color="#D6C678"/>
</radialGradient>
<radialGradient id="paint1_radial_10_55" cx="0" cy="0" r="1" gradientUnits="userSpaceOnUse" gradientTransform="translate(30.704 23.8527) scale(44.447 44.4345)">
<stop stop-color="#EBE49C"/>
<stop offset="0.481959" stop-color="#D6C678"/>
<stop offset="1" stop-color="#D6C678"/>
</radialGradient>
<radialGradient id="paint2_radial_10_55" cx="0" cy="0" r="1" gradientUnits="userSpaceOnUse" gradientTransform="translate(30.7038 23.8525) scale(44.4471 44.4345)">
<stop stop-color="#EBE49C"/>
<stop offset="0.481959" stop-color="#D6C678"/>
<stop offset="1" stop-color="#D6C678"/>
</radialGradient>
<radialGradient id="paint3_radial_10_55" cx="0" cy="0" r="1" gradientUnits="userSpaceOnUse" gradientTransform="translate(30.7039 23.8527) scale(44.4469 44.4343)">
<stop stop-color="#EBE49C"/>
<stop offset="0.481959" stop-color="#D6C678"/>
<stop offset="1" stop-color="#D6C678"/>
</radialGradient>
<radialGradient id="paint4_radial_10_55" cx="0" cy="0" r="1" gradientUnits="userSpaceOnUse" gradientTransform="translate(30.704 23.8527) scale(44.4471 44.4345)">
<stop stop-color="#EBE49C"/>
<stop offset="0.481959" stop-color="#D6C678"/>
<stop offset="1" stop-color="#D6C678"/>
</radialGradient>
<radialGradient id="paint5_radial_10_55" cx="0" cy="0" r="1" gradientUnits="userSpaceOnUse" gradientTransform="translate(30.704 23.8527) scale(44.4471 44.4344)">
<stop stop-color="#EBE49C"/>
<stop offset="0.481959" stop-color="#D6C678"/>
<stop offset="1" stop-color="#D6C678"/>
</radialGradient>
<radialGradient id="paint6_radial_10_55" cx="0" cy="0" r="1" gradientUnits="userSpaceOnUse" gradientTransform="translate(30.704 23.8527) scale(44.4471 44.4345)">
<stop stop-color="#EBE49C"/>
<stop offset="0.481959" stop-color="#D6C678"/>
<stop offset="1" stop-color="#D6C678"/>
</radialGradient>
<radialGradient id="paint7_radial_10_55" cx="0" cy="0" r="1" gradientUnits="userSpaceOnUse" gradientTransform="translate(30.7041 23.8527) scale(44.4471 44.4344)">
<stop stop-color="#EBE49C"/>
<stop offset="0.481959" stop-color="#D6C678"/>
<stop offset="1" stop-color="#D6C678"/>
</radialGradient>
<radialGradient id="paint8_radial_10_55" cx="0" cy="0" r="1" gradientUnits="userSpaceOnUse" gradientTransform="translate(30.7038 23.8527) scale(44.4468 44.4343)">
<stop stop-color="#EBE49C"/>
<stop offset="0.481959" stop-color="#D6C678"/>
<stop offset="1" stop-color="#D6C678"/>
</radialGradient>
<radialGradient id="paint9_radial_10_55" cx="0" cy="0" r="1" gradientUnits="userSpaceOnUse" gradientTransform="translate(30.7038 23.8527) scale(44.447 44.4344)">
<stop stop-color="#EBE49C"/>
<stop offset="0.481959" stop-color="#D6C678"/>
<stop offset="1" stop-color="#D6C678"/>
</radialGradient>
<radialGradient id="paint10_radial_10_55" cx="0" cy="0" r="1" gradientUnits="userSpaceOnUse" gradientTransform="translate(30.704 23.8525) scale(44.4473 44.4346)">
<stop stop-color="#EBE49C"/>
<stop offset="0.481959" stop-color="#D6C678"/>
<stop offset="1" stop-color="#D6C678"/>
</radialGradient>
<radialGradient id="paint11_radial_10_55" cx="0" cy="0" r="1" gradientUnits="userSpaceOnUse" gradientTransform="translate(30.704 23.8527) scale(44.4471 44.4344)">
<stop stop-color="#EBE49C"/>
<stop offset="0.481959" stop-color="#D6C678"/>
<stop offset="1" stop-color="#D6C678"/>
</radialGradient>
<radialGradient id="paint12_radial_10_55" cx="0" cy="0" r="1" gradientUnits="userSpaceOnUse" gradientTransform="translate(30.7039 23.8527) scale(44.447 44.4344)">
<stop stop-color="#EBE49C"/>
<stop offset="0.481959" stop-color="#D6C678"/>
<stop offset="1" stop-color="#D6C678"/>
</radialGradient>
<radialGradient id="paint13_radial_10_55" cx="0" cy="0" r="1" gradientUnits="userSpaceOnUse" gradientTransform="translate(30.704 23.8526) scale(44.4471 44.4346)">
<stop stop-color="#EBE49C"/>
<stop offset="0.481959" stop-color="#D6C678"/>
<stop offset="1" stop-color="#D6C678"/>
</radialGradient>
<radialGradient id="paint14_radial_10_55" cx="0" cy="0" r="1" gradientUnits="userSpaceOnUse" gradientTransform="translate(30.7038 23.8527) scale(44.4469 44.4343)">
<stop stop-color="#EBE49C"/>
<stop offset="0.481959" stop-color="#D6C678"/>
<stop offset="1" stop-color="#D6C678"/>
</radialGradient>
<radialGradient id="paint15_radial_10_55" cx="0" cy="0" r="1" gradientUnits="userSpaceOnUse" gradientTransform="translate(30.704 23.8527) scale(44.4471 44.4345)">
<stop stop-color="#EBE49C"/>
<stop offset="0.481959" stop-color="#D6C678"/>
<stop offset="1" stop-color="#D6C678"/>
</radialGradient>
<radialGradient id="paint16_radial_10_55" cx="0" cy="0" r="1" gradientUnits="userSpaceOnUse" gradientTransform="translate(30.7036 23.8527) scale(44.4471 44.4346)">
<stop stop-color="#EBE49C"/>
<stop offset="0.481959" stop-color="#D6C678"/>
<stop offset="1" stop-color="#D6C678"/>
</radialGradient>
<radialGradient id="paint17_radial_10_55" cx="0" cy="0" r="1" gradientUnits="userSpaceOnUse" gradientTransform="translate(30.7039 23.8527) scale(44.4469 44.4343)">
<stop stop-color="#EBE49C"/>
<stop offset="0.481959" stop-color="#D6C678"/>
<stop offset="1" stop-color="#D6C678"/>
</radialGradient>
<radialGradient id="paint18_radial_10_55" cx="0" cy="0" r="1" gradientUnits="userSpaceOnUse" gradientTransform="translate(30.7039 23.8525) scale(44.4469 44.4343)">
<stop stop-color="#EBE49C"/>
<stop offset="0.481959" stop-color="#D6C678"/>
<stop offset="1" stop-color="#D6C678"/>
</radialGradient>
<radialGradient id="paint19_radial_10_55" cx="0" cy="0" r="1" gradientUnits="userSpaceOnUse" gradientTransform="translate(30.7038 23.8527) scale(44.447 44.4345)">
<stop stop-color="#EBE49C"/>
<stop offset="0.481959" stop-color="#D6C678"/>
<stop offset="1" stop-color="#D6C678"/>
</radialGradient>
<radialGradient id="paint20_radial_10_55" cx="0" cy="0" r="1" gradientUnits="userSpaceOnUse" gradientTransform="translate(30.704 23.8527) scale(44.4471 44.4345)">
<stop stop-color="#EBE49C"/>
<stop offset="0.481959" stop-color="#D6C678"/>
<stop offset="1" stop-color="#D6C678"/>
</radialGradient>
<radialGradient id="paint21_radial_10_55" cx="0" cy="0" r="1" gradientUnits="userSpaceOnUse" gradientTransform="translate(30.7021 23.8527) scale(44.452 44.4394)">
<stop stop-color="#EBE49C"/>
<stop offset="0.481959" stop-color="#D6C678"/>
<stop offset="1" stop-color="#D6C678"/>
</radialGradient>
<radialGradient id="paint22_radial_10_55" cx="0" cy="0" r="1" gradientUnits="userSpaceOnUse" gradientTransform="translate(30.7039 23.8527) scale(44.4469 44.4343)">
<stop stop-color="#EBE49C"/>
<stop offset="0.481959" stop-color="#D6C678"/>
<stop offset="1" stop-color="#D6C678"/>
</radialGradient>
<radialGradient id="paint23_radial_10_55" cx="0" cy="0" r="1" gradientUnits="userSpaceOnUse" gradientTransform="translate(30.704 23.8527) scale(44.447 44.4342)">
<stop stop-color="#EBE49C"/>
<stop offset="0.481959" stop-color="#D6C678"/>
<stop offset="1" stop-color="#D6C678"/>
</radialGradient>
<radialGradient id="paint24_radial_10_55" cx="0" cy="0" r="1" gradientUnits="userSpaceOnUse" gradientTransform="translate(30.704 23.8527) scale(44.4473 44.4346)">
<stop stop-color="#EBE49C"/>
<stop offset="0.481959" stop-color="#D6C678"/>
<stop offset="1" stop-color="#D6C678"/>
</radialGradient>
<radialGradient id="paint25_radial_10_55" cx="0" cy="0" r="1" gradientUnits="userSpaceOnUse" gradientTransform="translate(30.704 23.8527) scale(44.4473 44.4347)">
<stop stop-color="#EBE49C"/>
<stop offset="0.481959" stop-color="#D6C678"/>
<stop offset="1" stop-color="#D6C678"/>
</radialGradient>
<radialGradient id="paint26_radial_10_55" cx="0" cy="0" r="1" gradientUnits="userSpaceOnUse" gradientTransform="translate(30.7038 23.8527) scale(44.4469 44.4343)">
<stop stop-color="#EBE49C"/>
<stop offset="0.481959" stop-color="#D6C678"/>
<stop offset="1" stop-color="#D6C678"/>
</radialGradient>
<radialGradient id="paint27_radial_10_55" cx="0" cy="0" r="1" gradientUnits="userSpaceOnUse" gradientTransform="translate(30.7039 23.8527) scale(44.447 44.4344)">
<stop stop-color="#EBE49C"/>
<stop offset="0.481959" stop-color="#D6C678"/>
<stop offset="1" stop-color="#D6C678"/>
</radialGradient>
<radialGradient id="paint28_radial_10_55" cx="0" cy="0" r="1" gradientUnits="userSpaceOnUse" gradientTransform="translate(30.7039 23.8527) scale(44.4469 44.4343)">
<stop stop-color="#EBE49C"/>
<stop offset="0.481959" stop-color="#D6C678"/>
<stop offset="1" stop-color="#D6C678"/>
</radialGradient>
<radialGradient id="paint29_radial_10_55" cx="0" cy="0" r="1" gradientUnits="userSpaceOnUse" gradientTransform="translate(30.704 23.8527) scale(44.4472 44.4347)">
<stop stop-color="#EBE49C"/>
<stop offset="0.481959" stop-color="#D6C678"/>
<stop offset="1" stop-color="#D6C678"/>
</radialGradient>
<radialGradient id="paint30_radial_10_55" cx="0" cy="0" r="1" gradientUnits="userSpaceOnUse" gradientTransform="translate(30.704 23.8527) scale(44.4471 44.4344)">
<stop stop-color="#EBE49C"/>
<stop offset="0.481959" stop-color="#D6C678"/>
<stop offset="1" stop-color="#D6C678"/>
</radialGradient>
<radialGradient id="paint31_radial_10_55" cx="0" cy="0" r="1" gradientUnits="userSpaceOnUse" gradientTransform="translate(30.7038 23.8527) scale(44.4472 44.4346)">
<stop stop-color="#EBE49C"/>
<stop offset="0.481959" stop-color="#D6C678"/>
<stop offset="1" stop-color="#D6C678"/>
</radialGradient>
<radialGradient id="paint32_radial_10_55" cx="0" cy="0" r="1" gradientUnits="userSpaceOnUse" gradientTransform="translate(30.704 23.8527) scale(44.4473 44.4348)">
<stop stop-color="#EBE49C"/>
<stop offset="0.481959" stop-color="#D6C678"/>
<stop offset="1" stop-color="#D6C678"/>
</radialGradient>
<radialGradient id="paint33_radial_10_55" cx="0" cy="0" r="1" gradientUnits="userSpaceOnUse" gradientTransform="translate(30.704 23.8527) scale(44.4471 44.4345)">
<stop stop-color="#EBE49C"/>
<stop offset="0.481959" stop-color="#D6C678"/>
<stop offset="1" stop-color="#D6C678"/>
</radialGradient>
<radialGradient id="paint34_radial_10_55" cx="0" cy="0" r="1" gradientUnits="userSpaceOnUse" gradientTransform="translate(30.7038 23.8525) scale(44.4468 44.4343)">
<stop stop-color="#EBE49C"/>
<stop offset="0.481959" stop-color="#D6C678"/>
<stop offset="1" stop-color="#D6C678"/>
</radialGradient>
<radialGradient id="paint35_radial_10_55" cx="0" cy="0" r="1" gradientUnits="userSpaceOnUse" gradientTransform="translate(30.704 23.8527) scale(44.4471 44.4345)">
<stop stop-color="#EBE49C"/>
<stop offset="0.481959" stop-color="#D6C678"/>
<stop offset="1" stop-color="#D6C678"/>
</radialGradient>
<radialGradient id="paint36_radial_10_55" cx="0" cy="0" r="1" gradientUnits="userSpaceOnUse" gradientTransform="translate(30.7039 23.8527) scale(44.4471 44.4345)">
<stop stop-color="#EBE49C"/>
<stop offset="0.481959" stop-color="#D6C678"/>
<stop offset="1" stop-color="#D6C678"/>
</radialGradient>
<radialGradient id="paint37_radial_10_55" cx="0" cy="0" r="1" gradientUnits="userSpaceOnUse" gradientTransform="translate(30.7039 23.8527) scale(44.4468 44.4343)">
<stop stop-color="#EBE49C"/>
<stop offset="0.481959" stop-color="#D6C678"/>
<stop offset="1" stop-color="#D6C678"/>
</radialGradient>
<radialGradient id="paint38_radial_10_55" cx="0" cy="0" r="1" gradientUnits="userSpaceOnUse" gradientTransform="translate(30.7039 23.8527) scale(44.4469 44.4342)">
<stop stop-color="#EBE49C"/>
<stop offset="0.481959" stop-color="#D6C678"/>
<stop offset="1" stop-color="#D6C678"/>
</radialGradient>
<radialGradient id="paint39_radial_10_55" cx="0" cy="0" r="1" gradientUnits="userSpaceOnUse" gradientTransform="translate(30.7039 23.8527) scale(44.4469 44.4342)">
<stop stop-color="#EBE49C"/>
<stop offset="0.481959" stop-color="#D6C678"/>
<stop offset="1" stop-color="#D6C678"/>
</radialGradient>
<radialGradient id="paint40_radial_10_55" cx="0" cy="0" r="1" gradientUnits="userSpaceOnUse" gradientTransform="translate(30.7039 23.8527) scale(44.4469 44.4343)">
<stop stop-color="#EBE49C"/>
<stop offset="0.481959" stop-color="#D6C678"/>
<stop offset="1" stop-color="#D6C678"/>
</radialGradient>
<radialGradient id="paint41_radial_10_55" cx="0" cy="0" r="1" gradientUnits="userSpaceOnUse" gradientTransform="translate(30.704 23.8527) scale(44.447 44.4345)">
<stop stop-color="#EBE49C"/>
<stop offset="0.481959" stop-color="#D6C678"/>
<stop offset="1" stop-color="#D6C678"/>
</radialGradient>
<radialGradient id="paint42_radial_10_55" cx="0" cy="0" r="1" gradientUnits="userSpaceOnUse" gradientTransform="translate(30.7038 23.8527) scale(44.4471 44.4344)">
<stop stop-color="#EBE49C"/>
<stop offset="0.481959" stop-color="#D6C678"/>
<stop offset="1" stop-color="#D6C678"/>
</radialGradient>
<radialGradient id="paint43_radial_10_55" cx="0" cy="0" r="1" gradientUnits="userSpaceOnUse" gradientTransform="translate(30.704 23.8527) scale(44.4471 44.4345)">
<stop stop-color="#EBE49C"/>
<stop offset="0.481959" stop-color="#D6C678"/>
<stop offset="1" stop-color="#D6C678"/>
</radialGradient>
<radialGradient id="paint44_radial_10_55" cx="0" cy="0" r="1" gradientUnits="userSpaceOnUse" gradientTransform="translate(30.704 23.8527) scale(44.4469 44.4343)">
<stop stop-color="#EBE49C"/>
<stop offset="0.481959" stop-color="#D6C678"/>
<stop offset="1" stop-color="#D6C678"/>
</radialGradient>
<radialGradient id="paint45_radial_10_55" cx="0" cy="0" r="1" gradientUnits="userSpaceOnUse" gradientTransform="translate(30.7038 23.8527) scale(44.4471 44.4344)">
<stop stop-color="#EBE49C"/>
<stop offset="0.481959" stop-color="#D6C678"/>
<stop offset="1" stop-color="#D6C678"/>
</radialGradient>
<radialGradient id="paint46_radial_10_55" cx="0" cy="0" r="1" gradientUnits="userSpaceOnUse" gradientTransform="translate(30.7039 23.8527) scale(44.4473 44.4346)">
<stop stop-color="#EBE49C"/>
<stop offset="0.481959" stop-color="#D6C678"/>
<stop offset="1" stop-color="#D6C678"/>
</radialGradient>
</defs>
</svg>
