<svg width="189" height="63" viewBox="0 0 189 63" fill="none" xmlns="http://www.w3.org/2000/svg">
<path d="M43.7571 61.499C41.4978 60.7417 39.7179 59.7719 38.4655 58.984C38.2278 59.5099 37.8944 60.1275 37.4245 60.7705C36.7137 61.7432 35.9456 62.4248 35.3425 62.8779C47.8875 63.0743 50.9533 63.0033 50.9572 62.8779C50.9613 62.7492 47.7455 62.8355 43.7571 61.499Z" fill="black"/>
<path d="M43.7571 61.499C41.4978 60.7417 39.7179 59.7719 38.4655 58.984C38.2278 59.5099 37.8944 60.1275 37.4245 60.7705C36.7137 61.7432 35.9456 62.4248 35.3425 62.8779C47.8875 63.0743 50.9533 63.0033 50.9572 62.8779C50.9613 62.7492 47.7455 62.8355 43.7571 61.499Z" fill="url(#paint0_radial_10_55)"/>
<path d="M37.5808 58.2381C37.2322 57.8968 36.8497 57.4773 36.4704 56.972C36.1244 56.5112 35.8485 56.0688 35.6288 55.671C35.389 56.6018 34.8679 58.128 33.6771 59.6777C32.2884 61.4849 30.6731 62.433 29.7734 62.8779C30.7277 62.8779 31.6819 62.8779 32.6362 62.8779C33.2771 62.6912 34.3442 62.2889 35.3947 61.3949C36.7492 60.2423 37.3405 58.8985 37.5808 58.2381Z" fill="black"/>
<path d="M37.5808 58.2381C37.2322 57.8968 36.8497 57.4773 36.4704 56.972C36.1244 56.5112 35.8485 56.0688 35.6288 55.671C35.389 56.6018 34.8679 58.128 33.6771 59.6777C32.2884 61.4849 30.6731 62.433 29.7734 62.8779C30.7277 62.8779 31.6819 62.8779 32.6362 62.8779C33.2771 62.6912 34.3442 62.2889 35.3947 61.3949C36.7492 60.2423 37.3405 58.8985 37.5808 58.2381Z" fill="url(#paint1_radial_10_55)"/>
<path d="M53.5703 38.736C45.3754 35.2443 35.0891 44.4955 33.9035 45.5619C32.6896 46.6536 33.1448 46.4375 29.1862 50.4148C24.4654 55.1581 22.0616 57.5595 19.899 58.966C17.7019 60.3948 14.1224 62.1977 8.77148 62.8779C11.5388 62.8779 14.3061 62.8779 17.0734 62.8779C19.5439 62.0227 21.3972 60.9244 22.6395 60.0643C23.6248 59.382 26.1757 57.5831 28.3159 54.5221C29.0577 53.4611 29.2662 52.9407 30.1895 51.8379C31.4865 50.2894 32.8103 49.2435 33.7421 48.5944C33.1538 49.2018 32.2465 50.1789 31.2307 51.4564C28.6547 54.6958 28.1312 56.4101 26.4768 58.3943C25.3756 59.7148 23.5125 61.4679 20.3004 62.8779C21.4454 62.8779 22.5905 62.8779 23.7355 62.8779C25.0263 62.3698 26.577 61.5643 28.0383 60.2327C30.8382 57.6817 31.035 55.9691 33.5208 52.3409C34.718 50.5937 38.1882 45.7988 43.9683 43.2687C46.1841 42.2989 48.6535 41.2616 51.3245 42.2281C53.3938 42.9769 55.9037 45.0441 55.8325 47.6752C55.7458 50.8753 51.858 53.501 49.0314 53.0694C48.0715 52.9227 46.9156 52.6532 45.6655 52.15C43.1745 51.1476 41.4586 49.6804 40.4434 48.6464C39.281 49.6004 38.1184 50.5544 36.956 51.5084C38.8308 53.2261 42.0692 55.6566 46.6372 56.7291C47.9035 57.0265 48.8297 57.2993 50.0723 57.2321C54.5819 56.9882 59.9312 52.8918 59.9993 47.7091C60.0531 43.6203 56.8036 40.1136 53.5703 38.736Z" fill="black"/>
<path d="M53.5703 38.736C45.3754 35.2443 35.0891 44.4955 33.9035 45.5619C32.6896 46.6536 33.1448 46.4375 29.1862 50.4148C24.4654 55.1581 22.0616 57.5595 19.899 58.966C17.7019 60.3948 14.1224 62.1977 8.77148 62.8779C11.5388 62.8779 14.3061 62.8779 17.0734 62.8779C19.5439 62.0227 21.3972 60.9244 22.6395 60.0643C23.6248 59.382 26.1757 57.5831 28.3159 54.5221C29.0577 53.4611 29.2662 52.9407 30.1895 51.8379C31.4865 50.2894 32.8103 49.2435 33.7421 48.5944C33.1538 49.2018 32.2465 50.1789 31.2307 51.4564C28.6547 54.6958 28.1312 56.4101 26.4768 58.3943C25.3756 59.7148 23.5125 61.4679 20.3004 62.8779C21.4454 62.8779 22.5905 62.8779 23.7355 62.8779C25.0263 62.3698 26.577 61.5643 28.0383 60.2327C30.8382 57.6817 31.035 55.9691 33.5208 52.3409C34.718 50.5937 38.1882 45.7988 43.9683 43.2687C46.1841 42.2989 48.6535 41.2616 51.3245 42.2281C53.3938 42.9769 55.9037 45.0441 55.8325 47.6752C55.7458 50.8753 51.858 53.501 49.0314 53.0694C48.0715 52.9227 46.9156 52.6532 45.6655 52.15C43.1745 51.1476 41.4586 49.6804 40.4434 48.6464C39.281 49.6004 38.1184 50.5544 36.956 51.5084C38.8308 53.2261 42.0692 55.6566 46.6372 56.7291C47.9035 57.0265 48.8297 57.2993 50.0723 57.2321C54.5819 56.9882 59.9312 52.8918 59.9993 47.7091C60.0531 43.6203 56.8036 40.1136 53.5703 38.736Z" fill="url(#paint2_radial_10_55)"/>
<path d="M13.0655 57.024C14.7602 56.5745 16.0014 55.8533 16.9172 55.2548C17.9622 54.5719 27.3177 48.3308 30.8937 39.7612C31.7407 37.7312 32.3791 36.9438 33.3474 35.1868C33.8462 34.2815 34.749 32.6869 36.5398 31.5532C37.8422 30.7286 39.1386 30.4494 39.5497 30.3706C39.9722 30.2896 40.9953 30.1261 42.2911 30.2782C42.762 30.3336 43.1544 30.4171 43.4422 30.4893C43.7344 30.631 44.1818 30.8567 44.7114 31.163C45.6907 31.729 46.3329 32.2126 46.5072 32.3337C47.2148 32.8259 48.616 33.1912 51.6859 32.5157C51.2348 31.9867 50.7837 31.4577 50.3328 30.9287C50.0431 30.476 49.6421 29.9833 49.0875 29.5464C46.8767 27.8057 44.0369 28.3806 43.4623 28.5091C42.0663 28.2248 39.5056 27.9205 36.7479 28.9775C34.6477 29.7825 33.2848 31.0505 32.1557 32.229C27.7956 36.7791 27.9175 38.9535 24.1877 43.7298C23.8937 44.1065 20.1033 49.2626 13.5861 52.2368C11.8771 53.0168 10.7094 53.3152 9.41303 53.1681C6.95541 52.8891 3.85594 50.9879 3.5406 47.9699C3.25714 45.2558 5.36264 42.9517 7.25628 42.02C10.5345 40.4071 15.3066 41.8592 18.5307 45.9927L22.0701 42.8707C16.4821 37.6302 9.23383 36.4328 4.61926 39.4181C4.41112 39.5529 0.0829478 42.4537 0.00117707 47.4497C-0.0790287 52.3618 3.95337 56.6586 7.91279 57.2841C9.00359 57.4564 10.8724 57.6056 13.0655 57.024Z" fill="black"/>
<path d="M13.0655 57.024C14.7602 56.5745 16.0014 55.8533 16.9172 55.2548C17.9622 54.5719 27.3177 48.3308 30.8937 39.7612C31.7407 37.7312 32.3791 36.9438 33.3474 35.1868C33.8462 34.2815 34.749 32.6869 36.5398 31.5532C37.8422 30.7286 39.1386 30.4494 39.5497 30.3706C39.9722 30.2896 40.9953 30.1261 42.2911 30.2782C42.762 30.3336 43.1544 30.4171 43.4422 30.4893C43.7344 30.631 44.1818 30.8567 44.7114 31.163C45.6907 31.729 46.3329 32.2126 46.5072 32.3337C47.2148 32.8259 48.616 33.1912 51.6859 32.5157C51.2348 31.9867 50.7837 31.4577 50.3328 30.9287C50.0431 30.476 49.6421 29.9833 49.0875 29.5464C46.8767 27.8057 44.0369 28.3806 43.4623 28.5091C42.0663 28.2248 39.5056 27.9205 36.7479 28.9775C34.6477 29.7825 33.2848 31.0505 32.1557 32.229C27.7956 36.7791 27.9175 38.9535 24.1877 43.7298C23.8937 44.1065 20.1033 49.2626 13.5861 52.2368C11.8771 53.0168 10.7094 53.3152 9.41303 53.1681C6.95541 52.8891 3.85594 50.9879 3.5406 47.9699C3.25714 45.2558 5.36264 42.9517 7.25628 42.02C10.5345 40.4071 15.3066 41.8592 18.5307 45.9927L22.0701 42.8707C16.4821 37.6302 9.23383 36.4328 4.61926 39.4181C4.41112 39.5529 0.0829478 42.4537 0.00117707 47.4497C-0.0790287 52.3618 3.95337 56.6586 7.91279 57.2841C9.00359 57.4564 10.8724 57.6056 13.0655 57.024Z" fill="url(#paint3_radial_10_55)"/>
<path d="M22.6253 10.5573C22.4045 11.1474 21.9753 12.5385 22.3131 14.269C22.7073 16.2891 23.9034 17.5266 24.3486 17.9461C25.0575 18.5496 25.9961 19.4966 26.7892 20.8601C28.0776 23.0753 28.2877 25.1964 28.316 26.3064C28.3202 27.4136 28.2746 28.7773 28.1079 30.3303C27.9338 31.9513 27.6918 33.1818 27.596 33.6491C27.2857 35.1606 26.7638 37.1609 25.8414 39.4537C26.4895 38.7909 27.2513 37.8966 27.969 36.748C28.6903 35.5934 29.1613 34.5113 29.473 33.6352C30.1318 30.3365 30.7907 27.0379 31.4495 23.7394C31.7688 22.7184 32.2921 21.4229 33.174 20.0624C33.7047 19.2433 34.2589 18.5651 34.7701 18.0155C35.1414 17.7586 36.8609 16.5093 37.3032 14.165C37.6283 12.442 37.0857 11.0695 36.8521 10.5573C36.4505 10.8413 35.8681 11.2649 35.1865 11.8062C33.6302 13.042 32.852 13.66 32.3066 14.4425C31.8997 15.0263 31.127 16.4013 31.3466 18.8481C31.0209 19.5024 30.6841 20.2916 30.3981 21.207C30.0876 22.2005 29.9102 23.1081 29.8081 23.8781C29.2993 22.2476 28.7902 20.6174 28.2814 18.9869C28.2851 18.135 28.1983 14.986 25.8631 12.9132C25.3637 12.4698 24.842 12.1471 24.3486 11.9103C24.1168 11.836 23.7938 11.7032 23.4581 11.4593C23.0274 11.1462 22.7678 10.7893 22.6253 10.5573Z" fill="black"/>
<path d="M22.6253 10.5573C22.4045 11.1474 21.9753 12.5385 22.3131 14.269C22.7073 16.2891 23.9034 17.5266 24.3486 17.9461C25.0575 18.5496 25.9961 19.4966 26.7892 20.8601C28.0776 23.0753 28.2877 25.1964 28.316 26.3064C28.3202 27.4136 28.2746 28.7773 28.1079 30.3303C27.9338 31.9513 27.6918 33.1818 27.596 33.6491C27.2857 35.1606 26.7638 37.1609 25.8414 39.4537C26.4895 38.7909 27.2513 37.8966 27.969 36.748C28.6903 35.5934 29.1613 34.5113 29.473 33.6352C30.1318 30.3365 30.7907 27.0379 31.4495 23.7394C31.7688 22.7184 32.2921 21.4229 33.174 20.0624C33.7047 19.2433 34.2589 18.5651 34.7701 18.0155C35.1414 17.7586 36.8609 16.5093 37.3032 14.165C37.6283 12.442 37.0857 11.0695 36.8521 10.5573C36.4505 10.8413 35.8681 11.2649 35.1865 11.8062C33.6302 13.042 32.852 13.66 32.3066 14.4425C31.8997 15.0263 31.127 16.4013 31.3466 18.8481C31.0209 19.5024 30.6841 20.2916 30.3981 21.207C30.0876 22.2005 29.9102 23.1081 29.8081 23.8781C29.2993 22.2476 28.7902 20.6174 28.2814 18.9869C28.2851 18.135 28.1983 14.986 25.8631 12.9132C25.3637 12.4698 24.842 12.1471 24.3486 11.9103C24.1168 11.836 23.7938 11.7032 23.4581 11.4593C23.0274 11.1462 22.7678 10.7893 22.6253 10.5573Z" fill="url(#paint4_radial_10_55)"/>
<path d="M26.2342 33.7646C27.6435 30.5509 27.0122 26.8537 24.6725 24.4679C21.6486 21.3842 17.3963 22.1493 17.0735 22.213C17.2093 22.6824 17.7551 24.3557 19.4677 25.5085C20.986 26.5306 22.5187 26.5359 23.0418 26.5146C22.6014 26.381 21.8438 26.0888 21.0985 25.4391C20.295 24.7388 19.895 23.962 19.7105 23.5312C20.3332 23.6305 21.6182 23.9272 22.7988 24.9535C24.8417 26.7293 24.9239 29.2568 24.9309 29.6945C24.1025 29.2547 22.9755 28.7741 21.5844 28.4919C18.8811 27.9434 16.6244 28.4362 15.4078 28.8041C13.2025 28.0992 11.8703 28.6904 11.4521 28.9081C10.7077 29.2955 10.1255 29.9213 9.19672 30.9201C8.6341 31.525 8.20432 32.0624 7.91284 32.4465C9.89784 33.3606 11.1119 33.2057 11.8605 32.8801C12.564 32.5742 13.0104 32.0505 14.5056 31.3363C15.1245 31.041 15.6595 30.8386 15.9283 30.7466C18.8298 29.7547 21.9911 30.9344 22.3131 31.0588C24.2425 31.8053 25.5237 32.9841 26.2342 33.7646Z" fill="black"/>
<path d="M26.2342 33.7646C27.6435 30.5509 27.0122 26.8537 24.6725 24.4679C21.6486 21.3842 17.3963 22.1493 17.0735 22.213C17.2093 22.6824 17.7551 24.3557 19.4677 25.5085C20.986 26.5306 22.5187 26.5359 23.0418 26.5146C22.6014 26.381 21.8438 26.0888 21.0985 25.4391C20.295 24.7388 19.895 23.962 19.7105 23.5312C20.3332 23.6305 21.6182 23.9272 22.7988 24.9535C24.8417 26.7293 24.9239 29.2568 24.9309 29.6945C24.1025 29.2547 22.9755 28.7741 21.5844 28.4919C18.8811 27.9434 16.6244 28.4362 15.4078 28.8041C13.2025 28.0992 11.8703 28.6904 11.4521 28.9081C10.7077 29.2955 10.1255 29.9213 9.19672 30.9201C8.6341 31.525 8.20432 32.0624 7.91284 32.4465C9.89784 33.3606 11.1119 33.2057 11.8605 32.8801C12.564 32.5742 13.0104 32.0505 14.5056 31.3363C15.1245 31.041 15.6595 30.8386 15.9283 30.7466C18.8298 29.7547 21.9911 30.9344 22.3131 31.0588C24.2425 31.8053 25.5237 32.9841 26.2342 33.7646Z" fill="url(#paint5_radial_10_55)"/>
<path d="M38.2574 25.4911C37.6686 26.0024 37.0889 26.327 36.6439 26.532C37.1439 26.5844 38.6907 26.6824 40.2614 25.7252C42.0742 24.6207 42.6546 22.8809 42.7857 22.4471C42.5204 22.3589 38.8552 21.2092 35.7591 23.67C32.4661 26.2871 33.0047 30.4547 33.0303 30.6291C33.2692 30.4077 33.5448 30.174 33.8592 29.9401C34.1593 29.717 34.4488 29.5277 34.718 29.3677C34.7317 28.8618 34.84 27.1787 36.1233 25.6472C37.5089 23.9939 39.3208 23.6426 39.7928 23.566C39.5233 24.0686 39.0491 24.8037 38.2574 25.4911Z" fill="black"/>
<path d="M38.2574 25.4911C37.6686 26.0024 37.0889 26.327 36.6439 26.532C37.1439 26.5844 38.6907 26.6824 40.2614 25.7252C42.0742 24.6207 42.6546 22.8809 42.7857 22.4471C42.5204 22.3589 38.8552 21.2092 35.7591 23.67C32.4661 26.2871 33.0047 30.4547 33.0303 30.6291C33.2692 30.4077 33.5448 30.174 33.8592 29.9401C34.1593 29.717 34.4488 29.5277 34.718 29.3677C34.7317 28.8618 34.84 27.1787 36.1233 25.6472C37.5089 23.9939 39.3208 23.6426 39.7928 23.566C39.5233 24.0686 39.0491 24.8037 38.2574 25.4911Z" fill="url(#paint6_radial_10_55)"/>
<path d="M16.7091 20.9381C16.7302 20.8746 16.7596 20.7797 16.7889 20.6634C16.9382 20.3798 17.133 19.8539 16.9464 19.2132C16.7163 18.4231 16.0454 17.9395 15.6457 17.652C15.1752 17.3129 14.7269 17.1287 14.4246 17.0283C14.4203 17.0616 14.4162 17.097 14.4125 17.1339C14.3205 17.0962 14.2351 17.0633 14.1588 17.0356C14.0815 17.3497 14.0019 17.8339 14.0676 18.4145C14.1234 18.9077 14.2173 19.7381 14.8875 20.3399C15.5827 20.9641 16.4618 20.9507 16.7091 20.9381Z" fill="black"/>
<path d="M16.7091 20.9381C16.7302 20.8746 16.7596 20.7797 16.7889 20.6634C16.9382 20.3798 17.133 19.8539 16.9464 19.2132C16.7163 18.4231 16.0454 17.9395 15.6457 17.652C15.1752 17.3129 14.7269 17.1287 14.4246 17.0283C14.4203 17.0616 14.4162 17.097 14.4125 17.1339C14.3205 17.0962 14.2351 17.0633 14.1588 17.0356C14.0815 17.3497 14.0019 17.8339 14.0676 18.4145C14.1234 18.9077 14.2173 19.7381 14.8875 20.3399C15.5827 20.9641 16.4618 20.9507 16.7091 20.9381Z" fill="url(#paint7_radial_10_55)"/>
<path d="M28.8431 10.4396C28.5373 11.0263 28.0228 12.0136 28.3151 13.1772C28.6185 14.3844 29.5999 15.024 29.8824 15.1943C30.2394 14.9187 31.4032 13.9509 31.4437 12.5676C31.4658 11.8141 31.1491 11.1339 30.8099 10.406C30.5205 9.78467 30.2056 9.30612 29.9706 8.98383C29.6514 9.27346 29.203 9.74908 28.8431 10.4396Z" fill="black"/>
<path d="M28.8431 10.4396C28.5373 11.0263 28.0228 12.0136 28.3151 13.1772C28.6185 14.3844 29.5999 15.024 29.8824 15.1943C30.2394 14.9187 31.4032 13.9509 31.4437 12.5676C31.4658 11.8141 31.1491 11.1339 30.8099 10.406C30.5205 9.78467 30.2056 9.30612 29.9706 8.98383C29.6514 9.27346 29.203 9.74908 28.8431 10.4396Z" fill="url(#paint8_radial_10_55)"/>
<path d="M29.8618 6.83687C30.2548 6.53354 31.5358 5.46809 31.5804 3.9452C31.6048 3.1158 31.256 2.36697 30.8828 1.56572C30.5641 0.881626 30.2175 0.354764 29.9587 3.80316e-06C29.6073 0.31878 29.1138 0.842506 28.7174 1.60268C28.381 2.24845 27.8144 3.33542 28.1364 4.61639C28.4702 5.94547 29.5508 6.64932 29.8618 6.83687Z" fill="black"/>
<path d="M29.8618 6.83687C30.2548 6.53354 31.5358 5.46809 31.5804 3.9452C31.6048 3.1158 31.256 2.36697 30.8828 1.56572C30.5641 0.881626 30.2175 0.354764 29.9587 3.80316e-06C29.6073 0.31878 29.1138 0.842506 28.7174 1.60268C28.381 2.24845 27.8144 3.33542 28.1364 4.61639C28.4702 5.94547 29.5508 6.64932 29.8618 6.83687Z" fill="url(#paint9_radial_10_55)"/>
<path d="M21.655 36.8147C23.1426 36.8147 24.3486 35.6091 24.3486 34.1218C22.861 34.1218 21.655 35.3274 21.655 36.8147Z" fill="black"/>
<path d="M21.655 36.8147C23.1426 36.8147 24.3486 35.6091 24.3486 34.1218C22.861 34.1218 21.655 35.3274 21.655 36.8147Z" fill="url(#paint10_radial_10_55)"/>
<path d="M17.5324 34.8952L17.4456 35.6102L18.1608 35.6971C19.6375 35.8764 20.9801 34.8248 21.1595 33.3485L21.2463 32.6335L20.5311 32.5467C19.0544 32.3673 17.7118 33.4189 17.5324 34.8952Z" fill="black"/>
<path d="M17.5324 34.8952L17.4456 35.6102L18.1608 35.6971C19.6375 35.8764 20.9801 34.8248 21.1595 33.3485L21.2463 32.6335L20.5311 32.5467C19.0544 32.3673 17.7118 33.4189 17.5324 34.8952Z" fill="url(#paint11_radial_10_55)"/>
<path d="M13.0854 34.6696C14.4437 35.276 16.0366 34.6666 16.6431 33.3086C15.2846 32.7023 13.6919 33.3117 13.0854 34.6696Z" fill="black"/>
<path d="M13.0854 34.6696C14.4437 35.276 16.0366 34.6666 16.6431 33.3086C15.2846 32.7023 13.6919 33.3117 13.0854 34.6696Z" fill="url(#paint12_radial_10_55)"/>
<path d="M35.2378 34.1659C35.2621 35.6528 36.4876 36.8386 37.975 36.8143C37.9507 35.3272 36.7251 34.1415 35.2378 34.1659Z" fill="black"/>
<path d="M35.2378 34.1659C35.2621 35.6528 36.4876 36.8386 37.975 36.8143C37.9507 35.3272 36.7251 34.1415 35.2378 34.1659Z" fill="url(#paint13_radial_10_55)"/>
<path d="M39.0286 32.5285L38.3149 32.627L38.4135 33.3405C38.617 34.8137 39.9766 35.8432 41.4502 35.6396L42.1638 35.541L42.0652 34.8276C41.8618 33.3543 40.5022 32.3251 39.0286 32.5285Z" fill="black"/>
<path d="M39.0286 32.5285L38.3149 32.627L38.4135 33.3405C38.617 34.8137 39.9766 35.8432 41.4502 35.6396L42.1638 35.541L42.0652 34.8276C41.8618 33.3543 40.5022 32.3251 39.0286 32.5285Z" fill="url(#paint14_radial_10_55)"/>
<path d="M42.9287 33.2268C43.5574 34.5747 45.16 35.1579 46.5082 34.5293C45.8795 33.1815 44.2769 32.5983 42.9287 33.2268Z" fill="black"/>
<path d="M42.9287 33.2268C43.5574 34.5747 45.16 35.1579 46.5082 34.5293C45.8795 33.1815 44.2769 32.5983 42.9287 33.2268Z" fill="url(#paint15_radial_10_55)"/>
<path d="M55.3992 26.3311C55.7075 26.427 56.0246 26.4713 56.3356 26.4713C57.4344 26.4713 58.4681 25.911 58.8707 25.0073C57.4697 24.5798 55.9168 25.1724 55.3992 26.3311Z" fill="black"/>
<path d="M55.3992 26.3311C55.7075 26.427 56.0246 26.4713 56.3356 26.4713C57.4344 26.4713 58.4681 25.911 58.8707 25.0073C57.4697 24.5798 55.9168 25.1724 55.3992 26.3311Z" fill="url(#paint16_radial_10_55)"/>
<path d="M54.1148 22.3433C55.2091 22.1383 55.8343 21.3244 56.2046 20.8409C56.6411 20.2703 56.8623 19.7102 56.9787 19.3311C56.6131 19.2574 56.0851 19.1794 55.4479 19.1765C54.7003 19.1735 54.0027 19.172 53.3788 19.4815C52.2317 20.0506 51.8835 21.4026 51.7937 21.808C52.0502 21.9791 52.9794 22.5555 54.1148 22.3433Z" fill="black"/>
<path d="M54.1148 22.3433C55.2091 22.1383 55.8343 21.3244 56.2046 20.8409C56.6411 20.2703 56.8623 19.7102 56.9787 19.3311C56.6131 19.2574 56.0851 19.1794 55.4479 19.1765C54.7003 19.1735 54.0027 19.172 53.3788 19.4815C52.2317 20.0506 51.8835 21.4026 51.7937 21.808C52.0502 21.9791 52.9794 22.5555 54.1148 22.3433Z" fill="url(#paint17_radial_10_55)"/>
<path d="M37.3281 4.09718C37.5331 3.90416 38.2012 3.22885 38.198 2.3752C38.1951 1.90936 37.9946 1.51275 37.7794 1.08817C37.5949 0.726959 37.3989 0.454137 37.2528 0.271476C37.0701 0.471933 36.8148 0.794817 36.6158 1.24443C36.4476 1.62637 36.163 2.26764 36.3592 2.96347C36.5642 3.6859 37.1569 4.01172 37.3281 4.09718Z" fill="black"/>
<path d="M37.3281 4.09718C37.5331 3.90416 38.2012 3.22885 38.198 2.3752C38.1951 1.90936 37.9946 1.51275 37.7794 1.08817C37.5949 0.726959 37.3989 0.454137 37.2528 0.271476C37.0701 0.471933 36.8148 0.794817 36.6158 1.24443C36.4476 1.62637 36.163 2.26764 36.3592 2.96347C36.5642 3.6859 37.1569 4.01172 37.3281 4.09718Z" fill="url(#paint18_radial_10_55)"/>
<path d="M37.2189 21.4793C39.4664 21.0414 41.3082 19.2265 41.6902 16.7983C38.6154 16.2838 35.7278 18.3891 35.2368 21.5043C35.9137 21.6179 36.5833 21.6031 37.2189 21.4793Z" fill="black"/>
<path d="M37.2189 21.4793C39.4664 21.0414 41.3082 19.2265 41.6902 16.7983C38.6154 16.2838 35.7278 18.3891 35.2368 21.5043C35.9137 21.6179 36.5833 21.6031 37.2189 21.4793Z" fill="url(#paint19_radial_10_55)"/>
<path d="M38.1438 9.26467L38.3102 9.64935L40.2864 8.79589C42.2922 7.92894 43.2153 5.6011 42.3481 3.59594L42.1814 3.21124L40.2054 4.06627C38.1997 4.93323 37.2766 7.26108 38.1438 9.26467Z" fill="black"/>
<path d="M38.1438 9.26467L38.3102 9.64935L40.2864 8.79589C42.2922 7.92894 43.2153 5.6011 42.3481 3.59594L42.1814 3.21124L40.2054 4.06627C38.1997 4.93323 37.2766 7.26108 38.1438 9.26467Z" fill="url(#paint20_radial_10_55)"/>
<path d="M44.8181 19.601C45.0983 19.141 45.1427 18.6441 45.1883 18.112C45.2282 17.6579 45.2016 17.2849 45.1691 17.0283C44.8669 17.1286 44.4185 17.3129 43.948 17.652C43.5483 17.9395 42.8774 18.4231 42.6473 19.2132C42.4084 20.033 42.7948 20.6669 42.9098 20.8423C43.2314 20.7584 44.3021 20.4457 44.8181 19.601Z" fill="black"/>
<path d="M44.8181 19.601C45.0983 19.141 45.1427 18.6441 45.1883 18.112C45.2282 17.6579 45.2016 17.2849 45.1691 17.0283C44.8669 17.1286 44.4185 17.3129 43.948 17.652C43.5483 17.9395 42.8774 18.4231 42.6473 19.2132C42.4084 20.033 42.7948 20.6669 42.9098 20.8423C43.2314 20.7584 44.3021 20.4457 44.8181 19.601Z" fill="url(#paint21_radial_10_55)"/>
<path d="M45.8904 8.48179C46.1527 8.09847 46.2133 7.65767 46.2781 7.18596C46.3327 6.78348 46.3268 6.44729 46.3106 6.21437C46.0467 6.2748 45.6529 6.39566 45.234 6.65225C44.8772 6.86894 44.2784 7.23602 44.0439 7.92012C43.8005 8.62925 44.1029 9.23512 44.1943 9.40331C44.4731 9.36048 45.4081 9.18642 45.8904 8.48179Z" fill="black"/>
<path d="M45.8904 8.48179C46.1527 8.09847 46.2133 7.65767 46.2781 7.18596C46.3327 6.78348 46.3268 6.44729 46.3106 6.21437C46.0467 6.2748 45.6529 6.39566 45.234 6.65225C44.8772 6.86894 44.2784 7.23602 44.0439 7.92012C43.8005 8.62925 44.1029 9.23512 44.1943 9.40331C44.4731 9.36048 45.4081 9.18642 45.8904 8.48179Z" fill="url(#paint22_radial_10_55)"/>
<path d="M33.9776 9.54334C35.2473 8.81055 35.9567 7.48069 35.9567 6.11405C35.9567 5.44326 35.7855 4.76209 35.4258 4.13999L34.2092 4.84325C32.3171 5.9357 31.6682 8.35351 32.761 10.245L33.9776 9.54334Z" fill="black"/>
<path d="M33.9776 9.54334C35.2473 8.81055 35.9567 7.48069 35.9567 6.11405C35.9567 5.44326 35.7855 4.76209 35.4258 4.13999L34.2092 4.84325C32.3171 5.9357 31.6682 8.35351 32.761 10.245L33.9776 9.54334Z" fill="url(#paint23_radial_10_55)"/>
<path d="M44.2298 27.111C44.7666 27.0639 45.1929 26.803 45.6485 26.5228C46.038 26.2856 46.321 26.0423 46.5082 25.8639C46.2473 25.6811 45.8329 25.429 45.2813 25.252C44.8124 25.1031 44.0248 24.8511 43.2521 25.1341C42.4514 25.4303 42.1697 26.1174 42.0989 26.3151C42.3555 26.5228 43.2433 27.1981 44.2298 27.111Z" fill="black"/>
<path d="M44.2298 27.111C44.7666 27.0639 45.1929 26.803 45.6485 26.5228C46.038 26.2856 46.321 26.0423 46.5082 25.8639C46.2473 25.6811 45.8329 25.429 45.2813 25.252C44.8124 25.1031 44.0248 24.8511 43.2521 25.1341C42.4514 25.4303 42.1697 26.1174 42.0989 26.3151C42.3555 26.5228 43.2433 27.1981 44.2298 27.111Z" fill="url(#paint24_radial_10_55)"/>
<path d="M49.2055 19.0482C48.4639 19.091 47.2133 19.1616 46.2178 20.3176C45.1855 21.516 45.0749 23.1291 45.0571 23.5846C45.5188 23.8175 47.0953 24.5325 48.4845 23.6215C49.2425 23.1246 49.7454 22.2754 50.2852 21.3672C50.7466 20.5918 51.052 19.884 51.2451 19.3798C50.7895 19.2015 50.0802 18.9965 49.2055 19.0482Z" fill="black"/>
<path d="M49.2055 19.0482C48.4639 19.091 47.2133 19.1616 46.2178 20.3176C45.1855 21.516 45.0749 23.1291 45.0571 23.5846C45.5188 23.8175 47.0953 24.5325 48.4845 23.6215C49.2425 23.1246 49.7454 22.2754 50.2852 21.3672C50.7466 20.5918 51.052 19.884 51.2451 19.3798C50.7895 19.2015 50.0802 18.9965 49.2055 19.0482Z" fill="url(#paint25_radial_10_55)"/>
<path d="M47.2618 18.0987C47.7219 18.0382 48.1599 17.9054 48.5639 17.7183C49.99 17.0533 50.9824 15.6764 50.9397 14.2184C48.853 14.4926 47.2072 16.2279 47.2618 18.0987Z" fill="black"/>
<path d="M47.2618 18.0987C47.7219 18.0382 48.1599 17.9054 48.5639 17.7183C49.99 17.0533 50.9824 15.6764 50.9397 14.2184C48.853 14.4926 47.2072 16.2279 47.2618 18.0987Z" fill="url(#paint26_radial_10_55)"/>
<path d="M53.8139 26.178C54.2239 25.5485 54.3744 24.9336 54.4348 24.5178C53.9776 24.447 53.3215 24.3749 52.5472 24.3866C51.6403 24.4013 50.7923 24.4146 50.1006 24.767C48.8294 25.4127 48.6907 26.8914 48.6672 27.3352C49.0137 27.5151 50.2629 28.1196 51.5945 27.8616C52.8806 27.6125 53.4659 26.7131 53.8139 26.178Z" fill="black"/>
<path d="M53.8139 26.178C54.2239 25.5485 54.3744 24.9336 54.4348 24.5178C53.9776 24.447 53.3215 24.3749 52.5472 24.3866C51.6403 24.4013 50.7923 24.4146 50.1006 24.767C48.8294 25.4127 48.6907 26.8914 48.6672 27.3352C49.0137 27.5151 50.2629 28.1196 51.5945 27.8616C52.8806 27.6125 53.4659 26.7131 53.8139 26.178Z" fill="url(#paint27_radial_10_55)"/>
<path d="M49.1361 10.043V9.49014H48.8693C45.7059 9.49014 43.1428 12.0525 43.1428 15.215V15.7679H43.4099C46.5717 15.7679 49.1361 13.2055 49.1361 10.043Z" fill="black"/>
<path d="M49.1361 10.043V9.49014H48.8693C45.7059 9.49014 43.1428 12.0525 43.1428 15.215V15.7679H43.4099C46.5717 15.7679 49.1361 13.2055 49.1361 10.043Z" fill="url(#paint28_radial_10_55)"/>
<path d="M54.3139 16.443C54.6353 16.011 54.724 15.5201 54.8198 14.9938C54.9008 14.5456 54.9082 14.1711 54.8994 13.9131C54.5882 13.9869 54.1252 14.1285 53.6267 14.4218C53.202 14.6723 52.4897 15.0926 52.1873 15.8577C51.8747 16.6525 52.2006 17.3203 52.301 17.5045C52.6283 17.4515 53.7226 17.2376 54.3139 16.443Z" fill="black"/>
<path d="M54.3139 16.443C54.6353 16.011 54.724 15.5201 54.8198 14.9938C54.9008 14.5456 54.9082 14.1711 54.8994 13.9131C54.5882 13.9869 54.1252 14.1285 53.6267 14.4218C53.202 14.6723 52.4897 15.0926 52.1873 15.8577C51.8747 16.6525 52.2006 17.3203 52.301 17.5045C52.6283 17.4515 53.7226 17.2376 54.3139 16.443Z" fill="url(#paint29_radial_10_55)"/>
<path d="M40.3972 10.1404C38.8236 10.82 38.0994 12.6466 38.7794 14.2184L41.0017 13.2586C42.1741 12.7528 42.8732 11.6103 42.8732 10.4101C42.8732 9.99884 42.792 9.5817 42.6181 9.18059L40.3972 10.1404Z" fill="black"/>
<path d="M40.3972 10.1404C38.8236 10.82 38.0994 12.6466 38.7794 14.2184L41.0017 13.2586C42.1741 12.7528 42.8732 11.6103 42.8732 10.4101C42.8732 9.99884 42.792 9.5817 42.6181 9.18059L40.3972 10.1404Z" fill="url(#paint30_radial_10_55)"/>
<path d="M53.8039 30.7335L55.0646 30.244C54.6767 29.2445 53.5501 28.7475 52.5503 29.1367L51.2893 29.6262C51.6772 30.6258 52.804 31.1227 53.8039 30.7335Z" fill="black"/>
<path d="M53.8039 30.7335L55.0646 30.244C54.6767 29.2445 53.5501 28.7475 52.5503 29.1367L51.2893 29.6262C51.6772 30.6258 52.804 31.1227 53.8039 30.7335Z" fill="url(#paint31_radial_10_55)"/>
<path d="M3.25799 26.4713C3.56903 26.4713 3.88614 26.427 4.19444 26.3311C3.67682 25.1724 2.12376 24.5798 0.7229 25.0073C1.12549 25.911 2.15917 26.4713 3.25799 26.4713Z" fill="black"/>
<path d="M3.25799 26.4713C3.56903 26.4713 3.88614 26.427 4.19444 26.3311C3.67682 25.1724 2.12376 24.5798 0.7229 25.0073C1.12549 25.911 2.15917 26.4713 3.25799 26.4713Z" fill="url(#paint32_radial_10_55)"/>
<path d="M5.47891 22.3433C6.61431 22.5555 7.54353 21.9791 7.8 21.808C7.71001 21.4026 7.362 20.0506 6.21466 19.4815C5.59101 19.172 4.89342 19.1735 4.14575 19.1765C3.5086 19.1794 2.98061 19.2574 2.61499 19.3311C2.73139 19.7102 2.95263 20.2703 3.38927 20.8409C3.75939 21.3244 4.3846 22.1383 5.47891 22.3433Z" fill="black"/>
<path d="M5.47891 22.3433C6.61431 22.5555 7.54353 21.9791 7.8 21.808C7.71001 21.4026 7.362 20.0506 6.21466 19.4815C5.59101 19.172 4.89342 19.1735 4.14575 19.1765C3.5086 19.1794 2.98061 19.2574 2.61499 19.3311C2.73139 19.7102 2.95263 20.2703 3.38927 20.8409C3.75939 21.3244 4.3846 22.1383 5.47891 22.3433Z" fill="url(#paint33_radial_10_55)"/>
<path d="M22.2654 4.09718C22.4366 4.01172 23.0293 3.6859 23.2343 2.96347C23.4305 2.26764 23.1459 1.62637 22.9777 1.24443C22.7787 0.794817 22.5234 0.471933 22.3407 0.271476C22.1946 0.454137 21.9986 0.726959 21.8141 1.08817C21.5989 1.51275 21.3984 1.90936 21.3953 2.3752C21.3923 3.22885 22.0604 3.90416 22.2654 4.09718Z" fill="black"/>
<path d="M22.2654 4.09718C22.4366 4.01172 23.0293 3.6859 23.2343 2.96347C23.4305 2.26764 23.1459 1.62637 22.9777 1.24443C22.7787 0.794817 22.5234 0.471933 22.3407 0.271476C22.1946 0.454137 21.9986 0.726959 21.8141 1.08817C21.5989 1.51275 21.3984 1.90936 21.3953 2.3752C21.3923 3.22885 22.0604 3.90416 22.2654 4.09718Z" fill="url(#paint34_radial_10_55)"/>
<path d="M22.3747 21.4793C23.0103 21.6031 23.6799 21.6179 24.3568 21.5043C23.8657 18.3891 20.9781 16.2838 17.9033 16.7983C18.2854 19.2265 20.1272 21.0414 22.3747 21.4793Z" fill="black"/>
<path d="M22.3747 21.4793C23.0103 21.6031 23.6799 21.6179 24.3568 21.5043C23.8657 18.3891 20.9781 16.2838 17.9033 16.7983C18.2854 19.2265 20.1272 21.0414 22.3747 21.4793Z" fill="url(#paint35_radial_10_55)"/>
<path d="M19.3073 8.79589L21.2834 9.64935L21.4499 9.26467C22.3171 7.26108 21.394 4.93323 19.3882 4.06627L17.4122 3.21124L17.2456 3.59594C16.3784 5.6011 17.3015 7.92894 19.3073 8.79589Z" fill="black"/>
<path d="M19.3073 8.79589L21.2834 9.64935L21.4499 9.26467C22.3171 7.26108 21.394 4.93323 19.3882 4.06627L17.4122 3.21124L17.2456 3.59594C16.3784 5.6011 17.3015 7.92894 19.3073 8.79589Z" fill="url(#paint36_radial_10_55)"/>
<path d="M13.7032 8.48179C14.1854 9.18642 15.1205 9.36048 15.3993 9.40331C15.4906 9.23512 15.7929 8.62925 15.5497 7.92012C15.3152 7.23602 14.7164 6.86894 14.3595 6.65225C13.9407 6.39566 13.5469 6.2748 13.283 6.21437C13.2668 6.44729 13.2609 6.78348 13.3155 7.18596C13.3803 7.65767 13.4407 8.09847 13.7032 8.48179Z" fill="black"/>
<path d="M13.7032 8.48179C14.1854 9.18642 15.1205 9.36048 15.3993 9.40331C15.4906 9.23512 15.7929 8.62925 15.5497 7.92012C15.3152 7.23602 14.7164 6.86894 14.3595 6.65225C13.9407 6.39566 13.5469 6.2748 13.283 6.21437C13.2668 6.44729 13.2609 6.78348 13.3155 7.18596C13.3803 7.65767 13.4407 8.09847 13.7032 8.48179Z" fill="url(#paint37_radial_10_55)"/>
<path d="M25.6161 9.54334L26.8327 10.245C27.9254 8.35351 27.2765 5.9357 25.3845 4.84325L24.1679 4.13999C23.8081 4.76209 23.637 5.44326 23.637 6.11405C23.637 7.48069 24.3463 8.81055 25.6161 9.54334Z" fill="black"/>
<path d="M25.6161 9.54334L26.8327 10.245C27.9254 8.35351 27.2765 5.9357 25.3845 4.84325L24.1679 4.13999C23.8081 4.76209 23.637 5.44326 23.637 6.11405C23.637 7.48069 24.3463 8.81055 25.6161 9.54334Z" fill="url(#paint38_radial_10_55)"/>
<path d="M13.0854 25.8639C13.2727 26.0423 13.5557 26.2856 13.9452 26.5228C14.4008 26.803 14.8271 27.0639 15.3639 27.111C16.3504 27.1981 17.2381 26.5228 17.4948 26.3151C17.424 26.1174 17.1423 25.4303 16.3416 25.1341C15.5689 24.8511 14.7813 25.1031 14.3124 25.252C13.7607 25.429 13.3464 25.6811 13.0854 25.8639Z" fill="black"/>
<path d="M13.0854 25.8639C13.2727 26.0423 13.5557 26.2856 13.9452 26.5228C14.4008 26.803 14.8271 27.0639 15.3639 27.111C16.3504 27.1981 17.2381 26.5228 17.4948 26.3151C17.424 26.1174 17.1423 25.4303 16.3416 25.1341C15.5689 24.8511 14.7813 25.1031 14.3124 25.252C13.7607 25.429 13.3464 25.6811 13.0854 25.8639Z" fill="url(#paint39_radial_10_55)"/>
<path d="M11.1093 23.6215C12.4984 24.5325 14.0749 23.8175 14.5366 23.5846C14.5188 23.1291 14.4083 21.516 13.376 20.3176C12.3804 19.1616 11.1298 19.091 10.3882 19.0482C9.51358 18.9965 8.80424 19.2015 8.34863 19.3798C8.54171 19.884 8.84708 20.5918 9.30856 21.3672C9.84828 22.2754 10.3512 23.1246 11.1093 23.6215Z" fill="black"/>
<path d="M11.1093 23.6215C12.4984 24.5325 14.0749 23.8175 14.5366 23.5846C14.5188 23.1291 14.4083 21.516 13.376 20.3176C12.3804 19.1616 11.1298 19.091 10.3882 19.0482C9.51358 18.9965 8.80424 19.2015 8.34863 19.3798C8.54171 19.884 8.84708 20.5918 9.30856 21.3672C9.84828 22.2754 10.3512 23.1246 11.1093 23.6215Z" fill="url(#paint40_radial_10_55)"/>
<path d="M11.0298 17.7183C11.4337 17.9054 11.8717 18.0382 12.3318 18.0987C12.3864 16.2279 10.7406 14.4926 8.65391 14.2184C8.61127 15.6764 9.60366 17.0533 11.0298 17.7183Z" fill="black"/>
<path d="M11.0298 17.7183C11.4337 17.9054 11.8717 18.0382 12.3318 18.0987C12.3864 16.2279 10.7406 14.4926 8.65391 14.2184C8.61127 15.6764 9.60366 17.0533 11.0298 17.7183Z" fill="url(#paint41_radial_10_55)"/>
<path d="M7.99895 27.8616C9.33056 28.1196 10.5798 27.5151 10.9263 27.3352C10.9028 26.8914 10.7641 25.4127 9.49293 24.767C8.80121 24.4146 7.95318 24.4013 7.04627 24.3866C6.27199 24.3749 5.61586 24.447 5.15869 24.5178C5.21914 24.9336 5.36958 25.5485 5.77961 26.178C6.12762 26.7131 6.71292 27.6125 7.99895 27.8616Z" fill="black"/>
<path d="M7.99895 27.8616C9.33056 28.1196 10.5798 27.5151 10.9263 27.3352C10.9028 26.8914 10.7641 25.4127 9.49293 24.767C8.80121 24.4146 7.95318 24.4013 7.04627 24.3866C6.27199 24.3749 5.61586 24.447 5.15869 24.5178C5.21914 24.9336 5.36958 25.5485 5.77961 26.178C6.12762 26.7131 6.71292 27.6125 7.99895 27.8616Z" fill="url(#paint42_radial_10_55)"/>
<path d="M16.1838 15.7679H16.4508V15.215C16.4508 12.0525 13.8878 9.49014 10.7244 9.49014H10.4575V10.043C10.4575 13.2055 13.022 15.7679 16.1838 15.7679Z" fill="black"/>
<path d="M16.1838 15.7679H16.4508V15.215C16.4508 12.0525 13.8878 9.49014 10.7244 9.49014H10.4575V10.043C10.4575 13.2055 13.022 15.7679 16.1838 15.7679Z" fill="url(#paint43_radial_10_55)"/>
<path d="M5.27979 16.443C5.87116 17.2376 6.96547 17.4515 7.29275 17.5045C7.39311 17.3203 7.71902 16.6525 7.40641 15.8577C7.10398 15.0926 6.39171 14.6723 5.96701 14.4218C5.46856 14.1285 5.00552 13.9869 4.69428 13.9131C4.68548 14.1711 4.69292 14.5456 4.77391 14.9938C4.86976 15.5201 4.95838 16.011 5.27979 16.443Z" fill="black"/>
<path d="M5.27979 16.443C5.87116 17.2376 6.96547 17.4515 7.29275 17.5045C7.39311 17.3203 7.71902 16.6525 7.40641 15.8577C7.10398 15.0926 6.39171 14.6723 5.96701 14.4218C5.46856 14.1285 5.00552 13.9869 4.69428 13.9131C4.68548 14.1711 4.69292 14.5456 4.77391 14.9938C4.86976 15.5201 4.95838 16.011 5.27979 16.443Z" fill="url(#paint44_radial_10_55)"/>
<path d="M18.592 13.2586L20.8143 14.2184C21.4943 12.6466 20.7701 10.82 19.1967 10.1404L16.9756 9.18059C16.8016 9.5817 16.7205 9.99884 16.7205 10.4101C16.7205 11.6103 17.4196 12.7528 18.592 13.2586Z" fill="black"/>
<path d="M18.592 13.2586L20.8143 14.2184C21.4943 12.6466 20.7701 10.82 19.1967 10.1404L16.9756 9.18059C16.8016 9.5817 16.7205 9.99884 16.7205 10.4101C16.7205 11.6103 17.4196 12.7528 18.592 13.2586Z" fill="url(#paint45_radial_10_55)"/>
<path d="M4.52905 30.244L5.78985 30.7335C6.78968 31.1227 7.91648 30.6258 8.3044 29.6262L7.04341 29.1367C6.04358 28.7475 4.91678 29.2445 4.52905 30.244Z" fill="black"/>
<path d="M4.52905 30.244L5.78985 30.7335C6.78968 31.1227 7.91648 30.6258 8.3044 29.6262L7.04341 29.1367C6.04358 28.7475 4.91678 29.2445 4.52905 30.244Z" fill="url(#paint46_radial_10_55)"/>
<path d="M104 6.18451C103.283 6.36209 102.766 6.5389 102.446 6.71609C102.131 6.89367 101.878 7.11518 101.691 7.38097C101.504 7.64677 101.364 8.04583 101.274 8.57781C101.185 9.10939 101.142 9.93182 101.142 11.0435V31.9561C101.142 33.0362 101.177 33.8259 101.251 34.3255C101.325 34.8251 101.445 35.22 101.617 35.51C101.788 35.8001 102.041 36.042 102.376 36.2354C102.707 36.4287 103.248 36.6221 104 36.8155V38H93.8092V36.8155C94.736 36.5898 95.3785 36.3321 95.7406 36.042C96.0989 35.7519 96.3403 35.3247 96.4727 34.7604C96.6013 34.1965 96.6675 33.2616 96.6675 31.9561V22.6968C96.6675 20.2635 96.7025 17.8008 96.7765 15.3109C96.8505 12.8205 96.9361 11.1163 97.0335 10.1976H96.6168L86.94 34.156H84.1285L75.1371 9.81047H74.7204C74.8022 10.7939 74.88 12.5755 74.954 15.1537C75.0241 17.7327 75.0631 20.3841 75.0631 23.1079V31.9561C75.0631 33.0362 75.0981 33.8259 75.1721 34.3255C75.2461 34.8251 75.3668 35.22 75.5381 35.51C75.7095 35.8001 75.9626 36.042 76.2975 36.2354C76.6324 36.4287 77.1737 36.6221 77.9213 36.8155V38H69V36.8155C70.0125 36.5578 70.69 36.2716 71.0288 35.9572C71.3715 35.6429 71.5973 35.1957 71.7025 34.6156C71.8076 34.0354 71.8622 33.1491 71.8622 31.9561V11.0435C71.8622 9.93182 71.8193 9.12172 71.7375 8.61401C71.6558 8.10631 71.5234 7.71147 71.3364 7.4295C71.1495 7.14753 70.9003 6.9218 70.5888 6.7527C70.2811 6.5832 69.7516 6.39407 69 6.18451V5H77.7266L86.3053 28.5231L95.7406 5H104V6.18451Z" fill="#1D1F1E"/>
<path d="M115.525 26.2328C115.525 29.427 116.048 31.88 117.093 33.5931C118.139 35.3065 119.634 36.1628 121.584 36.1628C122.652 36.1628 123.56 35.9112 124.312 35.4069C125.064 34.9037 125.674 34.2252 126.143 33.3722C126.616 32.5199 126.956 31.5313 127.162 30.4071C127.368 29.2832 127.475 28.1086 127.475 26.8839C127.475 24.6046 127.212 22.7134 126.697 21.2093C126.178 19.7056 125.468 18.601 124.575 17.8955C123.682 17.19 122.66 16.8372 121.511 16.8372C119.577 16.8372 118.097 17.6513 117.07 19.2791C116.04 20.9069 115.525 23.2251 115.525 26.2328ZM121.221 38C117.902 38 115.369 37.0507 113.621 35.1512C111.874 33.2525 111 30.4419 111 26.7212C111 24.1626 111.458 21.9997 112.374 20.2325C113.293 18.465 114.548 17.151 116.147 16.2906C117.742 15.4302 119.562 15 121.607 15C125.022 15 127.608 15.9653 129.364 17.8955C131.119 19.8253 132 22.5966 132 26.2095C132 28.7833 131.561 30.9536 130.68 32.7212C129.802 34.4883 128.559 35.8104 126.945 36.6864C125.334 37.5624 123.427 38 121.221 38Z" fill="#1D1F1E"/>
<path d="M144.129 6V10.6055H139.143V6H144.129ZM136.38 36.8369C137.084 36.647 137.584 36.4806 137.882 36.3384C138.18 36.1958 138.435 35.9983 138.642 35.7449C138.849 35.4923 139.009 35.1042 139.13 34.5818C139.246 34.0595 139.307 33.2444 139.307 32.1365V21.7863C139.307 20.7737 139.285 19.9586 139.251 19.3413C139.216 18.724 139.087 18.2301 138.871 17.8579C138.655 17.4857 138.327 17.2088 137.882 17.0269C137.442 16.8449 136.812 16.691 136 16.5639V15.3059L142.312 15.0922H143.965V32.0654C143.965 33.4267 144.038 34.3719 144.181 34.9022C144.328 35.4329 144.604 35.8361 145.01 36.113C145.416 36.3898 146.08 36.6315 147 36.8369V38H136.38V36.8369Z" fill="#1D1F1E"/>
<path d="M148 16.0657C148.85 15.9387 149.534 15.7169 150.061 15.3997C150.583 15.0824 150.996 14.6738 151.291 14.1742C151.587 13.6746 151.822 13.0484 151.992 12.2952C152.162 11.5416 152.34 10.4435 152.526 9H156.134V14.8762H164.34V17.2787H156.134V27.8655C156.134 29.4041 156.202 30.6292 156.336 31.5412C156.47 32.4532 156.725 33.167 157.097 33.6821C157.47 34.198 157.895 34.5665 158.368 34.7886C158.842 35.0107 159.453 35.1214 160.198 35.1214C160.874 35.1214 161.51 34.991 162.105 34.7291C162.696 34.4675 163.279 34.0908 163.858 33.5987L165 34.8837C163.798 35.9781 162.66 36.7715 161.583 37.2624C160.506 37.754 159.393 38 158.243 38C156.057 38 154.429 37.3935 153.364 36.1801C152.296 34.9671 151.761 33.0677 151.761 30.4825V17.2787H148V16.0657Z" fill="#1D1F1E"/>
<path d="M181.718 27.0232C178.27 27.0543 175.69 27.4734 173.978 28.279C172.262 29.0853 171.406 30.3026 171.406 31.9304C171.406 32.8142 171.6 33.5115 171.99 34.0233C172.379 34.535 172.874 34.8878 173.466 35.0816C174.063 35.2757 174.765 35.3721 175.58 35.3721C176.736 35.3721 177.783 35.1168 178.724 34.605C179.665 34.0933 180.4 33.4422 180.927 32.6515C181.454 31.8604 181.718 31.0781 181.718 30.3026V27.0232ZM182.148 34.3027L181.767 34.2093C180.29 35.5896 178.903 36.5663 177.604 37.1396C176.306 37.7128 174.927 38 173.466 38C172.176 38 171.041 37.7714 170.055 37.3141C169.069 36.8569 168.314 36.2136 167.791 35.3836C167.264 34.5546 167 33.5971 167 32.5114C167 30.2481 168.225 28.4999 170.679 27.2674C173.13 26.0346 176.809 25.3179 181.718 25.116V23.6049C181.718 21.9923 181.548 20.7209 181.207 19.7908C180.866 18.8604 180.335 18.1782 179.604 17.7439C178.874 17.31 177.897 17.0929 176.675 17.0929C175.353 17.0929 174.286 17.4108 173.479 18.0467C172.675 18.6822 172.067 19.6356 171.657 20.9069H168.323V17.884C169.953 17.1084 171.312 16.5389 172.4 16.1743C173.483 15.81 174.57 15.5229 175.657 15.3139C176.744 15.1045 177.848 15 178.968 15C180.647 15 181.998 15.2442 183.016 15.7326C184.034 16.221 184.797 16.9691 185.308 17.9766C185.815 18.9845 186.071 20.5038 186.071 22.5348V30.6279C186.071 31.7755 186.079 32.5855 186.095 33.0584C186.112 33.5312 186.164 33.9692 186.25 34.3723C186.335 34.7755 186.46 35.0971 186.631 35.3376C186.801 35.5781 187.053 35.783 187.381 35.9538C187.714 36.1247 188.249 36.3025 189 36.4885V37.628H182.022L182.148 34.3027Z" fill="#1D1F1E"/>
<mask id="mask0_10_55" style="mask-type:luminance" maskUnits="userSpaceOnUse" x="94" y="46" width="12" height="13">
<path d="M103.854 46.7192H105.706V58.8623H103.854V53.4195H96.698V58.8623H94.8457V46.7192H96.698V51.9731H103.854V46.7192Z" fill="white"/>
</mask>
<g mask="url(#mask0_10_55)">
<path d="M104.124 46H106V59H104.124V53.1731H96.876V59H95V46H96.876V51.6246H104.124V46Z" fill="#1D1F1E"/>
</g>
<mask id="mask1_10_55" style="mask-type:luminance" maskUnits="userSpaceOnUse" x="110" y="46" width="13" height="13">
<path d="M119.914 56.3131C120.626 55.4862 120.984 54.3095 120.984 52.7823C120.984 51.2551 120.63 50.081 119.921 49.26C119.213 48.4394 118.213 48.0284 116.917 48.0284C115.645 48.0284 114.653 48.4394 113.944 49.26C113.236 50.081 112.882 51.2551 112.882 52.7823C112.882 54.3095 113.236 55.4862 113.944 56.3131C114.653 57.14 115.645 57.5532 116.917 57.5532C118.198 57.5532 119.198 57.14 119.914 56.3131ZM113.765 58.2425C112.874 57.7373 112.186 57.0197 111.703 56.0895C111.217 55.1589 110.975 54.0627 110.975 52.7993C110.975 51.5252 111.217 50.4197 111.691 49.484C112.17 48.5483 112.859 47.8306 113.754 47.331C114.653 46.8317 115.703 46.5816 116.917 46.5816C118.139 46.5816 119.198 46.8317 120.093 47.331C120.991 47.8306 121.676 48.5483 122.155 49.484C122.634 50.4197 122.875 51.5197 122.875 52.7823C122.875 54.0457 122.634 55.1453 122.155 56.0806C121.676 57.0167 120.991 57.7373 120.093 58.2425C119.198 58.7476 118.139 59 116.917 59C115.703 59 114.653 58.7476 113.765 58.2425Z" fill="white"/>
</mask>
<g mask="url(#mask1_10_55)">
<path d="M120.014 56.1872C120.732 55.3216 121.093 54.0899 121.093 52.4911C121.093 50.8924 120.736 49.6633 120.022 48.8039C119.307 47.9448 118.299 47.5145 116.992 47.5145C115.709 47.5145 114.708 47.9448 113.994 48.8039C113.28 49.6633 112.923 50.8924 112.923 52.4911C112.923 54.0899 113.28 55.3216 113.994 56.1872C114.708 57.0529 115.709 57.4855 116.992 57.4855C118.283 57.4855 119.292 57.0529 120.014 56.1872ZM113.814 58.207C112.915 57.6782 112.22 56.9269 111.734 55.9532C111.243 54.979 111 53.8314 111 52.5089C111 51.1751 111.243 50.0179 111.722 49.0383C112.205 48.0588 112.899 47.3075 113.802 46.7845C114.708 46.2619 115.768 46 116.992 46C118.224 46 119.292 46.2619 120.194 46.7845C121.101 47.3075 121.791 48.0588 122.274 49.0383C122.757 50.0179 123 51.1693 123 52.4911C123 53.8137 122.757 54.9647 122.274 55.9439C121.791 56.9239 121.101 57.6782 120.194 58.207C119.292 58.7358 118.224 59 116.992 59C115.768 59 114.708 58.7358 113.814 58.207Z" fill="#1D1F1E"/>
</g>
<mask id="mask2_10_55" style="mask-type:luminance" maskUnits="userSpaceOnUse" x="126" y="46" width="11" height="13">
<path d="M130.412 58.8623V48.2006H126.089V46.7192H136.642V48.2006H132.299V58.8623H130.412Z" fill="white"/>
</mask>
<g mask="url(#mask2_10_55)">
<path d="M130.506 59V47.586H126V46H137V47.586H132.473V59H130.506Z" fill="#1D1F1E"/>
</g>
<mask id="mask3_10_55" style="mask-type:luminance" maskUnits="userSpaceOnUse" x="141" y="46" width="9" height="13">
<path d="M141.074 58.8623V46.7192H149.393V48.149H142.906V51.9731H149.031V53.4195H142.906V57.4325H149.393V58.8623H141.074Z" fill="white"/>
</mask>
<g mask="url(#mask3_10_55)">
<path d="M141 59V46H149V47.5307H142.762V51.6246H148.652V53.1731H142.762V57.4693H149V59H141Z" fill="#1D1F1E"/>
</g>
<mask id="mask4_10_55" style="mask-type:luminance" maskUnits="userSpaceOnUse" x="154" y="46" width="9" height="13">
<path d="M154.425 58.8623V46.7192H156.297V57.3809H162.507V58.8623H154.425Z" fill="white"/>
</mask>
<g mask="url(#mask4_10_55)">
<path d="M154 59V46H156.084V57.414H163V59H154Z" fill="#1D1F1E"/>
</g>
<defs>
<radialGradient id="paint0_radial_10_55" cx="0" cy="0" r="1" gradientUnits="userSpaceOnUse" gradientTransform="translate(30.7039 23.8527) scale(44.4471 44.4344)">
<stop stop-color="#EBE49C"/>
<stop offset="0.481959" stop-color="#D6C678"/>
<stop offset="1" stop-color="#D6C678"/>
</radialGradient>
<radialGradient id="paint1_radial_10_55" cx="0" cy="0" r="1" gradientUnits="userSpaceOnUse" gradientTransform="translate(30.704 23.8527) scale(44.447 44.4345)">
<stop stop-color="#EBE49C"/>
<stop offset="0.481959" stop-color="#D6C678"/>
<stop offset="1" stop-color="#D6C678"/>
</radialGradient>
<radialGradient id="paint2_radial_10_55" cx="0" cy="0" r="1" gradientUnits="userSpaceOnUse" gradientTransform="translate(30.7038 23.8525) scale(44.4471 44.4345)">
<stop stop-color="#EBE49C"/>
<stop offset="0.481959" stop-color="#D6C678"/>
<stop offset="1" stop-color="#D6C678"/>
</radialGradient>
<radialGradient id="paint3_radial_10_55" cx="0" cy="0" r="1" gradientUnits="userSpaceOnUse" gradientTransform="translate(30.7039 23.8527) scale(44.4469 44.4343)">
<stop stop-color="#EBE49C"/>
<stop offset="0.481959" stop-color="#D6C678"/>
<stop offset="1" stop-color="#D6C678"/>
</radialGradient>
<radialGradient id="paint4_radial_10_55" cx="0" cy="0" r="1" gradientUnits="userSpaceOnUse" gradientTransform="translate(30.704 23.8527) scale(44.4471 44.4345)">
<stop stop-color="#EBE49C"/>
<stop offset="0.481959" stop-color="#D6C678"/>
<stop offset="1" stop-color="#D6C678"/>
</radialGradient>
<radialGradient id="paint5_radial_10_55" cx="0" cy="0" r="1" gradientUnits="userSpaceOnUse" gradientTransform="translate(30.704 23.8527) scale(44.4471 44.4344)">
<stop stop-color="#EBE49C"/>
<stop offset="0.481959" stop-color="#D6C678"/>
<stop offset="1" stop-color="#D6C678"/>
</radialGradient>
<radialGradient id="paint6_radial_10_55" cx="0" cy="0" r="1" gradientUnits="userSpaceOnUse" gradientTransform="translate(30.704 23.8527) scale(44.4471 44.4345)">
<stop stop-color="#EBE49C"/>
<stop offset="0.481959" stop-color="#D6C678"/>
<stop offset="1" stop-color="#D6C678"/>
</radialGradient>
<radialGradient id="paint7_radial_10_55" cx="0" cy="0" r="1" gradientUnits="userSpaceOnUse" gradientTransform="translate(30.7041 23.8527) scale(44.4471 44.4344)">
<stop stop-color="#EBE49C"/>
<stop offset="0.481959" stop-color="#D6C678"/>
<stop offset="1" stop-color="#D6C678"/>
</radialGradient>
<radialGradient id="paint8_radial_10_55" cx="0" cy="0" r="1" gradientUnits="userSpaceOnUse" gradientTransform="translate(30.7038 23.8527) scale(44.4468 44.4343)">
<stop stop-color="#EBE49C"/>
<stop offset="0.481959" stop-color="#D6C678"/>
<stop offset="1" stop-color="#D6C678"/>
</radialGradient>
<radialGradient id="paint9_radial_10_55" cx="0" cy="0" r="1" gradientUnits="userSpaceOnUse" gradientTransform="translate(30.7038 23.8527) scale(44.447 44.4344)">
<stop stop-color="#EBE49C"/>
<stop offset="0.481959" stop-color="#D6C678"/>
<stop offset="1" stop-color="#D6C678"/>
</radialGradient>
<radialGradient id="paint10_radial_10_55" cx="0" cy="0" r="1" gradientUnits="userSpaceOnUse" gradientTransform="translate(30.704 23.8525) scale(44.4473 44.4346)">
<stop stop-color="#EBE49C"/>
<stop offset="0.481959" stop-color="#D6C678"/>
<stop offset="1" stop-color="#D6C678"/>
</radialGradient>
<radialGradient id="paint11_radial_10_55" cx="0" cy="0" r="1" gradientUnits="userSpaceOnUse" gradientTransform="translate(30.704 23.8527) scale(44.4471 44.4344)">
<stop stop-color="#EBE49C"/>
<stop offset="0.481959" stop-color="#D6C678"/>
<stop offset="1" stop-color="#D6C678"/>
</radialGradient>
<radialGradient id="paint12_radial_10_55" cx="0" cy="0" r="1" gradientUnits="userSpaceOnUse" gradientTransform="translate(30.7039 23.8527) scale(44.447 44.4344)">
<stop stop-color="#EBE49C"/>
<stop offset="0.481959" stop-color="#D6C678"/>
<stop offset="1" stop-color="#D6C678"/>
</radialGradient>
<radialGradient id="paint13_radial_10_55" cx="0" cy="0" r="1" gradientUnits="userSpaceOnUse" gradientTransform="translate(30.704 23.8526) scale(44.4471 44.4346)">
<stop stop-color="#EBE49C"/>
<stop offset="0.481959" stop-color="#D6C678"/>
<stop offset="1" stop-color="#D6C678"/>
</radialGradient>
<radialGradient id="paint14_radial_10_55" cx="0" cy="0" r="1" gradientUnits="userSpaceOnUse" gradientTransform="translate(30.7038 23.8527) scale(44.4469 44.4343)">
<stop stop-color="#EBE49C"/>
<stop offset="0.481959" stop-color="#D6C678"/>
<stop offset="1" stop-color="#D6C678"/>
</radialGradient>
<radialGradient id="paint15_radial_10_55" cx="0" cy="0" r="1" gradientUnits="userSpaceOnUse" gradientTransform="translate(30.704 23.8527) scale(44.4471 44.4345)">
<stop stop-color="#EBE49C"/>
<stop offset="0.481959" stop-color="#D6C678"/>
<stop offset="1" stop-color="#D6C678"/>
</radialGradient>
<radialGradient id="paint16_radial_10_55" cx="0" cy="0" r="1" gradientUnits="userSpaceOnUse" gradientTransform="translate(30.7036 23.8527) scale(44.4471 44.4346)">
<stop stop-color="#EBE49C"/>
<stop offset="0.481959" stop-color="#D6C678"/>
<stop offset="1" stop-color="#D6C678"/>
</radialGradient>
<radialGradient id="paint17_radial_10_55" cx="0" cy="0" r="1" gradientUnits="userSpaceOnUse" gradientTransform="translate(30.7039 23.8527) scale(44.4469 44.4343)">
<stop stop-color="#EBE49C"/>
<stop offset="0.481959" stop-color="#D6C678"/>
<stop offset="1" stop-color="#D6C678"/>
</radialGradient>
<radialGradient id="paint18_radial_10_55" cx="0" cy="0" r="1" gradientUnits="userSpaceOnUse" gradientTransform="translate(30.7039 23.8525) scale(44.4469 44.4343)">
<stop stop-color="#EBE49C"/>
<stop offset="0.481959" stop-color="#D6C678"/>
<stop offset="1" stop-color="#D6C678"/>
</radialGradient>
<radialGradient id="paint19_radial_10_55" cx="0" cy="0" r="1" gradientUnits="userSpaceOnUse" gradientTransform="translate(30.7038 23.8527) scale(44.447 44.4345)">
<stop stop-color="#EBE49C"/>
<stop offset="0.481959" stop-color="#D6C678"/>
<stop offset="1" stop-color="#D6C678"/>
</radialGradient>
<radialGradient id="paint20_radial_10_55" cx="0" cy="0" r="1" gradientUnits="userSpaceOnUse" gradientTransform="translate(30.704 23.8527) scale(44.4471 44.4345)">
<stop stop-color="#EBE49C"/>
<stop offset="0.481959" stop-color="#D6C678"/>
<stop offset="1" stop-color="#D6C678"/>
</radialGradient>
<radialGradient id="paint21_radial_10_55" cx="0" cy="0" r="1" gradientUnits="userSpaceOnUse" gradientTransform="translate(30.7021 23.8527) scale(44.452 44.4394)">
<stop stop-color="#EBE49C"/>
<stop offset="0.481959" stop-color="#D6C678"/>
<stop offset="1" stop-color="#D6C678"/>
</radialGradient>
<radialGradient id="paint22_radial_10_55" cx="0" cy="0" r="1" gradientUnits="userSpaceOnUse" gradientTransform="translate(30.7039 23.8527) scale(44.4469 44.4343)">
<stop stop-color="#EBE49C"/>
<stop offset="0.481959" stop-color="#D6C678"/>
<stop offset="1" stop-color="#D6C678"/>
</radialGradient>
<radialGradient id="paint23_radial_10_55" cx="0" cy="0" r="1" gradientUnits="userSpaceOnUse" gradientTransform="translate(30.704 23.8527) scale(44.447 44.4342)">
<stop stop-color="#EBE49C"/>
<stop offset="0.481959" stop-color="#D6C678"/>
<stop offset="1" stop-color="#D6C678"/>
</radialGradient>
<radialGradient id="paint24_radial_10_55" cx="0" cy="0" r="1" gradientUnits="userSpaceOnUse" gradientTransform="translate(30.704 23.8527) scale(44.4473 44.4346)">
<stop stop-color="#EBE49C"/>
<stop offset="0.481959" stop-color="#D6C678"/>
<stop offset="1" stop-color="#D6C678"/>
</radialGradient>
<radialGradient id="paint25_radial_10_55" cx="0" cy="0" r="1" gradientUnits="userSpaceOnUse" gradientTransform="translate(30.704 23.8527) scale(44.4473 44.4347)">
<stop stop-color="#EBE49C"/>
<stop offset="0.481959" stop-color="#D6C678"/>
<stop offset="1" stop-color="#D6C678"/>
</radialGradient>
<radialGradient id="paint26_radial_10_55" cx="0" cy="0" r="1" gradientUnits="userSpaceOnUse" gradientTransform="translate(30.7038 23.8527) scale(44.4469 44.4343)">
<stop stop-color="#EBE49C"/>
<stop offset="0.481959" stop-color="#D6C678"/>
<stop offset="1" stop-color="#D6C678"/>
</radialGradient>
<radialGradient id="paint27_radial_10_55" cx="0" cy="0" r="1" gradientUnits="userSpaceOnUse" gradientTransform="translate(30.7039 23.8527) scale(44.447 44.4344)">
<stop stop-color="#EBE49C"/>
<stop offset="0.481959" stop-color="#D6C678"/>
<stop offset="1" stop-color="#D6C678"/>
</radialGradient>
<radialGradient id="paint28_radial_10_55" cx="0" cy="0" r="1" gradientUnits="userSpaceOnUse" gradientTransform="translate(30.7039 23.8527) scale(44.4469 44.4343)">
<stop stop-color="#EBE49C"/>
<stop offset="0.481959" stop-color="#D6C678"/>
<stop offset="1" stop-color="#D6C678"/>
</radialGradient>
<radialGradient id="paint29_radial_10_55" cx="0" cy="0" r="1" gradientUnits="userSpaceOnUse" gradientTransform="translate(30.704 23.8527) scale(44.4472 44.4347)">
<stop stop-color="#EBE49C"/>
<stop offset="0.481959" stop-color="#D6C678"/>
<stop offset="1" stop-color="#D6C678"/>
</radialGradient>
<radialGradient id="paint30_radial_10_55" cx="0" cy="0" r="1" gradientUnits="userSpaceOnUse" gradientTransform="translate(30.704 23.8527) scale(44.4471 44.4344)">
<stop stop-color="#EBE49C"/>
<stop offset="0.481959" stop-color="#D6C678"/>
<stop offset="1" stop-color="#D6C678"/>
</radialGradient>
<radialGradient id="paint31_radial_10_55" cx="0" cy="0" r="1" gradientUnits="userSpaceOnUse" gradientTransform="translate(30.7038 23.8527) scale(44.4472 44.4346)">
<stop stop-color="#EBE49C"/>
<stop offset="0.481959" stop-color="#D6C678"/>
<stop offset="1" stop-color="#D6C678"/>
</radialGradient>
<radialGradient id="paint32_radial_10_55" cx="0" cy="0" r="1" gradientUnits="userSpaceOnUse" gradientTransform="translate(30.704 23.8527) scale(44.4473 44.4348)">
<stop stop-color="#EBE49C"/>
<stop offset="0.481959" stop-color="#D6C678"/>
<stop offset="1" stop-color="#D6C678"/>
</radialGradient>
<radialGradient id="paint33_radial_10_55" cx="0" cy="0" r="1" gradientUnits="userSpaceOnUse" gradientTransform="translate(30.704 23.8527) scale(44.4471 44.4345)">
<stop stop-color="#EBE49C"/>
<stop offset="0.481959" stop-color="#D6C678"/>
<stop offset="1" stop-color="#D6C678"/>
</radialGradient>
<radialGradient id="paint34_radial_10_55" cx="0" cy="0" r="1" gradientUnits="userSpaceOnUse" gradientTransform="translate(30.7038 23.8525) scale(44.4468 44.4343)">
<stop stop-color="#EBE49C"/>
<stop offset="0.481959" stop-color="#D6C678"/>
<stop offset="1" stop-color="#D6C678"/>
</radialGradient>
<radialGradient id="paint35_radial_10_55" cx="0" cy="0" r="1" gradientUnits="userSpaceOnUse" gradientTransform="translate(30.704 23.8527) scale(44.4471 44.4345)">
<stop stop-color="#EBE49C"/>
<stop offset="0.481959" stop-color="#D6C678"/>
<stop offset="1" stop-color="#D6C678"/>
</radialGradient>
<radialGradient id="paint36_radial_10_55" cx="0" cy="0" r="1" gradientUnits="userSpaceOnUse" gradientTransform="translate(30.7039 23.8527) scale(44.4471 44.4345)">
<stop stop-color="#EBE49C"/>
<stop offset="0.481959" stop-color="#D6C678"/>
<stop offset="1" stop-color="#D6C678"/>
</radialGradient>
<radialGradient id="paint37_radial_10_55" cx="0" cy="0" r="1" gradientUnits="userSpaceOnUse" gradientTransform="translate(30.7039 23.8527) scale(44.4468 44.4343)">
<stop stop-color="#EBE49C"/>
<stop offset="0.481959" stop-color="#D6C678"/>
<stop offset="1" stop-color="#D6C678"/>
</radialGradient>
<radialGradient id="paint38_radial_10_55" cx="0" cy="0" r="1" gradientUnits="userSpaceOnUse" gradientTransform="translate(30.7039 23.8527) scale(44.4469 44.4342)">
<stop stop-color="#EBE49C"/>
<stop offset="0.481959" stop-color="#D6C678"/>
<stop offset="1" stop-color="#D6C678"/>
</radialGradient>
<radialGradient id="paint39_radial_10_55" cx="0" cy="0" r="1" gradientUnits="userSpaceOnUse" gradientTransform="translate(30.7039 23.8527) scale(44.4469 44.4342)">
<stop stop-color="#EBE49C"/>
<stop offset="0.481959" stop-color="#D6C678"/>
<stop offset="1" stop-color="#D6C678"/>
</radialGradient>
<radialGradient id="paint40_radial_10_55" cx="0" cy="0" r="1" gradientUnits="userSpaceOnUse" gradientTransform="translate(30.7039 23.8527) scale(44.4469 44.4343)">
<stop stop-color="#EBE49C"/>
<stop offset="0.481959" stop-color="#D6C678"/>
<stop offset="1" stop-color="#D6C678"/>
</radialGradient>
<radialGradient id="paint41_radial_10_55" cx="0" cy="0" r="1" gradientUnits="userSpaceOnUse" gradientTransform="translate(30.704 23.8527) scale(44.447 44.4345)">
<stop stop-color="#EBE49C"/>
<stop offset="0.481959" stop-color="#D6C678"/>
<stop offset="1" stop-color="#D6C678"/>
</radialGradient>
<radialGradient id="paint42_radial_10_55" cx="0" cy="0" r="1" gradientUnits="userSpaceOnUse" gradientTransform="translate(30.7038 23.8527) scale(44.4471 44.4344)">
<stop stop-color="#EBE49C"/>
<stop offset="0.481959" stop-color="#D6C678"/>
<stop offset="1" stop-color="#D6C678"/>
</radialGradient>
<radialGradient id="paint43_radial_10_55" cx="0" cy="0" r="1" gradientUnits="userSpaceOnUse" gradientTransform="translate(30.704 23.8527) scale(44.4471 44.4345)">
<stop stop-color="#EBE49C"/>
<stop offset="0.481959" stop-color="#D6C678"/>
<stop offset="1" stop-color="#D6C678"/>
</radialGradient>
<radialGradient id="paint44_radial_10_55" cx="0" cy="0" r="1" gradientUnits="userSpaceOnUse" gradientTransform="translate(30.704 23.8527) scale(44.4469 44.4343)">
<stop stop-color="#EBE49C"/>
<stop offset="0.481959" stop-color="#D6C678"/>
<stop offset="1" stop-color="#D6C678"/>
</radialGradient>
<radialGradient id="paint45_radial_10_55" cx="0" cy="0" r="1" gradientUnits="userSpaceOnUse" gradientTransform="translate(30.7038 23.8527) scale(44.4471 44.4344)">
<stop stop-color="#EBE49C"/>
<stop offset="0.481959" stop-color="#D6C678"/>
<stop offset="1" stop-color="#D6C678"/>
</radialGradient>
<radialGradient id="paint46_radial_10_55" cx="0" cy="0" r="1" gradientUnits="userSpaceOnUse" gradientTransform="translate(30.7039 23.8527) scale(44.4473 44.4346)">
<stop stop-color="#EBE49C"/>
<stop offset="0.481959" stop-color="#D6C678"/>
<stop offset="1" stop-color="#D6C678"/>
</radialGradient>
</defs>
</svg>
