<svg width="177" height="63" viewBox="0 0 177 63" fill="none" xmlns="http://www.w3.org/2000/svg">
<path d="M43.7571 61.499C41.4978 60.7417 39.7179 59.7719 38.4655 58.984C38.2278 59.5099 37.8944 60.1275 37.4245 60.7705C36.7137 61.7432 35.9456 62.4248 35.3425 62.8779C47.8875 63.0743 50.9533 63.0033 50.9572 62.8779C50.9613 62.7492 47.7455 62.8355 43.7571 61.499Z" fill="#D6C678"/>
<path d="M43.7571 61.499C41.4978 60.7417 39.7179 59.7719 38.4655 58.984C38.2278 59.5099 37.8944 60.1275 37.4245 60.7705C36.7137 61.7432 35.9456 62.4248 35.3425 62.8779C47.8875 63.0743 50.9533 63.0033 50.9572 62.8779C50.9613 62.7492 47.7455 62.8355 43.7571 61.499Z" fill="#D6C678"/>
<path d="M37.5808 58.2381C37.2322 57.8968 36.8497 57.4773 36.4704 56.972C36.1244 56.5112 35.8485 56.0688 35.6288 55.671C35.389 56.6018 34.8679 58.128 33.6771 59.6777C32.2884 61.4849 30.6731 62.433 29.7734 62.8779C30.7277 62.8779 31.6819 62.8779 32.6362 62.8779C33.2771 62.6912 34.3442 62.2889 35.3947 61.3949C36.7492 60.2423 37.3405 58.8985 37.5808 58.2381Z" fill="#D6C678"/>
<path d="M37.5808 58.2381C37.2322 57.8968 36.8497 57.4773 36.4704 56.972C36.1244 56.5112 35.8485 56.0688 35.6288 55.671C35.389 56.6018 34.8679 58.128 33.6771 59.6777C32.2884 61.4849 30.6731 62.433 29.7734 62.8779C30.7277 62.8779 31.6819 62.8779 32.6362 62.8779C33.2771 62.6912 34.3442 62.2889 35.3947 61.3949C36.7492 60.2423 37.3405 58.8985 37.5808 58.2381Z" fill="#D6C678"/>
<path d="M53.5703 38.736C45.3754 35.2443 35.0891 44.4955 33.9035 45.5619C32.6896 46.6536 33.1448 46.4375 29.1862 50.4148C24.4654 55.1581 22.0616 57.5595 19.899 58.966C17.7019 60.3948 14.1224 62.1977 8.77148 62.8779C11.5388 62.8779 14.3061 62.8779 17.0734 62.8779C19.5439 62.0227 21.3972 60.9244 22.6395 60.0643C23.6248 59.382 26.1757 57.5831 28.3159 54.5221C29.0577 53.4611 29.2662 52.9407 30.1895 51.8379C31.4865 50.2894 32.8103 49.2435 33.7421 48.5944C33.1538 49.2018 32.2465 50.1789 31.2307 51.4564C28.6547 54.6958 28.1312 56.4101 26.4768 58.3943C25.3756 59.7148 23.5125 61.4679 20.3004 62.8779C21.4454 62.8779 22.5905 62.8779 23.7355 62.8779C25.0263 62.3698 26.577 61.5643 28.0383 60.2327C30.8382 57.6817 31.035 55.9691 33.5208 52.3409C34.718 50.5937 38.1882 45.7988 43.9683 43.2687C46.1841 42.2989 48.6535 41.2616 51.3245 42.2281C53.3938 42.9769 55.9037 45.0441 55.8325 47.6752C55.7458 50.8753 51.858 53.501 49.0314 53.0694C48.0715 52.9227 46.9156 52.6532 45.6655 52.15C43.1745 51.1476 41.4586 49.6804 40.4434 48.6464C39.281 49.6004 38.1184 50.5544 36.956 51.5084C38.8308 53.2261 42.0692 55.6566 46.6372 56.7291C47.9035 57.0265 48.8297 57.2993 50.0723 57.2321C54.5819 56.9882 59.9312 52.8918 59.9993 47.7091C60.0531 43.6203 56.8036 40.1136 53.5703 38.736Z" fill="#D6C678"/>
<path d="M53.5703 38.736C45.3754 35.2443 35.0891 44.4955 33.9035 45.5619C32.6896 46.6536 33.1448 46.4375 29.1862 50.4148C24.4654 55.1581 22.0616 57.5595 19.899 58.966C17.7019 60.3948 14.1224 62.1977 8.77148 62.8779C11.5388 62.8779 14.3061 62.8779 17.0734 62.8779C19.5439 62.0227 21.3972 60.9244 22.6395 60.0643C23.6248 59.382 26.1757 57.5831 28.3159 54.5221C29.0577 53.4611 29.2662 52.9407 30.1895 51.8379C31.4865 50.2894 32.8103 49.2435 33.7421 48.5944C33.1538 49.2018 32.2465 50.1789 31.2307 51.4564C28.6547 54.6958 28.1312 56.4101 26.4768 58.3943C25.3756 59.7148 23.5125 61.4679 20.3004 62.8779C21.4454 62.8779 22.5905 62.8779 23.7355 62.8779C25.0263 62.3698 26.577 61.5643 28.0383 60.2327C30.8382 57.6817 31.035 55.9691 33.5208 52.3409C34.718 50.5937 38.1882 45.7988 43.9683 43.2687C46.1841 42.2989 48.6535 41.2616 51.3245 42.2281C53.3938 42.9769 55.9037 45.0441 55.8325 47.6752C55.7458 50.8753 51.858 53.501 49.0314 53.0694C48.0715 52.9227 46.9156 52.6532 45.6655 52.15C43.1745 51.1476 41.4586 49.6804 40.4434 48.6464C39.281 49.6004 38.1184 50.5544 36.956 51.5084C38.8308 53.2261 42.0692 55.6566 46.6372 56.7291C47.9035 57.0265 48.8297 57.2993 50.0723 57.2321C54.5819 56.9882 59.9312 52.8918 59.9993 47.7091C60.0531 43.6203 56.8036 40.1136 53.5703 38.736Z" fill="#D6C678"/>
<path d="M13.0655 57.024C14.7602 56.5745 16.0014 55.8533 16.9172 55.2548C17.9622 54.5719 27.3177 48.3308 30.8937 39.7612C31.7407 37.7312 32.3791 36.9438 33.3474 35.1868C33.8462 34.2815 34.749 32.6869 36.5398 31.5532C37.8422 30.7286 39.1386 30.4494 39.5497 30.3706C39.9722 30.2896 40.9953 30.1261 42.2911 30.2782C42.762 30.3336 43.1544 30.4171 43.4422 30.4893C43.7344 30.631 44.1818 30.8567 44.7114 31.163C45.6907 31.729 46.3329 32.2126 46.5072 32.3337C47.2148 32.8259 48.616 33.1912 51.6859 32.5157C51.2348 31.9867 50.7837 31.4577 50.3328 30.9287C50.0431 30.476 49.6421 29.9833 49.0875 29.5464C46.8767 27.8057 44.0369 28.3806 43.4623 28.5091C42.0663 28.2248 39.5056 27.9205 36.7479 28.9775C34.6477 29.7825 33.2848 31.0505 32.1557 32.229C27.7956 36.7791 27.9175 38.9535 24.1877 43.7298C23.8937 44.1065 20.1033 49.2626 13.5861 52.2368C11.8771 53.0168 10.7094 53.3152 9.41303 53.1681C6.95541 52.8891 3.85594 50.9879 3.5406 47.9699C3.25714 45.2558 5.36264 42.9517 7.25628 42.02C10.5345 40.4071 15.3066 41.8592 18.5307 45.9927L22.0701 42.8707C16.4821 37.6302 9.23383 36.4328 4.61926 39.4181C4.41112 39.5529 0.0829478 42.4537 0.00117707 47.4497C-0.0790287 52.3618 3.95337 56.6586 7.91279 57.2841C9.00359 57.4564 10.8724 57.6056 13.0655 57.024Z" fill="#D6C678"/>
<path d="M13.0655 57.024C14.7602 56.5745 16.0014 55.8533 16.9172 55.2548C17.9622 54.5719 27.3177 48.3308 30.8937 39.7612C31.7407 37.7312 32.3791 36.9438 33.3474 35.1868C33.8462 34.2815 34.749 32.6869 36.5398 31.5532C37.8422 30.7286 39.1386 30.4494 39.5497 30.3706C39.9722 30.2896 40.9953 30.1261 42.2911 30.2782C42.762 30.3336 43.1544 30.4171 43.4422 30.4893C43.7344 30.631 44.1818 30.8567 44.7114 31.163C45.6907 31.729 46.3329 32.2126 46.5072 32.3337C47.2148 32.8259 48.616 33.1912 51.6859 32.5157C51.2348 31.9867 50.7837 31.4577 50.3328 30.9287C50.0431 30.476 49.6421 29.9833 49.0875 29.5464C46.8767 27.8057 44.0369 28.3806 43.4623 28.5091C42.0663 28.2248 39.5056 27.9205 36.7479 28.9775C34.6477 29.7825 33.2848 31.0505 32.1557 32.229C27.7956 36.7791 27.9175 38.9535 24.1877 43.7298C23.8937 44.1065 20.1033 49.2626 13.5861 52.2368C11.8771 53.0168 10.7094 53.3152 9.41303 53.1681C6.95541 52.8891 3.85594 50.9879 3.5406 47.9699C3.25714 45.2558 5.36264 42.9517 7.25628 42.02C10.5345 40.4071 15.3066 41.8592 18.5307 45.9927L22.0701 42.8707C16.4821 37.6302 9.23383 36.4328 4.61926 39.4181C4.41112 39.5529 0.0829478 42.4537 0.00117707 47.4497C-0.0790287 52.3618 3.95337 56.6586 7.91279 57.2841C9.00359 57.4564 10.8724 57.6056 13.0655 57.024Z" fill="#D6C678"/>
<path d="M22.6253 10.5573C22.4045 11.1474 21.9753 12.5385 22.3131 14.269C22.7073 16.2891 23.9034 17.5266 24.3486 17.9461C25.0575 18.5496 25.9961 19.4966 26.7892 20.8601C28.0776 23.0753 28.2877 25.1964 28.316 26.3064C28.3202 27.4136 28.2746 28.7773 28.1079 30.3303C27.9338 31.9513 27.6918 33.1818 27.596 33.6491C27.2857 35.1606 26.7638 37.1609 25.8414 39.4537C26.4895 38.7909 27.2513 37.8966 27.969 36.748C28.6903 35.5934 29.1613 34.5113 29.473 33.6352C30.1318 30.3365 30.7907 27.0379 31.4495 23.7394C31.7688 22.7184 32.2921 21.4229 33.174 20.0624C33.7047 19.2433 34.2589 18.5651 34.7701 18.0155C35.1414 17.7586 36.8609 16.5093 37.3032 14.165C37.6283 12.442 37.0857 11.0695 36.8521 10.5573C36.4505 10.8413 35.8681 11.2649 35.1865 11.8062C33.6302 13.042 32.852 13.66 32.3066 14.4425C31.8997 15.0263 31.127 16.4013 31.3466 18.8481C31.0209 19.5024 30.6841 20.2916 30.3981 21.207C30.0876 22.2005 29.9102 23.1081 29.8081 23.8781C29.2993 22.2476 28.7902 20.6174 28.2814 18.9869C28.2851 18.135 28.1983 14.986 25.8631 12.9132C25.3637 12.4698 24.842 12.1471 24.3486 11.9103C24.1168 11.836 23.7938 11.7032 23.4581 11.4593C23.0274 11.1462 22.7678 10.7893 22.6253 10.5573Z" fill="#D6C678"/>
<path d="M22.6253 10.5573C22.4045 11.1474 21.9753 12.5385 22.3131 14.269C22.7073 16.2891 23.9034 17.5266 24.3486 17.9461C25.0575 18.5496 25.9961 19.4966 26.7892 20.8601C28.0776 23.0753 28.2877 25.1964 28.316 26.3064C28.3202 27.4136 28.2746 28.7773 28.1079 30.3303C27.9338 31.9513 27.6918 33.1818 27.596 33.6491C27.2857 35.1606 26.7638 37.1609 25.8414 39.4537C26.4895 38.7909 27.2513 37.8966 27.969 36.748C28.6903 35.5934 29.1613 34.5113 29.473 33.6352C30.1318 30.3365 30.7907 27.0379 31.4495 23.7394C31.7688 22.7184 32.2921 21.4229 33.174 20.0624C33.7047 19.2433 34.2589 18.5651 34.7701 18.0155C35.1414 17.7586 36.8609 16.5093 37.3032 14.165C37.6283 12.442 37.0857 11.0695 36.8521 10.5573C36.4505 10.8413 35.8681 11.2649 35.1865 11.8062C33.6302 13.042 32.852 13.66 32.3066 14.4425C31.8997 15.0263 31.127 16.4013 31.3466 18.8481C31.0209 19.5024 30.6841 20.2916 30.3981 21.207C30.0876 22.2005 29.9102 23.1081 29.8081 23.8781C29.2993 22.2476 28.7902 20.6174 28.2814 18.9869C28.2851 18.135 28.1983 14.986 25.8631 12.9132C25.3637 12.4698 24.842 12.1471 24.3486 11.9103C24.1168 11.836 23.7938 11.7032 23.4581 11.4593C23.0274 11.1462 22.7678 10.7893 22.6253 10.5573Z" fill="#D6C678"/>
<path d="M26.2342 33.7646C27.6435 30.5509 27.0122 26.8537 24.6725 24.4679C21.6486 21.3842 17.3963 22.1493 17.0735 22.213C17.2093 22.6824 17.7551 24.3557 19.4677 25.5085C20.986 26.5306 22.5187 26.5359 23.0418 26.5146C22.6014 26.381 21.8438 26.0888 21.0985 25.4391C20.295 24.7388 19.895 23.962 19.7105 23.5312C20.3332 23.6305 21.6182 23.9272 22.7988 24.9535C24.8417 26.7293 24.9239 29.2568 24.9309 29.6945C24.1025 29.2547 22.9755 28.7741 21.5844 28.4919C18.8811 27.9434 16.6244 28.4362 15.4078 28.8041C13.2025 28.0992 11.8703 28.6904 11.4521 28.9081C10.7077 29.2955 10.1255 29.9213 9.19672 30.9201C8.6341 31.525 8.20432 32.0624 7.91284 32.4465C9.89784 33.3606 11.1119 33.2057 11.8605 32.8801C12.564 32.5742 13.0104 32.0505 14.5056 31.3363C15.1245 31.041 15.6595 30.8386 15.9283 30.7466C18.8298 29.7547 21.9911 30.9344 22.3131 31.0588C24.2425 31.8053 25.5237 32.9841 26.2342 33.7646Z" fill="#D6C678"/>
<path d="M26.2342 33.7646C27.6435 30.5509 27.0122 26.8537 24.6725 24.4679C21.6486 21.3842 17.3963 22.1493 17.0735 22.213C17.2093 22.6824 17.7551 24.3557 19.4677 25.5085C20.986 26.5306 22.5187 26.5359 23.0418 26.5146C22.6014 26.381 21.8438 26.0888 21.0985 25.4391C20.295 24.7388 19.895 23.962 19.7105 23.5312C20.3332 23.6305 21.6182 23.9272 22.7988 24.9535C24.8417 26.7293 24.9239 29.2568 24.9309 29.6945C24.1025 29.2547 22.9755 28.7741 21.5844 28.4919C18.8811 27.9434 16.6244 28.4362 15.4078 28.8041C13.2025 28.0992 11.8703 28.6904 11.4521 28.9081C10.7077 29.2955 10.1255 29.9213 9.19672 30.9201C8.6341 31.525 8.20432 32.0624 7.91284 32.4465C9.89784 33.3606 11.1119 33.2057 11.8605 32.8801C12.564 32.5742 13.0104 32.0505 14.5056 31.3363C15.1245 31.041 15.6595 30.8386 15.9283 30.7466C18.8298 29.7547 21.9911 30.9344 22.3131 31.0588C24.2425 31.8053 25.5237 32.9841 26.2342 33.7646Z" fill="#D6C678"/>
<path d="M38.2574 25.4911C37.6686 26.0024 37.0889 26.327 36.6439 26.532C37.1439 26.5844 38.6907 26.6824 40.2614 25.7252C42.0742 24.6207 42.6546 22.8809 42.7857 22.4471C42.5204 22.3589 38.8552 21.2092 35.7591 23.67C32.4661 26.2871 33.0047 30.4547 33.0303 30.6291C33.2692 30.4077 33.5448 30.174 33.8592 29.9401C34.1593 29.717 34.4488 29.5277 34.718 29.3677C34.7317 28.8618 34.84 27.1787 36.1233 25.6472C37.5089 23.9939 39.3208 23.6426 39.7928 23.566C39.5233 24.0686 39.0491 24.8037 38.2574 25.4911Z" fill="#D6C678"/>
<path d="M38.2574 25.4911C37.6686 26.0024 37.0889 26.327 36.6439 26.532C37.1439 26.5844 38.6907 26.6824 40.2614 25.7252C42.0742 24.6207 42.6546 22.8809 42.7857 22.4471C42.5204 22.3589 38.8552 21.2092 35.7591 23.67C32.4661 26.2871 33.0047 30.4547 33.0303 30.6291C33.2692 30.4077 33.5448 30.174 33.8592 29.9401C34.1593 29.717 34.4488 29.5277 34.718 29.3677C34.7317 28.8618 34.84 27.1787 36.1233 25.6472C37.5089 23.9939 39.3208 23.6426 39.7928 23.566C39.5233 24.0686 39.0491 24.8037 38.2574 25.4911Z" fill="#D6C678"/>
<path d="M16.7091 20.9381C16.7302 20.8746 16.7596 20.7797 16.7889 20.6634C16.9382 20.3798 17.133 19.8539 16.9464 19.2132C16.7163 18.4231 16.0454 17.9395 15.6457 17.652C15.1752 17.3129 14.7269 17.1287 14.4246 17.0283C14.4203 17.0616 14.4162 17.097 14.4125 17.1339C14.3205 17.0962 14.2351 17.0633 14.1588 17.0356C14.0815 17.3497 14.0019 17.8339 14.0676 18.4145C14.1234 18.9077 14.2173 19.7381 14.8875 20.3399C15.5827 20.9641 16.4618 20.9507 16.7091 20.9381Z" fill="#D6C678"/>
<path d="M16.7091 20.9381C16.7302 20.8746 16.7596 20.7797 16.7889 20.6634C16.9382 20.3798 17.133 19.8539 16.9464 19.2132C16.7163 18.4231 16.0454 17.9395 15.6457 17.652C15.1752 17.3129 14.7269 17.1287 14.4246 17.0283C14.4203 17.0616 14.4162 17.097 14.4125 17.1339C14.3205 17.0962 14.2351 17.0633 14.1588 17.0356C14.0815 17.3497 14.0019 17.8339 14.0676 18.4145C14.1234 18.9077 14.2173 19.7381 14.8875 20.3399C15.5827 20.9641 16.4618 20.9507 16.7091 20.9381Z" fill="#D6C678"/>
<path d="M28.8431 10.4396C28.5373 11.0263 28.0228 12.0136 28.3151 13.1772C28.6185 14.3844 29.5999 15.024 29.8824 15.1943C30.2394 14.9187 31.4032 13.9509 31.4437 12.5676C31.4658 11.8141 31.1491 11.1339 30.8099 10.406C30.5205 9.78467 30.2056 9.30612 29.9706 8.98383C29.6514 9.27346 29.203 9.74908 28.8431 10.4396Z" fill="#D6C678"/>
<path d="M28.8431 10.4396C28.5373 11.0263 28.0228 12.0136 28.3151 13.1772C28.6185 14.3844 29.5999 15.024 29.8824 15.1943C30.2394 14.9187 31.4032 13.9509 31.4437 12.5676C31.4658 11.8141 31.1491 11.1339 30.8099 10.406C30.5205 9.78467 30.2056 9.30612 29.9706 8.98383C29.6514 9.27346 29.203 9.74908 28.8431 10.4396Z" fill="#D6C678"/>
<path d="M29.8618 6.83687C30.2548 6.53354 31.5358 5.46809 31.5804 3.9452C31.6048 3.1158 31.256 2.36697 30.8828 1.56572C30.5641 0.881626 30.2175 0.354764 29.9587 3.80316e-06C29.6073 0.31878 29.1138 0.842506 28.7174 1.60268C28.381 2.24845 27.8144 3.33542 28.1364 4.61639C28.4702 5.94547 29.5508 6.64932 29.8618 6.83687Z" fill="#D6C678"/>
<path d="M29.8618 6.83687C30.2548 6.53354 31.5358 5.46809 31.5804 3.9452C31.6048 3.1158 31.256 2.36697 30.8828 1.56572C30.5641 0.881626 30.2175 0.354764 29.9587 3.80316e-06C29.6073 0.31878 29.1138 0.842506 28.7174 1.60268C28.381 2.24845 27.8144 3.33542 28.1364 4.61639C28.4702 5.94547 29.5508 6.64932 29.8618 6.83687Z" fill="#D6C678"/>
<path d="M21.655 36.8147C23.1426 36.8147 24.3486 35.6091 24.3486 34.1218C22.861 34.1218 21.655 35.3274 21.655 36.8147Z" fill="#D6C678"/>
<path d="M21.655 36.8147C23.1426 36.8147 24.3486 35.6091 24.3486 34.1218C22.861 34.1218 21.655 35.3274 21.655 36.8147Z" fill="#D6C678"/>
<path d="M17.5324 34.8952L17.4456 35.6102L18.1608 35.6971C19.6375 35.8764 20.9801 34.8248 21.1595 33.3485L21.2463 32.6335L20.5311 32.5467C19.0544 32.3673 17.7118 33.4189 17.5324 34.8952Z" fill="#D6C678"/>
<path d="M17.5324 34.8952L17.4456 35.6102L18.1608 35.6971C19.6375 35.8764 20.9801 34.8248 21.1595 33.3485L21.2463 32.6335L20.5311 32.5467C19.0544 32.3673 17.7118 33.4189 17.5324 34.8952Z" fill="#D6C678"/>
<path d="M13.0854 34.6696C14.4437 35.276 16.0366 34.6666 16.6431 33.3086C15.2846 32.7023 13.6919 33.3117 13.0854 34.6696Z" fill="#D6C678"/>
<path d="M13.0854 34.6696C14.4437 35.276 16.0366 34.6666 16.6431 33.3086C15.2846 32.7023 13.6919 33.3117 13.0854 34.6696Z" fill="#D6C678"/>
<path d="M35.2378 34.1659C35.2621 35.6528 36.4876 36.8386 37.975 36.8143C37.9507 35.3272 36.7251 34.1415 35.2378 34.1659Z" fill="#D6C678"/>
<path d="M35.2378 34.1659C35.2621 35.6528 36.4876 36.8386 37.975 36.8143C37.9507 35.3272 36.7251 34.1415 35.2378 34.1659Z" fill="#D6C678"/>
<path d="M39.0286 32.5285L38.3149 32.627L38.4135 33.3405C38.617 34.8137 39.9766 35.8432 41.4502 35.6396L42.1638 35.541L42.0652 34.8276C41.8618 33.3543 40.5022 32.3251 39.0286 32.5285Z" fill="#D6C678"/>
<path d="M39.0286 32.5285L38.3149 32.627L38.4135 33.3405C38.617 34.8137 39.9766 35.8432 41.4502 35.6396L42.1638 35.541L42.0652 34.8276C41.8618 33.3543 40.5022 32.3251 39.0286 32.5285Z" fill="#D6C678"/>
<path d="M42.9287 33.2268C43.5574 34.5747 45.16 35.1579 46.5082 34.5293C45.8795 33.1815 44.2769 32.5983 42.9287 33.2268Z" fill="#D6C678"/>
<path d="M42.9287 33.2268C43.5574 34.5747 45.16 35.1579 46.5082 34.5293C45.8795 33.1815 44.2769 32.5983 42.9287 33.2268Z" fill="#D6C678"/>
<path d="M55.3992 26.3311C55.7075 26.427 56.0246 26.4713 56.3356 26.4713C57.4344 26.4713 58.4681 25.911 58.8707 25.0073C57.4697 24.5798 55.9168 25.1724 55.3992 26.3311Z" fill="white"/>
<path d="M55.3992 26.3311C55.7075 26.427 56.0246 26.4713 56.3356 26.4713C57.4344 26.4713 58.4681 25.911 58.8707 25.0073C57.4697 24.5798 55.9168 25.1724 55.3992 26.3311Z" fill="white"/>
<path d="M54.1148 22.3433C55.2091 22.1383 55.8343 21.3244 56.2046 20.8409C56.6411 20.2703 56.8623 19.7102 56.9787 19.3311C56.6131 19.2574 56.0851 19.1794 55.4479 19.1765C54.7003 19.1735 54.0027 19.172 53.3788 19.4815C52.2317 20.0506 51.8835 21.4026 51.7937 21.808C52.0502 21.9791 52.9794 22.5555 54.1148 22.3433Z" fill="#D6C678"/>
<path d="M54.1148 22.3433C55.2091 22.1383 55.8343 21.3244 56.2046 20.8409C56.6411 20.2703 56.8623 19.7102 56.9787 19.3311C56.6131 19.2574 56.0851 19.1794 55.4479 19.1765C54.7003 19.1735 54.0027 19.172 53.3788 19.4815C52.2317 20.0506 51.8835 21.4026 51.7937 21.808C52.0502 21.9791 52.9794 22.5555 54.1148 22.3433Z" fill="#D6C678"/>
<path d="M37.3281 4.09718C37.5331 3.90416 38.2012 3.22885 38.198 2.3752C38.1951 1.90936 37.9946 1.51275 37.7794 1.08817C37.5949 0.726959 37.3989 0.454137 37.2528 0.271476C37.0701 0.471933 36.8148 0.794817 36.6158 1.24443C36.4476 1.62637 36.163 2.26764 36.3592 2.96347C36.5642 3.6859 37.1569 4.01172 37.3281 4.09718Z" fill="#D6C678"/>
<path d="M37.3281 4.09718C37.5331 3.90416 38.2012 3.22885 38.198 2.3752C38.1951 1.90936 37.9946 1.51275 37.7794 1.08817C37.5949 0.726959 37.3989 0.454137 37.2528 0.271476C37.0701 0.471933 36.8148 0.794817 36.6158 1.24443C36.4476 1.62637 36.163 2.26764 36.3592 2.96347C36.5642 3.6859 37.1569 4.01172 37.3281 4.09718Z" fill="#D6C678"/>
<path d="M37.2189 21.4793C39.4664 21.0414 41.3082 19.2265 41.6902 16.7983C38.6154 16.2838 35.7278 18.3891 35.2368 21.5043C35.9137 21.6179 36.5833 21.6031 37.2189 21.4793Z" fill="#D6C678"/>
<path d="M37.2189 21.4793C39.4664 21.0414 41.3082 19.2265 41.6902 16.7983C38.6154 16.2838 35.7278 18.3891 35.2368 21.5043C35.9137 21.6179 36.5833 21.6031 37.2189 21.4793Z" fill="#D6C678"/>
<path d="M38.1438 9.26467L38.3102 9.64935L40.2864 8.79589C42.2922 7.92894 43.2153 5.6011 42.3481 3.59594L42.1814 3.21124L40.2054 4.06627C38.1997 4.93323 37.2766 7.26108 38.1438 9.26467Z" fill="#D6C678"/>
<path d="M38.1438 9.26467L38.3102 9.64935L40.2864 8.79589C42.2922 7.92894 43.2153 5.6011 42.3481 3.59594L42.1814 3.21124L40.2054 4.06627C38.1997 4.93323 37.2766 7.26108 38.1438 9.26467Z" fill="#D6C678"/>
<path d="M44.8181 19.601C45.0983 19.141 45.1427 18.6441 45.1883 18.112C45.2282 17.6579 45.2016 17.2849 45.1691 17.0283C44.8669 17.1286 44.4185 17.3129 43.948 17.652C43.5483 17.9395 42.8774 18.4231 42.6473 19.2132C42.4084 20.033 42.7948 20.6669 42.9098 20.8423C43.2314 20.7584 44.3021 20.4457 44.8181 19.601Z" fill="#D6C678"/>
<path d="M44.8181 19.601C45.0983 19.141 45.1427 18.6441 45.1883 18.112C45.2282 17.6579 45.2016 17.2849 45.1691 17.0283C44.8669 17.1286 44.4185 17.3129 43.948 17.652C43.5483 17.9395 42.8774 18.4231 42.6473 19.2132C42.4084 20.033 42.7948 20.6669 42.9098 20.8423C43.2314 20.7584 44.3021 20.4457 44.8181 19.601Z" fill="#D6C678"/>
<path d="M45.8904 8.48179C46.1527 8.09847 46.2133 7.65767 46.2781 7.18596C46.3327 6.78348 46.3268 6.44729 46.3106 6.21437C46.0467 6.2748 45.6529 6.39566 45.234 6.65225C44.8772 6.86894 44.2784 7.23602 44.0439 7.92012C43.8005 8.62925 44.1029 9.23512 44.1943 9.40331C44.4731 9.36048 45.4081 9.18642 45.8904 8.48179Z" fill="#D6C678"/>
<path d="M45.8904 8.48179C46.1527 8.09847 46.2133 7.65767 46.2781 7.18596C46.3327 6.78348 46.3268 6.44729 46.3106 6.21437C46.0467 6.2748 45.6529 6.39566 45.234 6.65225C44.8772 6.86894 44.2784 7.23602 44.0439 7.92012C43.8005 8.62925 44.1029 9.23512 44.1943 9.40331C44.4731 9.36048 45.4081 9.18642 45.8904 8.48179Z" fill="#D6C678"/>
<path d="M33.9776 9.54334C35.2473 8.81055 35.9567 7.48069 35.9567 6.11405C35.9567 5.44326 35.7855 4.76209 35.4258 4.13999L34.2092 4.84325C32.3171 5.9357 31.6682 8.35351 32.761 10.245L33.9776 9.54334Z" fill="#D6C678"/>
<path d="M33.9776 9.54334C35.2473 8.81055 35.9567 7.48069 35.9567 6.11405C35.9567 5.44326 35.7855 4.76209 35.4258 4.13999L34.2092 4.84325C32.3171 5.9357 31.6682 8.35351 32.761 10.245L33.9776 9.54334Z" fill="#D6C678"/>
<path d="M44.2298 27.111C44.7666 27.0639 45.1929 26.803 45.6485 26.5228C46.038 26.2856 46.321 26.0423 46.5082 25.8639C46.2473 25.6811 45.8329 25.429 45.2813 25.252C44.8124 25.1031 44.0248 24.8511 43.2521 25.1341C42.4514 25.4303 42.1697 26.1174 42.0989 26.3151C42.3555 26.5228 43.2433 27.1981 44.2298 27.111Z" fill="#D6C678"/>
<path d="M44.2298 27.111C44.7666 27.0639 45.1929 26.803 45.6485 26.5228C46.038 26.2856 46.321 26.0423 46.5082 25.8639C46.2473 25.6811 45.8329 25.429 45.2813 25.252C44.8124 25.1031 44.0248 24.8511 43.2521 25.1341C42.4514 25.4303 42.1697 26.1174 42.0989 26.3151C42.3555 26.5228 43.2433 27.1981 44.2298 27.111Z" fill="#D6C678"/>
<path d="M49.2055 19.0482C48.4639 19.091 47.2133 19.1616 46.2178 20.3176C45.1855 21.516 45.0749 23.1291 45.0571 23.5846C45.5188 23.8175 47.0953 24.5325 48.4845 23.6215C49.2425 23.1246 49.7454 22.2754 50.2852 21.3672C50.7466 20.5918 51.052 19.884 51.2451 19.3798C50.7895 19.2015 50.0802 18.9965 49.2055 19.0482Z" fill="#D6C678"/>
<path d="M49.2055 19.0482C48.4639 19.091 47.2133 19.1616 46.2178 20.3176C45.1855 21.516 45.0749 23.1291 45.0571 23.5846C45.5188 23.8175 47.0953 24.5325 48.4845 23.6215C49.2425 23.1246 49.7454 22.2754 50.2852 21.3672C50.7466 20.5918 51.052 19.884 51.2451 19.3798C50.7895 19.2015 50.0802 18.9965 49.2055 19.0482Z" fill="#D6C678"/>
<path d="M47.2618 18.0987C47.7219 18.0382 48.1599 17.9054 48.5639 17.7183C49.99 17.0533 50.9824 15.6764 50.9397 14.2184C48.853 14.4926 47.2072 16.2279 47.2618 18.0987Z" fill="#D6C678"/>
<path d="M47.2618 18.0987C47.7219 18.0382 48.1599 17.9054 48.5639 17.7183C49.99 17.0533 50.9824 15.6764 50.9397 14.2184C48.853 14.4926 47.2072 16.2279 47.2618 18.0987Z" fill="#D6C678"/>
<path d="M53.8139 26.178C54.2239 25.5485 54.3744 24.9336 54.4348 24.5178C53.9776 24.447 53.3215 24.3749 52.5472 24.3866C51.6403 24.4013 50.7923 24.4146 50.1006 24.767C48.8294 25.4127 48.6907 26.8914 48.6672 27.3352C49.0137 27.5151 50.2629 28.1196 51.5945 27.8616C52.8806 27.6125 53.4659 26.7131 53.8139 26.178Z" fill="#D6C678"/>
<path d="M53.8139 26.178C54.2239 25.5485 54.3744 24.9336 54.4348 24.5178C53.9776 24.447 53.3215 24.3749 52.5472 24.3866C51.6403 24.4013 50.7923 24.4146 50.1006 24.767C48.8294 25.4127 48.6907 26.8914 48.6672 27.3352C49.0137 27.5151 50.2629 28.1196 51.5945 27.8616C52.8806 27.6125 53.4659 26.7131 53.8139 26.178Z" fill="#D6C678"/>
<path d="M49.1361 10.043V9.49014H48.8693C45.7059 9.49014 43.1428 12.0525 43.1428 15.215V15.7679H43.4099C46.5717 15.7679 49.1361 13.2055 49.1361 10.043Z" fill="#D6C678"/>
<path d="M49.1361 10.043V9.49014H48.8693C45.7059 9.49014 43.1428 12.0525 43.1428 15.215V15.7679H43.4099C46.5717 15.7679 49.1361 13.2055 49.1361 10.043Z" fill="#D6C678"/>
<path d="M54.3139 16.443C54.6353 16.011 54.724 15.5201 54.8198 14.9938C54.9008 14.5456 54.9082 14.1711 54.8994 13.9131C54.5882 13.9869 54.1252 14.1285 53.6267 14.4218C53.202 14.6723 52.4897 15.0926 52.1873 15.8577C51.8747 16.6525 52.2006 17.3203 52.301 17.5045C52.6283 17.4515 53.7226 17.2376 54.3139 16.443Z" fill="#D6C678"/>
<path d="M54.3139 16.443C54.6353 16.011 54.724 15.5201 54.8198 14.9938C54.9008 14.5456 54.9082 14.1711 54.8994 13.9131C54.5882 13.9869 54.1252 14.1285 53.6267 14.4218C53.202 14.6723 52.4897 15.0926 52.1873 15.8577C51.8747 16.6525 52.2006 17.3203 52.301 17.5045C52.6283 17.4515 53.7226 17.2376 54.3139 16.443Z" fill="#D6C678"/>
<path d="M40.3972 10.1404C38.8236 10.82 38.0994 12.6466 38.7794 14.2184L41.0017 13.2586C42.1741 12.7528 42.8732 11.6103 42.8732 10.4101C42.8732 9.99884 42.792 9.5817 42.6181 9.18059L40.3972 10.1404Z" fill="#D6C678"/>
<path d="M40.3972 10.1404C38.8236 10.82 38.0994 12.6466 38.7794 14.2184L41.0017 13.2586C42.1741 12.7528 42.8732 11.6103 42.8732 10.4101C42.8732 9.99884 42.792 9.5817 42.6181 9.18059L40.3972 10.1404Z" fill="#D6C678"/>
<path d="M53.8039 30.7335L55.0646 30.244C54.6767 29.2445 53.5501 28.7475 52.5503 29.1367L51.2893 29.6262C51.6772 30.6258 52.804 31.1227 53.8039 30.7335Z" fill="#D6C678"/>
<path d="M53.8039 30.7335L55.0646 30.244C54.6767 29.2445 53.5501 28.7475 52.5503 29.1367L51.2893 29.6262C51.6772 30.6258 52.804 31.1227 53.8039 30.7335Z" fill="#D6C678"/>
<path d="M3.25799 26.4713C3.56903 26.4713 3.88614 26.427 4.19444 26.3311C3.67682 25.1724 2.12376 24.5798 0.7229 25.0073C1.12549 25.911 2.15917 26.4713 3.25799 26.4713Z" fill="#D6C678"/>
<path d="M3.25799 26.4713C3.56903 26.4713 3.88614 26.427 4.19444 26.3311C3.67682 25.1724 2.12376 24.5798 0.7229 25.0073C1.12549 25.911 2.15917 26.4713 3.25799 26.4713Z" fill="#D6C678"/>
<path d="M5.47891 22.3433C6.61431 22.5555 7.54353 21.9791 7.8 21.808C7.71001 21.4026 7.362 20.0506 6.21466 19.4815C5.59101 19.172 4.89342 19.1735 4.14575 19.1765C3.5086 19.1794 2.98061 19.2574 2.61499 19.3311C2.73139 19.7102 2.95263 20.2703 3.38927 20.8409C3.75939 21.3244 4.3846 22.1383 5.47891 22.3433Z" fill="#D6C678"/>
<path d="M5.47891 22.3433C6.61431 22.5555 7.54353 21.9791 7.8 21.808C7.71001 21.4026 7.362 20.0506 6.21466 19.4815C5.59101 19.172 4.89342 19.1735 4.14575 19.1765C3.5086 19.1794 2.98061 19.2574 2.61499 19.3311C2.73139 19.7102 2.95263 20.2703 3.38927 20.8409C3.75939 21.3244 4.3846 22.1383 5.47891 22.3433Z" fill="#D6C678"/>
<path d="M22.2654 4.09718C22.4366 4.01172 23.0293 3.6859 23.2343 2.96347C23.4305 2.26764 23.1459 1.62637 22.9777 1.24443C22.7787 0.794817 22.5234 0.471933 22.3407 0.271476C22.1946 0.454137 21.9986 0.726959 21.8141 1.08817C21.5989 1.51275 21.3984 1.90936 21.3953 2.3752C21.3923 3.22885 22.0604 3.90416 22.2654 4.09718Z" fill="#D6C678"/>
<path d="M22.2654 4.09718C22.4366 4.01172 23.0293 3.6859 23.2343 2.96347C23.4305 2.26764 23.1459 1.62637 22.9777 1.24443C22.7787 0.794817 22.5234 0.471933 22.3407 0.271476C22.1946 0.454137 21.9986 0.726959 21.8141 1.08817C21.5989 1.51275 21.3984 1.90936 21.3953 2.3752C21.3923 3.22885 22.0604 3.90416 22.2654 4.09718Z" fill="#D6C678"/>
<path d="M22.3747 21.4793C23.0103 21.6031 23.6799 21.6179 24.3568 21.5043C23.8657 18.3891 20.9781 16.2838 17.9033 16.7983C18.2854 19.2265 20.1272 21.0414 22.3747 21.4793Z" fill="#D6C678"/>
<path d="M22.3747 21.4793C23.0103 21.6031 23.6799 21.6179 24.3568 21.5043C23.8657 18.3891 20.9781 16.2838 17.9033 16.7983C18.2854 19.2265 20.1272 21.0414 22.3747 21.4793Z" fill="#D6C678"/>
<path d="M19.3073 8.79589L21.2834 9.64935L21.4499 9.26467C22.3171 7.26108 21.394 4.93323 19.3882 4.06627L17.4122 3.21124L17.2456 3.59594C16.3784 5.6011 17.3015 7.92894 19.3073 8.79589Z" fill="#D6C678"/>
<path d="M19.3073 8.79589L21.2834 9.64935L21.4499 9.26467C22.3171 7.26108 21.394 4.93323 19.3882 4.06627L17.4122 3.21124L17.2456 3.59594C16.3784 5.6011 17.3015 7.92894 19.3073 8.79589Z" fill="#D6C678"/>
<path d="M13.7032 8.48179C14.1854 9.18642 15.1205 9.36048 15.3993 9.40331C15.4906 9.23512 15.7929 8.62925 15.5497 7.92012C15.3152 7.23602 14.7164 6.86894 14.3595 6.65225C13.9407 6.39566 13.5469 6.2748 13.283 6.21437C13.2668 6.44729 13.2609 6.78348 13.3155 7.18596C13.3803 7.65767 13.4407 8.09847 13.7032 8.48179Z" fill="#D6C678"/>
<path d="M13.7032 8.48179C14.1854 9.18642 15.1205 9.36048 15.3993 9.40331C15.4906 9.23512 15.7929 8.62925 15.5497 7.92012C15.3152 7.23602 14.7164 6.86894 14.3595 6.65225C13.9407 6.39566 13.5469 6.2748 13.283 6.21437C13.2668 6.44729 13.2609 6.78348 13.3155 7.18596C13.3803 7.65767 13.4407 8.09847 13.7032 8.48179Z" fill="#D6C678"/>
<path d="M25.6161 9.54334L26.8327 10.245C27.9254 8.35351 27.2765 5.9357 25.3845 4.84325L24.1679 4.13999C23.8081 4.76209 23.637 5.44326 23.637 6.11405C23.637 7.48069 24.3463 8.81055 25.6161 9.54334Z" fill="#D6C678"/>
<path d="M25.6161 9.54334L26.8327 10.245C27.9254 8.35351 27.2765 5.9357 25.3845 4.84325L24.1679 4.13999C23.8081 4.76209 23.637 5.44326 23.637 6.11405C23.637 7.48069 24.3463 8.81055 25.6161 9.54334Z" fill="#D6C678"/>
<path d="M13.0854 25.8639C13.2727 26.0423 13.5557 26.2856 13.9452 26.5228C14.4008 26.803 14.8271 27.0639 15.3639 27.111C16.3504 27.1981 17.2381 26.5228 17.4948 26.3151C17.424 26.1174 17.1423 25.4303 16.3416 25.1341C15.5689 24.8511 14.7813 25.1031 14.3124 25.252C13.7607 25.429 13.3464 25.6811 13.0854 25.8639Z" fill="#D6C678"/>
<path d="M13.0854 25.8639C13.2727 26.0423 13.5557 26.2856 13.9452 26.5228C14.4008 26.803 14.8271 27.0639 15.3639 27.111C16.3504 27.1981 17.2381 26.5228 17.4948 26.3151C17.424 26.1174 17.1423 25.4303 16.3416 25.1341C15.5689 24.8511 14.7813 25.1031 14.3124 25.252C13.7607 25.429 13.3464 25.6811 13.0854 25.8639Z" fill="#D6C678"/>
<path d="M11.1093 23.6215C12.4984 24.5325 14.0749 23.8175 14.5366 23.5846C14.5188 23.1291 14.4083 21.516 13.376 20.3176C12.3804 19.1616 11.1298 19.091 10.3882 19.0482C9.51358 18.9965 8.80424 19.2015 8.34863 19.3798C8.54171 19.884 8.84708 20.5918 9.30856 21.3672C9.84828 22.2754 10.3512 23.1246 11.1093 23.6215Z" fill="#D6C678"/>
<path d="M11.1093 23.6215C12.4984 24.5325 14.0749 23.8175 14.5366 23.5846C14.5188 23.1291 14.4083 21.516 13.376 20.3176C12.3804 19.1616 11.1298 19.091 10.3882 19.0482C9.51358 18.9965 8.80424 19.2015 8.34863 19.3798C8.54171 19.884 8.84708 20.5918 9.30856 21.3672C9.84828 22.2754 10.3512 23.1246 11.1093 23.6215Z" fill="#D6C678"/>
<path d="M11.0298 17.7183C11.4337 17.9054 11.8717 18.0382 12.3318 18.0987C12.3864 16.2279 10.7406 14.4926 8.65391 14.2184C8.61127 15.6764 9.60366 17.0533 11.0298 17.7183Z" fill="#D6C678"/>
<path d="M11.0298 17.7183C11.4337 17.9054 11.8717 18.0382 12.3318 18.0987C12.3864 16.2279 10.7406 14.4926 8.65391 14.2184C8.61127 15.6764 9.60366 17.0533 11.0298 17.7183Z" fill="#D6C678"/>
<path d="M7.99895 27.8616C9.33056 28.1196 10.5798 27.5151 10.9263 27.3352C10.9028 26.8914 10.7641 25.4127 9.49293 24.767C8.80121 24.4146 7.95318 24.4013 7.04627 24.3866C6.27199 24.3749 5.61586 24.447 5.15869 24.5178C5.21914 24.9336 5.36958 25.5485 5.77961 26.178C6.12762 26.7131 6.71292 27.6125 7.99895 27.8616Z" fill="#D6C678"/>
<path d="M7.99895 27.8616C9.33056 28.1196 10.5798 27.5151 10.9263 27.3352C10.9028 26.8914 10.7641 25.4127 9.49293 24.767C8.80121 24.4146 7.95318 24.4013 7.04627 24.3866C6.27199 24.3749 5.61586 24.447 5.15869 24.5178C5.21914 24.9336 5.36958 25.5485 5.77961 26.178C6.12762 26.7131 6.71292 27.6125 7.99895 27.8616Z" fill="#D6C678"/>
<path d="M16.1838 15.7679H16.4508V15.215C16.4508 12.0525 13.8878 9.49014 10.7244 9.49014H10.4575V10.043C10.4575 13.2055 13.022 15.7679 16.1838 15.7679Z" fill="#D6C678"/>
<path d="M16.1838 15.7679H16.4508V15.215C16.4508 12.0525 13.8878 9.49014 10.7244 9.49014H10.4575V10.043C10.4575 13.2055 13.022 15.7679 16.1838 15.7679Z" fill="#D6C678"/>
<path d="M5.27979 16.443C5.87116 17.2376 6.96547 17.4515 7.29275 17.5045C7.39311 17.3203 7.71902 16.6525 7.40641 15.8577C7.10398 15.0926 6.39171 14.6723 5.96701 14.4218C5.46856 14.1285 5.00552 13.9869 4.69428 13.9131C4.68548 14.1711 4.69292 14.5456 4.77391 14.9938C4.86976 15.5201 4.95838 16.011 5.27979 16.443Z" fill="#D6C678"/>
<path d="M5.27979 16.443C5.87116 17.2376 6.96547 17.4515 7.29275 17.5045C7.39311 17.3203 7.71902 16.6525 7.40641 15.8577C7.10398 15.0926 6.39171 14.6723 5.96701 14.4218C5.46856 14.1285 5.00552 13.9869 4.69428 13.9131C4.68548 14.1711 4.69292 14.5456 4.77391 14.9938C4.86976 15.5201 4.95838 16.011 5.27979 16.443Z" fill="#D6C678"/>
<path d="M18.592 13.2586L20.8143 14.2184C21.4943 12.6466 20.7701 10.82 19.1967 10.1404L16.9756 9.18059C16.8016 9.5817 16.7205 9.99884 16.7205 10.4101C16.7205 11.6103 17.4196 12.7528 18.592 13.2586Z" fill="#D6C678"/>
<path d="M18.592 13.2586L20.8143 14.2184C21.4943 12.6466 20.7701 10.82 19.1967 10.1404L16.9756 9.18059C16.8016 9.5817 16.7205 9.99884 16.7205 10.4101C16.7205 11.6103 17.4196 12.7528 18.592 13.2586Z" fill="#D6C678"/>
<path d="M4.52905 30.244L5.78985 30.7335C6.78968 31.1227 7.91648 30.6258 8.3044 29.6262L7.04341 29.1367C6.04358 28.7475 4.91678 29.2445 4.52905 30.244Z" fill="#D6C678"/>
<path d="M4.52905 30.244L5.78985 30.7335C6.78968 31.1227 7.91648 30.6258 8.3044 29.6262L7.04341 29.1367C6.04358 28.7475 4.91678 29.2445 4.52905 30.244Z" fill="#D6C678"/>
<path d="M98 3.07683C97.3449 3.23827 96.8714 3.399 96.5794 3.56009C96.291 3.72152 96.0596 3.92289 95.8887 4.16452C95.7179 4.40615 95.5897 4.76894 95.5078 5.25255C95.4259 5.73581 95.3867 6.48348 95.3867 7.49412V26.5055C95.3867 27.4875 95.4188 28.2054 95.4864 28.6595C95.5541 29.1137 95.6644 29.4727 95.8211 29.7364C95.9777 30.0001 96.2092 30.22 96.5153 30.3958C96.818 30.5716 97.3129 30.7474 98 30.9232V32H88.6827V30.9232C89.53 30.718 90.1175 30.4837 90.4486 30.22C90.7761 29.9563 90.9969 29.5679 91.1179 29.0549C91.2354 28.5422 91.296 27.6923 91.296 26.5055V18.088C91.296 15.8759 91.328 13.6371 91.3956 11.3735C91.4633 9.10954 91.5416 7.56031 91.6306 6.72511H91.2496L82.4023 28.5055H79.8318L71.611 6.37316H71.2301C71.3048 7.26719 71.376 8.88681 71.4437 11.2306C71.5078 13.5751 71.5434 15.9855 71.5434 18.4617V26.5055C71.5434 27.4875 71.5754 28.2054 71.6431 28.6595C71.7107 29.1137 71.8211 29.4727 71.9777 29.7364C72.1344 30.0001 72.3658 30.22 72.672 30.3958C72.9782 30.5716 73.4731 30.7474 74.1566 30.9232V32H66V30.9232C66.9257 30.6889 67.5452 30.4287 67.8549 30.1429C68.1682 29.8572 68.3747 29.4506 68.4708 28.9232C68.567 28.3959 68.6168 27.5901 68.6168 26.5055V7.49412C68.6168 6.48348 68.5777 5.74702 68.5029 5.28547C68.4281 4.82392 68.3071 4.46497 68.1362 4.20864C67.9653 3.9523 67.7374 3.74709 67.4526 3.59336C67.1713 3.43928 66.6871 3.26733 66 3.07683V2H73.9786L81.822 23.3846L90.4486 2H98V3.07683Z" fill="white"/>
<path d="M109.094 21.2561C109.094 24.1724 109.567 26.4122 110.513 27.9763C111.459 29.5407 112.812 30.3226 114.576 30.3226C115.543 30.3226 116.364 30.0928 117.044 29.6324C117.724 29.1729 118.277 28.5535 118.701 27.7746C119.129 26.9965 119.436 26.0938 119.623 25.0673C119.809 24.0412 119.906 22.9687 119.906 21.8505C119.906 19.7695 119.668 18.0426 119.202 16.6694C118.732 15.2964 118.09 14.2879 117.282 13.6437C116.475 12.9995 115.549 12.6774 114.51 12.6774C112.76 12.6774 111.421 13.4207 110.492 14.907C109.56 16.3933 109.094 18.5099 109.094 21.2561ZM114.248 32C111.245 32 108.953 31.1332 107.372 29.3989C105.791 27.6653 105 25.0991 105 21.702C105 19.3658 105.414 17.391 106.243 15.7775C107.075 14.1637 108.21 12.964 109.657 12.1784C111.1 11.3928 112.746 11 114.597 11C117.686 11 120.027 11.8813 121.615 13.6437C123.203 15.4057 124 17.9361 124 21.2348C124 23.5848 123.603 25.5664 122.806 27.1802C122.012 28.7937 120.886 30.0008 119.426 30.8006C117.969 31.6004 116.243 32 114.248 32Z" fill="white"/>
<path d="M135.39 3V7.1737H130.857V3H135.39ZM128.345 30.9459C128.985 30.7739 129.44 30.623 129.711 30.4942C129.982 30.3649 130.213 30.186 130.402 29.9563C130.59 29.7274 130.735 29.3757 130.845 28.9023C130.951 28.4289 131.006 27.6902 131.006 26.6862V17.3063C131.006 16.3887 130.987 15.65 130.955 15.0906C130.924 14.5312 130.806 14.0835 130.61 13.7462C130.414 13.4089 130.115 13.158 129.711 12.9931C129.311 12.8282 128.738 12.6887 128 12.5735V11.4334L133.738 11.2398H135.241V26.6218C135.241 27.8554 135.308 28.712 135.437 29.1926C135.571 29.6735 135.822 30.039 136.191 30.2899C136.56 30.5408 137.164 30.7598 138 30.9459V32H128.345V30.9459Z" fill="white"/>
<path d="M139 12.3347C139.8 12.2209 140.444 12.0221 140.94 11.7376C141.431 11.4532 141.82 11.0868 142.098 10.6389C142.376 10.191 142.597 9.62957 142.757 8.9543C142.917 8.27868 143.085 7.29414 143.26 6H146.655V11.2683H154.379V13.4223H146.655V22.9139C146.655 24.2933 146.72 25.3917 146.846 26.2093C146.971 27.027 147.211 27.667 147.562 28.1288C147.913 28.5913 148.313 28.9217 148.758 29.1208C149.204 29.32 149.78 29.4192 150.481 29.4192C151.117 29.4192 151.715 29.3023 152.276 29.0675C152.832 28.833 153.381 28.4952 153.925 28.054L155 29.2061C153.868 30.1873 152.798 30.8986 151.784 31.3387C150.77 31.7794 149.723 32 148.64 32C146.583 32 145.051 31.4562 144.049 30.3684C143.043 29.2809 142.54 27.5779 142.54 25.2602V13.4223H139V12.3347Z" fill="white"/>
<path d="M170.38 21.9777C167.245 22.0061 164.9 22.3888 163.343 23.1243C161.783 23.8605 161.005 24.9719 161.005 26.4582C161.005 27.2651 161.182 27.9018 161.536 28.3691C161.89 28.8363 162.34 29.1584 162.879 29.3353C163.421 29.5126 164.059 29.6006 164.8 29.6006C165.851 29.6006 166.803 29.3675 167.658 28.9002C168.514 28.433 169.181 27.8386 169.661 27.1166C170.14 26.3942 170.38 25.68 170.38 24.9719V21.9777ZM170.771 28.6242L170.424 28.5389C169.082 29.7992 167.821 30.691 166.64 31.2144C165.46 31.7378 164.206 32 162.879 32C161.706 32 160.673 31.7913 159.777 31.3738C158.881 30.9563 158.195 30.3689 157.719 29.6111C157.24 28.8542 157 27.98 157 26.9887C157 24.9222 158.114 23.326 160.345 22.2007C162.573 21.0751 165.918 20.4207 170.38 20.2363V18.8566C170.38 17.3842 170.225 16.2234 169.915 15.3742C169.606 14.5247 169.122 13.9018 168.459 13.5053C167.795 13.1091 166.906 12.9109 165.796 12.9109C164.594 12.9109 163.624 13.2012 162.89 13.7817C162.159 14.362 161.606 15.2325 161.234 16.3933H158.202V13.6332C159.685 12.9251 160.92 12.4051 161.909 12.0722C162.893 11.7396 163.882 11.4774 164.87 11.2866C165.859 11.0954 166.862 11 167.88 11C169.406 11 170.635 11.223 171.56 11.6689C172.486 12.1148 173.179 12.7979 173.644 13.7178C174.105 14.638 174.337 16.0252 174.337 17.8796V25.269C174.337 26.3168 174.345 27.0564 174.359 27.4881C174.374 27.9198 174.422 28.3197 174.5 28.6878C174.577 29.0559 174.691 29.3495 174.846 29.5691C175.001 29.7887 175.23 29.9758 175.528 30.1318C175.831 30.2877 176.318 30.4501 177 30.62V31.6603H170.657L170.771 28.6242Z" fill="white"/>
<mask id="mask0_10_56" style="mask-type:luminance" maskUnits="userSpaceOnUse" x="89" y="40" width="11" height="12">
<path d="M98.2639 40.6616H99.9785V51.8729H98.2639V46.8478H91.6397V51.8729H89.925V40.6616H91.6397V45.5124H98.2639V40.6616Z" fill="white"/>
</mask>
<g mask="url(#mask0_10_56)">
<path d="M98.2945 41H100V52H98.2945V47.0696H91.7055V52H90V41H91.7055V45.7593H98.2945V41Z" fill="white"/>
</g>
<mask id="mask1_10_56" style="mask-type:luminance" maskUnits="userSpaceOnUse" x="104" y="40" width="12" height="12">
<path d="M113.13 49.5193C113.789 48.7558 114.121 47.6695 114.121 46.2595C114.121 44.8495 113.793 43.7655 113.137 43.0075C112.482 42.2498 111.556 41.8703 110.356 41.8703C109.178 41.8703 108.26 42.2498 107.604 43.0075C106.949 43.7655 106.621 44.8495 106.621 46.2595C106.621 47.6695 106.949 48.7558 107.604 49.5193C108.26 50.2827 109.178 50.6643 110.356 50.6643C111.541 50.6643 112.467 50.2827 113.13 49.5193ZM107.439 51.3006C106.614 50.8342 105.976 50.1717 105.53 49.3128C105.079 48.4537 104.856 47.4416 104.856 46.2751C104.856 45.0988 105.079 44.0782 105.519 43.2143C105.962 42.3503 106.599 41.6877 107.428 41.2265C108.26 40.7656 109.233 40.5346 110.356 40.5346C111.487 40.5346 112.467 40.7656 113.296 41.2265C114.128 41.6877 114.762 42.3503 115.205 43.2143C115.648 44.0782 115.871 45.0937 115.871 46.2595C115.871 47.4259 115.648 48.4411 115.205 49.3047C114.762 50.1689 114.128 50.8342 113.296 51.3006C112.467 51.767 111.487 52 110.356 52C109.233 52 108.26 51.767 107.439 51.3006Z" fill="white"/>
</mask>
<g mask="url(#mask1_10_56)">
<path d="M113.263 49.62C113.921 48.8875 114.252 47.8453 114.252 46.4925C114.252 45.1397 113.924 44.0997 113.27 43.3725C112.615 42.6456 111.691 42.2815 110.493 42.2815C109.317 42.2815 108.399 42.6456 107.745 43.3725C107.09 44.0997 106.763 45.1397 106.763 46.4925C106.763 47.8453 107.09 48.8875 107.745 49.62C108.399 50.3524 109.317 50.7185 110.493 50.7185C111.676 50.7185 112.601 50.3524 113.263 49.62ZM107.579 51.329C106.755 50.8816 106.119 50.2459 105.673 49.4219C105.223 48.5976 105 47.6266 105 46.5075C105 45.379 105.223 44.3998 105.662 43.5709C106.104 42.742 106.741 42.1063 107.568 41.6638C108.399 41.2216 109.371 41 110.493 41C111.622 41 112.601 41.2216 113.428 41.6638C114.259 42.1063 114.892 42.742 115.335 43.5709C115.777 44.3998 116 45.374 116 46.4925C116 47.6116 115.777 48.5855 115.335 49.4141C114.892 50.2433 114.259 50.8816 113.428 51.329C112.601 51.7764 111.622 52 110.493 52C109.371 52 108.399 51.7764 107.579 51.329Z" fill="white"/>
</g>
<mask id="mask2_10_56" style="mask-type:luminance" maskUnits="userSpaceOnUse" x="118" y="40" width="11" height="12">
<path d="M122.848 51.8729V42.0294H118.846V40.6616H128.615V42.0294H124.595V51.8729H122.848Z" fill="white"/>
</mask>
<g mask="url(#mask2_10_56)">
<path d="M123.097 52V42.342H119V41H129V42.342H124.885V52H123.097Z" fill="white"/>
</g>
<mask id="mask3_10_56" style="mask-type:luminance" maskUnits="userSpaceOnUse" x="132" y="40" width="9" height="12">
<path d="M132.718 51.8729V40.6616H140.419V41.9817H134.414V45.5124H140.084V46.8478H134.414V50.5528H140.419V51.8729H132.718Z" fill="white"/>
</mask>
<g mask="url(#mask3_10_56)">
<path d="M133 52V41H140V42.2952H134.542V45.7593H139.695V47.0696H134.542V50.7048H140V52H133Z" fill="white"/>
</g>
<mask id="mask4_10_56" style="mask-type:luminance" maskUnits="userSpaceOnUse" x="145" y="40" width="8" height="12">
<path d="M145.077 51.8729V40.6616H146.809V50.5051H152.558V51.8729H145.077Z" fill="white"/>
</mask>
<g mask="url(#mask4_10_56)">
<path d="M145 52V41H146.853V50.658H153V52H145Z" fill="white"/>
</g>
</svg>
