<svg width="189" height="63" viewBox="0 0 189 63" fill="none" xmlns="http://www.w3.org/2000/svg">
<path d="M43.7571 61.499C41.4978 60.7417 39.7179 59.7719 38.4655 58.984C38.2278 59.5099 37.8944 60.1275 37.4245 60.7705C36.7137 61.7432 35.9456 62.4248 35.3425 62.8779C47.8875 63.0743 50.9533 63.0033 50.9572 62.8779C50.9613 62.7492 47.7455 62.8355 43.7571 61.499Z" fill="#D6C678"/>
<path d="M43.7571 61.499C41.4978 60.7417 39.7179 59.7719 38.4655 58.984C38.2278 59.5099 37.8944 60.1275 37.4245 60.7705C36.7137 61.7432 35.9456 62.4248 35.3425 62.8779C47.8875 63.0743 50.9533 63.0033 50.9572 62.8779C50.9613 62.7492 47.7455 62.8355 43.7571 61.499Z" fill="#D6C678"/>
<path d="M37.5808 58.2381C37.2322 57.8968 36.8497 57.4773 36.4704 56.972C36.1244 56.5112 35.8485 56.0688 35.6288 55.671C35.389 56.6018 34.8679 58.128 33.6771 59.6777C32.2884 61.4849 30.6731 62.433 29.7734 62.8779C30.7277 62.8779 31.6819 62.8779 32.6362 62.8779C33.2771 62.6912 34.3442 62.2889 35.3947 61.3949C36.7492 60.2423 37.3405 58.8985 37.5808 58.2381Z" fill="#D6C678"/>
<path d="M37.5808 58.2381C37.2322 57.8968 36.8497 57.4773 36.4704 56.972C36.1244 56.5112 35.8485 56.0688 35.6288 55.671C35.389 56.6018 34.8679 58.128 33.6771 59.6777C32.2884 61.4849 30.6731 62.433 29.7734 62.8779C30.7277 62.8779 31.6819 62.8779 32.6362 62.8779C33.2771 62.6912 34.3442 62.2889 35.3947 61.3949C36.7492 60.2423 37.3405 58.8985 37.5808 58.2381Z" fill="#D6C678"/>
<path d="M53.5703 38.736C45.3754 35.2443 35.0891 44.4955 33.9035 45.5619C32.6896 46.6536 33.1448 46.4375 29.1862 50.4148C24.4654 55.1581 22.0616 57.5595 19.899 58.966C17.7019 60.3948 14.1224 62.1977 8.77148 62.8779C11.5388 62.8779 14.3061 62.8779 17.0734 62.8779C19.5439 62.0227 21.3972 60.9244 22.6395 60.0643C23.6248 59.382 26.1757 57.5831 28.3159 54.5221C29.0577 53.4611 29.2662 52.9407 30.1895 51.8379C31.4865 50.2894 32.8103 49.2435 33.7421 48.5944C33.1538 49.2018 32.2465 50.1789 31.2307 51.4564C28.6547 54.6958 28.1312 56.4101 26.4768 58.3943C25.3756 59.7148 23.5125 61.4679 20.3004 62.8779C21.4454 62.8779 22.5905 62.8779 23.7355 62.8779C25.0263 62.3698 26.577 61.5643 28.0383 60.2327C30.8382 57.6817 31.035 55.9691 33.5208 52.3409C34.718 50.5937 38.1882 45.7988 43.9683 43.2687C46.1841 42.2989 48.6535 41.2616 51.3245 42.2281C53.3938 42.9769 55.9037 45.0441 55.8325 47.6752C55.7458 50.8753 51.858 53.501 49.0314 53.0694C48.0715 52.9227 46.9156 52.6532 45.6655 52.15C43.1745 51.1476 41.4586 49.6804 40.4434 48.6464C39.281 49.6004 38.1184 50.5544 36.956 51.5084C38.8308 53.2261 42.0692 55.6566 46.6372 56.7291C47.9035 57.0265 48.8297 57.2993 50.0723 57.2321C54.5819 56.9882 59.9312 52.8918 59.9993 47.7091C60.0531 43.6203 56.8036 40.1136 53.5703 38.736Z" fill="#D6C678"/>
<path d="M53.5703 38.736C45.3754 35.2443 35.0891 44.4955 33.9035 45.5619C32.6896 46.6536 33.1448 46.4375 29.1862 50.4148C24.4654 55.1581 22.0616 57.5595 19.899 58.966C17.7019 60.3948 14.1224 62.1977 8.77148 62.8779C11.5388 62.8779 14.3061 62.8779 17.0734 62.8779C19.5439 62.0227 21.3972 60.9244 22.6395 60.0643C23.6248 59.382 26.1757 57.5831 28.3159 54.5221C29.0577 53.4611 29.2662 52.9407 30.1895 51.8379C31.4865 50.2894 32.8103 49.2435 33.7421 48.5944C33.1538 49.2018 32.2465 50.1789 31.2307 51.4564C28.6547 54.6958 28.1312 56.4101 26.4768 58.3943C25.3756 59.7148 23.5125 61.4679 20.3004 62.8779C21.4454 62.8779 22.5905 62.8779 23.7355 62.8779C25.0263 62.3698 26.577 61.5643 28.0383 60.2327C30.8382 57.6817 31.035 55.9691 33.5208 52.3409C34.718 50.5937 38.1882 45.7988 43.9683 43.2687C46.1841 42.2989 48.6535 41.2616 51.3245 42.2281C53.3938 42.9769 55.9037 45.0441 55.8325 47.6752C55.7458 50.8753 51.858 53.501 49.0314 53.0694C48.0715 52.9227 46.9156 52.6532 45.6655 52.15C43.1745 51.1476 41.4586 49.6804 40.4434 48.6464C39.281 49.6004 38.1184 50.5544 36.956 51.5084C38.8308 53.2261 42.0692 55.6566 46.6372 56.7291C47.9035 57.0265 48.8297 57.2993 50.0723 57.2321C54.5819 56.9882 59.9312 52.8918 59.9993 47.7091C60.0531 43.6203 56.8036 40.1136 53.5703 38.736Z" fill="#D6C678"/>
<path d="M13.0655 57.024C14.7602 56.5745 16.0014 55.8533 16.9172 55.2548C17.9622 54.5719 27.3177 48.3308 30.8937 39.7612C31.7407 37.7312 32.3791 36.9438 33.3474 35.1868C33.8462 34.2815 34.749 32.6869 36.5398 31.5532C37.8422 30.7286 39.1386 30.4494 39.5497 30.3706C39.9722 30.2896 40.9953 30.1261 42.2911 30.2782C42.762 30.3336 43.1544 30.4171 43.4422 30.4893C43.7344 30.631 44.1818 30.8567 44.7114 31.163C45.6907 31.729 46.3329 32.2126 46.5072 32.3337C47.2148 32.8259 48.616 33.1912 51.6859 32.5157C51.2348 31.9867 50.7837 31.4577 50.3328 30.9287C50.0431 30.476 49.6421 29.9833 49.0875 29.5464C46.8767 27.8057 44.0369 28.3806 43.4623 28.5091C42.0663 28.2248 39.5056 27.9205 36.7479 28.9775C34.6477 29.7825 33.2848 31.0505 32.1557 32.229C27.7956 36.7791 27.9175 38.9535 24.1877 43.7298C23.8937 44.1065 20.1033 49.2626 13.5861 52.2368C11.8771 53.0168 10.7094 53.3152 9.41303 53.1681C6.95541 52.8891 3.85594 50.9879 3.5406 47.9699C3.25714 45.2558 5.36264 42.9517 7.25628 42.02C10.5345 40.4071 15.3066 41.8592 18.5307 45.9927L22.0701 42.8707C16.4821 37.6302 9.23383 36.4328 4.61926 39.4181C4.41112 39.5529 0.0829478 42.4537 0.00117707 47.4497C-0.0790287 52.3618 3.95337 56.6586 7.91279 57.2841C9.00359 57.4564 10.8724 57.6056 13.0655 57.024Z" fill="#D6C678"/>
<path d="M13.0655 57.024C14.7602 56.5745 16.0014 55.8533 16.9172 55.2548C17.9622 54.5719 27.3177 48.3308 30.8937 39.7612C31.7407 37.7312 32.3791 36.9438 33.3474 35.1868C33.8462 34.2815 34.749 32.6869 36.5398 31.5532C37.8422 30.7286 39.1386 30.4494 39.5497 30.3706C39.9722 30.2896 40.9953 30.1261 42.2911 30.2782C42.762 30.3336 43.1544 30.4171 43.4422 30.4893C43.7344 30.631 44.1818 30.8567 44.7114 31.163C45.6907 31.729 46.3329 32.2126 46.5072 32.3337C47.2148 32.8259 48.616 33.1912 51.6859 32.5157C51.2348 31.9867 50.7837 31.4577 50.3328 30.9287C50.0431 30.476 49.6421 29.9833 49.0875 29.5464C46.8767 27.8057 44.0369 28.3806 43.4623 28.5091C42.0663 28.2248 39.5056 27.9205 36.7479 28.9775C34.6477 29.7825 33.2848 31.0505 32.1557 32.229C27.7956 36.7791 27.9175 38.9535 24.1877 43.7298C23.8937 44.1065 20.1033 49.2626 13.5861 52.2368C11.8771 53.0168 10.7094 53.3152 9.41303 53.1681C6.95541 52.8891 3.85594 50.9879 3.5406 47.9699C3.25714 45.2558 5.36264 42.9517 7.25628 42.02C10.5345 40.4071 15.3066 41.8592 18.5307 45.9927L22.0701 42.8707C16.4821 37.6302 9.23383 36.4328 4.61926 39.4181C4.41112 39.5529 0.0829478 42.4537 0.00117707 47.4497C-0.0790287 52.3618 3.95337 56.6586 7.91279 57.2841C9.00359 57.4564 10.8724 57.6056 13.0655 57.024Z" fill="#D6C678"/>
<path d="M22.6253 10.5573C22.4045 11.1474 21.9753 12.5385 22.3131 14.269C22.7073 16.2891 23.9034 17.5266 24.3486 17.9461C25.0575 18.5496 25.9961 19.4966 26.7892 20.8601C28.0776 23.0753 28.2877 25.1964 28.316 26.3064C28.3202 27.4136 28.2746 28.7773 28.1079 30.3303C27.9338 31.9513 27.6918 33.1818 27.596 33.6491C27.2857 35.1606 26.7638 37.1609 25.8414 39.4537C26.4895 38.7909 27.2513 37.8966 27.969 36.748C28.6903 35.5934 29.1613 34.5113 29.473 33.6352C30.1318 30.3365 30.7907 27.0379 31.4495 23.7394C31.7688 22.7184 32.2921 21.4229 33.174 20.0624C33.7047 19.2433 34.2589 18.5651 34.7701 18.0155C35.1414 17.7586 36.8609 16.5093 37.3032 14.165C37.6283 12.442 37.0857 11.0695 36.8521 10.5573C36.4505 10.8413 35.8681 11.2649 35.1865 11.8062C33.6302 13.042 32.852 13.66 32.3066 14.4425C31.8997 15.0263 31.127 16.4013 31.3466 18.8481C31.0209 19.5024 30.6841 20.2916 30.3981 21.207C30.0876 22.2005 29.9102 23.1081 29.8081 23.8781C29.2993 22.2476 28.7902 20.6174 28.2814 18.9869C28.2851 18.135 28.1983 14.986 25.8631 12.9132C25.3637 12.4698 24.842 12.1471 24.3486 11.9103C24.1168 11.836 23.7938 11.7032 23.4581 11.4593C23.0274 11.1462 22.7678 10.7893 22.6253 10.5573Z" fill="#D6C678"/>
<path d="M22.6253 10.5573C22.4045 11.1474 21.9753 12.5385 22.3131 14.269C22.7073 16.2891 23.9034 17.5266 24.3486 17.9461C25.0575 18.5496 25.9961 19.4966 26.7892 20.8601C28.0776 23.0753 28.2877 25.1964 28.316 26.3064C28.3202 27.4136 28.2746 28.7773 28.1079 30.3303C27.9338 31.9513 27.6918 33.1818 27.596 33.6491C27.2857 35.1606 26.7638 37.1609 25.8414 39.4537C26.4895 38.7909 27.2513 37.8966 27.969 36.748C28.6903 35.5934 29.1613 34.5113 29.473 33.6352C30.1318 30.3365 30.7907 27.0379 31.4495 23.7394C31.7688 22.7184 32.2921 21.4229 33.174 20.0624C33.7047 19.2433 34.2589 18.5651 34.7701 18.0155C35.1414 17.7586 36.8609 16.5093 37.3032 14.165C37.6283 12.442 37.0857 11.0695 36.8521 10.5573C36.4505 10.8413 35.8681 11.2649 35.1865 11.8062C33.6302 13.042 32.852 13.66 32.3066 14.4425C31.8997 15.0263 31.127 16.4013 31.3466 18.8481C31.0209 19.5024 30.6841 20.2916 30.3981 21.207C30.0876 22.2005 29.9102 23.1081 29.8081 23.8781C29.2993 22.2476 28.7902 20.6174 28.2814 18.9869C28.2851 18.135 28.1983 14.986 25.8631 12.9132C25.3637 12.4698 24.842 12.1471 24.3486 11.9103C24.1168 11.836 23.7938 11.7032 23.4581 11.4593C23.0274 11.1462 22.7678 10.7893 22.6253 10.5573Z" fill="#D6C678"/>
<path d="M26.2342 33.7646C27.6435 30.5509 27.0122 26.8537 24.6725 24.4679C21.6486 21.3842 17.3963 22.1493 17.0735 22.213C17.2093 22.6824 17.7551 24.3557 19.4677 25.5085C20.986 26.5306 22.5187 26.5359 23.0418 26.5146C22.6014 26.381 21.8438 26.0888 21.0985 25.4391C20.295 24.7388 19.895 23.962 19.7105 23.5312C20.3332 23.6305 21.6182 23.9272 22.7988 24.9535C24.8417 26.7293 24.9239 29.2568 24.9309 29.6945C24.1025 29.2547 22.9755 28.7741 21.5844 28.4919C18.8811 27.9434 16.6244 28.4362 15.4078 28.8041C13.2025 28.0992 11.8703 28.6904 11.4521 28.9081C10.7077 29.2955 10.1255 29.9213 9.19672 30.9201C8.6341 31.525 8.20432 32.0624 7.91284 32.4465C9.89784 33.3606 11.1119 33.2057 11.8605 32.8801C12.564 32.5742 13.0104 32.0505 14.5056 31.3363C15.1245 31.041 15.6595 30.8386 15.9283 30.7466C18.8298 29.7547 21.9911 30.9344 22.3131 31.0588C24.2425 31.8053 25.5237 32.9841 26.2342 33.7646Z" fill="#D6C678"/>
<path d="M26.2342 33.7646C27.6435 30.5509 27.0122 26.8537 24.6725 24.4679C21.6486 21.3842 17.3963 22.1493 17.0735 22.213C17.2093 22.6824 17.7551 24.3557 19.4677 25.5085C20.986 26.5306 22.5187 26.5359 23.0418 26.5146C22.6014 26.381 21.8438 26.0888 21.0985 25.4391C20.295 24.7388 19.895 23.962 19.7105 23.5312C20.3332 23.6305 21.6182 23.9272 22.7988 24.9535C24.8417 26.7293 24.9239 29.2568 24.9309 29.6945C24.1025 29.2547 22.9755 28.7741 21.5844 28.4919C18.8811 27.9434 16.6244 28.4362 15.4078 28.8041C13.2025 28.0992 11.8703 28.6904 11.4521 28.9081C10.7077 29.2955 10.1255 29.9213 9.19672 30.9201C8.6341 31.525 8.20432 32.0624 7.91284 32.4465C9.89784 33.3606 11.1119 33.2057 11.8605 32.8801C12.564 32.5742 13.0104 32.0505 14.5056 31.3363C15.1245 31.041 15.6595 30.8386 15.9283 30.7466C18.8298 29.7547 21.9911 30.9344 22.3131 31.0588C24.2425 31.8053 25.5237 32.9841 26.2342 33.7646Z" fill="#D6C678"/>
<path d="M38.2574 25.4911C37.6686 26.0024 37.0889 26.327 36.6439 26.532C37.1439 26.5844 38.6907 26.6824 40.2614 25.7252C42.0742 24.6207 42.6546 22.8809 42.7857 22.4471C42.5204 22.3589 38.8552 21.2092 35.7591 23.67C32.4661 26.2871 33.0047 30.4547 33.0303 30.6291C33.2692 30.4077 33.5448 30.174 33.8592 29.9401C34.1593 29.717 34.4488 29.5277 34.718 29.3677C34.7317 28.8618 34.84 27.1787 36.1233 25.6472C37.5089 23.9939 39.3208 23.6426 39.7928 23.566C39.5233 24.0686 39.0491 24.8037 38.2574 25.4911Z" fill="#D6C678"/>
<path d="M38.2574 25.4911C37.6686 26.0024 37.0889 26.327 36.6439 26.532C37.1439 26.5844 38.6907 26.6824 40.2614 25.7252C42.0742 24.6207 42.6546 22.8809 42.7857 22.4471C42.5204 22.3589 38.8552 21.2092 35.7591 23.67C32.4661 26.2871 33.0047 30.4547 33.0303 30.6291C33.2692 30.4077 33.5448 30.174 33.8592 29.9401C34.1593 29.717 34.4488 29.5277 34.718 29.3677C34.7317 28.8618 34.84 27.1787 36.1233 25.6472C37.5089 23.9939 39.3208 23.6426 39.7928 23.566C39.5233 24.0686 39.0491 24.8037 38.2574 25.4911Z" fill="#D6C678"/>
<path d="M16.7091 20.9381C16.7302 20.8746 16.7596 20.7797 16.7889 20.6634C16.9382 20.3798 17.133 19.8539 16.9464 19.2132C16.7163 18.4231 16.0454 17.9395 15.6457 17.652C15.1752 17.3129 14.7269 17.1287 14.4246 17.0283C14.4203 17.0616 14.4162 17.097 14.4125 17.1339C14.3205 17.0962 14.2351 17.0633 14.1588 17.0356C14.0815 17.3497 14.0019 17.8339 14.0676 18.4145C14.1234 18.9077 14.2173 19.7381 14.8875 20.3399C15.5827 20.9641 16.4618 20.9507 16.7091 20.9381Z" fill="#D6C678"/>
<path d="M16.7091 20.9381C16.7302 20.8746 16.7596 20.7797 16.7889 20.6634C16.9382 20.3798 17.133 19.8539 16.9464 19.2132C16.7163 18.4231 16.0454 17.9395 15.6457 17.652C15.1752 17.3129 14.7269 17.1287 14.4246 17.0283C14.4203 17.0616 14.4162 17.097 14.4125 17.1339C14.3205 17.0962 14.2351 17.0633 14.1588 17.0356C14.0815 17.3497 14.0019 17.8339 14.0676 18.4145C14.1234 18.9077 14.2173 19.7381 14.8875 20.3399C15.5827 20.9641 16.4618 20.9507 16.7091 20.9381Z" fill="#D6C678"/>
<path d="M28.8431 10.4396C28.5373 11.0263 28.0228 12.0136 28.3151 13.1772C28.6185 14.3844 29.5999 15.024 29.8824 15.1943C30.2394 14.9187 31.4032 13.9509 31.4437 12.5676C31.4658 11.8141 31.1491 11.1339 30.8099 10.406C30.5205 9.78467 30.2056 9.30612 29.9706 8.98383C29.6514 9.27346 29.203 9.74908 28.8431 10.4396Z" fill="#D6C678"/>
<path d="M28.8431 10.4396C28.5373 11.0263 28.0228 12.0136 28.3151 13.1772C28.6185 14.3844 29.5999 15.024 29.8824 15.1943C30.2394 14.9187 31.4032 13.9509 31.4437 12.5676C31.4658 11.8141 31.1491 11.1339 30.8099 10.406C30.5205 9.78467 30.2056 9.30612 29.9706 8.98383C29.6514 9.27346 29.203 9.74908 28.8431 10.4396Z" fill="#D6C678"/>
<path d="M29.8618 6.83687C30.2548 6.53354 31.5358 5.46809 31.5804 3.9452C31.6048 3.1158 31.256 2.36697 30.8828 1.56572C30.5641 0.881626 30.2175 0.354764 29.9587 3.80316e-06C29.6073 0.31878 29.1138 0.842506 28.7174 1.60268C28.381 2.24845 27.8144 3.33542 28.1364 4.61639C28.4702 5.94547 29.5508 6.64932 29.8618 6.83687Z" fill="#D6C678"/>
<path d="M29.8618 6.83687C30.2548 6.53354 31.5358 5.46809 31.5804 3.9452C31.6048 3.1158 31.256 2.36697 30.8828 1.56572C30.5641 0.881626 30.2175 0.354764 29.9587 3.80316e-06C29.6073 0.31878 29.1138 0.842506 28.7174 1.60268C28.381 2.24845 27.8144 3.33542 28.1364 4.61639C28.4702 5.94547 29.5508 6.64932 29.8618 6.83687Z" fill="#D6C678"/>
<path d="M21.655 36.8147C23.1426 36.8147 24.3486 35.6091 24.3486 34.1218C22.861 34.1218 21.655 35.3274 21.655 36.8147Z" fill="#D6C678"/>
<path d="M21.655 36.8147C23.1426 36.8147 24.3486 35.6091 24.3486 34.1218C22.861 34.1218 21.655 35.3274 21.655 36.8147Z" fill="#D6C678"/>
<path d="M17.5324 34.8952L17.4456 35.6102L18.1608 35.6971C19.6375 35.8764 20.9801 34.8248 21.1595 33.3485L21.2463 32.6335L20.5311 32.5467C19.0544 32.3673 17.7118 33.4189 17.5324 34.8952Z" fill="#D6C678"/>
<path d="M17.5324 34.8952L17.4456 35.6102L18.1608 35.6971C19.6375 35.8764 20.9801 34.8248 21.1595 33.3485L21.2463 32.6335L20.5311 32.5467C19.0544 32.3673 17.7118 33.4189 17.5324 34.8952Z" fill="#D6C678"/>
<path d="M13.0854 34.6696C14.4437 35.276 16.0366 34.6666 16.6431 33.3086C15.2846 32.7023 13.6919 33.3117 13.0854 34.6696Z" fill="#D6C678"/>
<path d="M13.0854 34.6696C14.4437 35.276 16.0366 34.6666 16.6431 33.3086C15.2846 32.7023 13.6919 33.3117 13.0854 34.6696Z" fill="#D6C678"/>
<path d="M35.2378 34.1659C35.2621 35.6528 36.4876 36.8386 37.975 36.8143C37.9507 35.3272 36.7251 34.1415 35.2378 34.1659Z" fill="#D6C678"/>
<path d="M35.2378 34.1659C35.2621 35.6528 36.4876 36.8386 37.975 36.8143C37.9507 35.3272 36.7251 34.1415 35.2378 34.1659Z" fill="#D6C678"/>
<path d="M39.0286 32.5285L38.3149 32.627L38.4135 33.3405C38.617 34.8137 39.9766 35.8432 41.4502 35.6396L42.1638 35.541L42.0652 34.8276C41.8618 33.3543 40.5022 32.3251 39.0286 32.5285Z" fill="#D6C678"/>
<path d="M39.0286 32.5285L38.3149 32.627L38.4135 33.3405C38.617 34.8137 39.9766 35.8432 41.4502 35.6396L42.1638 35.541L42.0652 34.8276C41.8618 33.3543 40.5022 32.3251 39.0286 32.5285Z" fill="#D6C678"/>
<path d="M42.9287 33.2268C43.5574 34.5747 45.16 35.1579 46.5082 34.5293C45.8795 33.1815 44.2769 32.5983 42.9287 33.2268Z" fill="#D6C678"/>
<path d="M42.9287 33.2268C43.5574 34.5747 45.16 35.1579 46.5082 34.5293C45.8795 33.1815 44.2769 32.5983 42.9287 33.2268Z" fill="#D6C678"/>
<path d="M55.3992 26.3311C55.7075 26.427 56.0246 26.4713 56.3356 26.4713C57.4344 26.4713 58.4681 25.911 58.8707 25.0073C57.4697 24.5798 55.9168 25.1724 55.3992 26.3311Z" fill="white"/>
<path d="M55.3992 26.3311C55.7075 26.427 56.0246 26.4713 56.3356 26.4713C57.4344 26.4713 58.4681 25.911 58.8707 25.0073C57.4697 24.5798 55.9168 25.1724 55.3992 26.3311Z" fill="white"/>
<path d="M54.1148 22.3433C55.2091 22.1383 55.8343 21.3244 56.2046 20.8409C56.6411 20.2703 56.8623 19.7102 56.9787 19.3311C56.6131 19.2574 56.0851 19.1794 55.4479 19.1765C54.7003 19.1735 54.0027 19.172 53.3788 19.4815C52.2317 20.0506 51.8835 21.4026 51.7937 21.808C52.0502 21.9791 52.9794 22.5555 54.1148 22.3433Z" fill="#D6C678"/>
<path d="M54.1148 22.3433C55.2091 22.1383 55.8343 21.3244 56.2046 20.8409C56.6411 20.2703 56.8623 19.7102 56.9787 19.3311C56.6131 19.2574 56.0851 19.1794 55.4479 19.1765C54.7003 19.1735 54.0027 19.172 53.3788 19.4815C52.2317 20.0506 51.8835 21.4026 51.7937 21.808C52.0502 21.9791 52.9794 22.5555 54.1148 22.3433Z" fill="#D6C678"/>
<path d="M37.3281 4.09718C37.5331 3.90416 38.2012 3.22885 38.198 2.3752C38.1951 1.90936 37.9946 1.51275 37.7794 1.08817C37.5949 0.726959 37.3989 0.454137 37.2528 0.271476C37.0701 0.471933 36.8148 0.794817 36.6158 1.24443C36.4476 1.62637 36.163 2.26764 36.3592 2.96347C36.5642 3.6859 37.1569 4.01172 37.3281 4.09718Z" fill="#D6C678"/>
<path d="M37.3281 4.09718C37.5331 3.90416 38.2012 3.22885 38.198 2.3752C38.1951 1.90936 37.9946 1.51275 37.7794 1.08817C37.5949 0.726959 37.3989 0.454137 37.2528 0.271476C37.0701 0.471933 36.8148 0.794817 36.6158 1.24443C36.4476 1.62637 36.163 2.26764 36.3592 2.96347C36.5642 3.6859 37.1569 4.01172 37.3281 4.09718Z" fill="#D6C678"/>
<path d="M37.2189 21.4793C39.4664 21.0414 41.3082 19.2265 41.6902 16.7983C38.6154 16.2838 35.7278 18.3891 35.2368 21.5043C35.9137 21.6179 36.5833 21.6031 37.2189 21.4793Z" fill="#D6C678"/>
<path d="M37.2189 21.4793C39.4664 21.0414 41.3082 19.2265 41.6902 16.7983C38.6154 16.2838 35.7278 18.3891 35.2368 21.5043C35.9137 21.6179 36.5833 21.6031 37.2189 21.4793Z" fill="#D6C678"/>
<path d="M38.1438 9.26467L38.3102 9.64935L40.2864 8.79589C42.2922 7.92894 43.2153 5.6011 42.3481 3.59594L42.1814 3.21124L40.2054 4.06627C38.1997 4.93323 37.2766 7.26108 38.1438 9.26467Z" fill="#D6C678"/>
<path d="M38.1438 9.26467L38.3102 9.64935L40.2864 8.79589C42.2922 7.92894 43.2153 5.6011 42.3481 3.59594L42.1814 3.21124L40.2054 4.06627C38.1997 4.93323 37.2766 7.26108 38.1438 9.26467Z" fill="#D6C678"/>
<path d="M44.8181 19.601C45.0983 19.141 45.1427 18.6441 45.1883 18.112C45.2282 17.6579 45.2016 17.2849 45.1691 17.0283C44.8669 17.1286 44.4185 17.3129 43.948 17.652C43.5483 17.9395 42.8774 18.4231 42.6473 19.2132C42.4084 20.033 42.7948 20.6669 42.9098 20.8423C43.2314 20.7584 44.3021 20.4457 44.8181 19.601Z" fill="#D6C678"/>
<path d="M44.8181 19.601C45.0983 19.141 45.1427 18.6441 45.1883 18.112C45.2282 17.6579 45.2016 17.2849 45.1691 17.0283C44.8669 17.1286 44.4185 17.3129 43.948 17.652C43.5483 17.9395 42.8774 18.4231 42.6473 19.2132C42.4084 20.033 42.7948 20.6669 42.9098 20.8423C43.2314 20.7584 44.3021 20.4457 44.8181 19.601Z" fill="#D6C678"/>
<path d="M45.8904 8.48179C46.1527 8.09847 46.2133 7.65767 46.2781 7.18596C46.3327 6.78348 46.3268 6.44729 46.3106 6.21437C46.0467 6.2748 45.6529 6.39566 45.234 6.65225C44.8772 6.86894 44.2784 7.23602 44.0439 7.92012C43.8005 8.62925 44.1029 9.23512 44.1943 9.40331C44.4731 9.36048 45.4081 9.18642 45.8904 8.48179Z" fill="#D6C678"/>
<path d="M45.8904 8.48179C46.1527 8.09847 46.2133 7.65767 46.2781 7.18596C46.3327 6.78348 46.3268 6.44729 46.3106 6.21437C46.0467 6.2748 45.6529 6.39566 45.234 6.65225C44.8772 6.86894 44.2784 7.23602 44.0439 7.92012C43.8005 8.62925 44.1029 9.23512 44.1943 9.40331C44.4731 9.36048 45.4081 9.18642 45.8904 8.48179Z" fill="#D6C678"/>
<path d="M33.9776 9.54334C35.2473 8.81055 35.9567 7.48069 35.9567 6.11405C35.9567 5.44326 35.7855 4.76209 35.4258 4.13999L34.2092 4.84325C32.3171 5.9357 31.6682 8.35351 32.761 10.245L33.9776 9.54334Z" fill="#D6C678"/>
<path d="M33.9776 9.54334C35.2473 8.81055 35.9567 7.48069 35.9567 6.11405C35.9567 5.44326 35.7855 4.76209 35.4258 4.13999L34.2092 4.84325C32.3171 5.9357 31.6682 8.35351 32.761 10.245L33.9776 9.54334Z" fill="#D6C678"/>
<path d="M44.2298 27.111C44.7666 27.0639 45.1929 26.803 45.6485 26.5228C46.038 26.2856 46.321 26.0423 46.5082 25.8639C46.2473 25.6811 45.8329 25.429 45.2813 25.252C44.8124 25.1031 44.0248 24.8511 43.2521 25.1341C42.4514 25.4303 42.1697 26.1174 42.0989 26.3151C42.3555 26.5228 43.2433 27.1981 44.2298 27.111Z" fill="#D6C678"/>
<path d="M44.2298 27.111C44.7666 27.0639 45.1929 26.803 45.6485 26.5228C46.038 26.2856 46.321 26.0423 46.5082 25.8639C46.2473 25.6811 45.8329 25.429 45.2813 25.252C44.8124 25.1031 44.0248 24.8511 43.2521 25.1341C42.4514 25.4303 42.1697 26.1174 42.0989 26.3151C42.3555 26.5228 43.2433 27.1981 44.2298 27.111Z" fill="#D6C678"/>
<path d="M49.2055 19.0482C48.4639 19.091 47.2133 19.1616 46.2178 20.3176C45.1855 21.516 45.0749 23.1291 45.0571 23.5846C45.5188 23.8175 47.0953 24.5325 48.4845 23.6215C49.2425 23.1246 49.7454 22.2754 50.2852 21.3672C50.7466 20.5918 51.052 19.884 51.2451 19.3798C50.7895 19.2015 50.0802 18.9965 49.2055 19.0482Z" fill="#D6C678"/>
<path d="M49.2055 19.0482C48.4639 19.091 47.2133 19.1616 46.2178 20.3176C45.1855 21.516 45.0749 23.1291 45.0571 23.5846C45.5188 23.8175 47.0953 24.5325 48.4845 23.6215C49.2425 23.1246 49.7454 22.2754 50.2852 21.3672C50.7466 20.5918 51.052 19.884 51.2451 19.3798C50.7895 19.2015 50.0802 18.9965 49.2055 19.0482Z" fill="#D6C678"/>
<path d="M47.2618 18.0987C47.7219 18.0382 48.1599 17.9054 48.5639 17.7183C49.99 17.0533 50.9824 15.6764 50.9397 14.2184C48.853 14.4926 47.2072 16.2279 47.2618 18.0987Z" fill="#D6C678"/>
<path d="M47.2618 18.0987C47.7219 18.0382 48.1599 17.9054 48.5639 17.7183C49.99 17.0533 50.9824 15.6764 50.9397 14.2184C48.853 14.4926 47.2072 16.2279 47.2618 18.0987Z" fill="#D6C678"/>
<path d="M53.8139 26.178C54.2239 25.5485 54.3744 24.9336 54.4348 24.5178C53.9776 24.447 53.3215 24.3749 52.5472 24.3866C51.6403 24.4013 50.7923 24.4146 50.1006 24.767C48.8294 25.4127 48.6907 26.8914 48.6672 27.3352C49.0137 27.5151 50.2629 28.1196 51.5945 27.8616C52.8806 27.6125 53.4659 26.7131 53.8139 26.178Z" fill="#D6C678"/>
<path d="M53.8139 26.178C54.2239 25.5485 54.3744 24.9336 54.4348 24.5178C53.9776 24.447 53.3215 24.3749 52.5472 24.3866C51.6403 24.4013 50.7923 24.4146 50.1006 24.767C48.8294 25.4127 48.6907 26.8914 48.6672 27.3352C49.0137 27.5151 50.2629 28.1196 51.5945 27.8616C52.8806 27.6125 53.4659 26.7131 53.8139 26.178Z" fill="#D6C678"/>
<path d="M49.1361 10.043V9.49014H48.8693C45.7059 9.49014 43.1428 12.0525 43.1428 15.215V15.7679H43.4099C46.5717 15.7679 49.1361 13.2055 49.1361 10.043Z" fill="#D6C678"/>
<path d="M49.1361 10.043V9.49014H48.8693C45.7059 9.49014 43.1428 12.0525 43.1428 15.215V15.7679H43.4099C46.5717 15.7679 49.1361 13.2055 49.1361 10.043Z" fill="#D6C678"/>
<path d="M54.3139 16.443C54.6353 16.011 54.724 15.5201 54.8198 14.9938C54.9008 14.5456 54.9082 14.1711 54.8994 13.9131C54.5882 13.9869 54.1252 14.1285 53.6267 14.4218C53.202 14.6723 52.4897 15.0926 52.1873 15.8577C51.8747 16.6525 52.2006 17.3203 52.301 17.5045C52.6283 17.4515 53.7226 17.2376 54.3139 16.443Z" fill="#D6C678"/>
<path d="M54.3139 16.443C54.6353 16.011 54.724 15.5201 54.8198 14.9938C54.9008 14.5456 54.9082 14.1711 54.8994 13.9131C54.5882 13.9869 54.1252 14.1285 53.6267 14.4218C53.202 14.6723 52.4897 15.0926 52.1873 15.8577C51.8747 16.6525 52.2006 17.3203 52.301 17.5045C52.6283 17.4515 53.7226 17.2376 54.3139 16.443Z" fill="#D6C678"/>
<path d="M40.3972 10.1404C38.8236 10.82 38.0994 12.6466 38.7794 14.2184L41.0017 13.2586C42.1741 12.7528 42.8732 11.6103 42.8732 10.4101C42.8732 9.99884 42.792 9.5817 42.6181 9.18059L40.3972 10.1404Z" fill="#D6C678"/>
<path d="M40.3972 10.1404C38.8236 10.82 38.0994 12.6466 38.7794 14.2184L41.0017 13.2586C42.1741 12.7528 42.8732 11.6103 42.8732 10.4101C42.8732 9.99884 42.792 9.5817 42.6181 9.18059L40.3972 10.1404Z" fill="#D6C678"/>
<path d="M53.8039 30.7335L55.0646 30.244C54.6767 29.2445 53.5501 28.7475 52.5503 29.1367L51.2893 29.6262C51.6772 30.6258 52.804 31.1227 53.8039 30.7335Z" fill="#D6C678"/>
<path d="M53.8039 30.7335L55.0646 30.244C54.6767 29.2445 53.5501 28.7475 52.5503 29.1367L51.2893 29.6262C51.6772 30.6258 52.804 31.1227 53.8039 30.7335Z" fill="#D6C678"/>
<path d="M3.25799 26.4713C3.56903 26.4713 3.88614 26.427 4.19444 26.3311C3.67682 25.1724 2.12376 24.5798 0.7229 25.0073C1.12549 25.911 2.15917 26.4713 3.25799 26.4713Z" fill="#D6C678"/>
<path d="M3.25799 26.4713C3.56903 26.4713 3.88614 26.427 4.19444 26.3311C3.67682 25.1724 2.12376 24.5798 0.7229 25.0073C1.12549 25.911 2.15917 26.4713 3.25799 26.4713Z" fill="#D6C678"/>
<path d="M5.47891 22.3433C6.61431 22.5555 7.54353 21.9791 7.8 21.808C7.71001 21.4026 7.362 20.0506 6.21466 19.4815C5.59101 19.172 4.89342 19.1735 4.14575 19.1765C3.5086 19.1794 2.98061 19.2574 2.61499 19.3311C2.73139 19.7102 2.95263 20.2703 3.38927 20.8409C3.75939 21.3244 4.3846 22.1383 5.47891 22.3433Z" fill="#D6C678"/>
<path d="M5.47891 22.3433C6.61431 22.5555 7.54353 21.9791 7.8 21.808C7.71001 21.4026 7.362 20.0506 6.21466 19.4815C5.59101 19.172 4.89342 19.1735 4.14575 19.1765C3.5086 19.1794 2.98061 19.2574 2.61499 19.3311C2.73139 19.7102 2.95263 20.2703 3.38927 20.8409C3.75939 21.3244 4.3846 22.1383 5.47891 22.3433Z" fill="#D6C678"/>
<path d="M22.2654 4.09718C22.4366 4.01172 23.0293 3.6859 23.2343 2.96347C23.4305 2.26764 23.1459 1.62637 22.9777 1.24443C22.7787 0.794817 22.5234 0.471933 22.3407 0.271476C22.1946 0.454137 21.9986 0.726959 21.8141 1.08817C21.5989 1.51275 21.3984 1.90936 21.3953 2.3752C21.3923 3.22885 22.0604 3.90416 22.2654 4.09718Z" fill="#D6C678"/>
<path d="M22.2654 4.09718C22.4366 4.01172 23.0293 3.6859 23.2343 2.96347C23.4305 2.26764 23.1459 1.62637 22.9777 1.24443C22.7787 0.794817 22.5234 0.471933 22.3407 0.271476C22.1946 0.454137 21.9986 0.726959 21.8141 1.08817C21.5989 1.51275 21.3984 1.90936 21.3953 2.3752C21.3923 3.22885 22.0604 3.90416 22.2654 4.09718Z" fill="#D6C678"/>
<path d="M22.3747 21.4793C23.0103 21.6031 23.6799 21.6179 24.3568 21.5043C23.8657 18.3891 20.9781 16.2838 17.9033 16.7983C18.2854 19.2265 20.1272 21.0414 22.3747 21.4793Z" fill="#D6C678"/>
<path d="M22.3747 21.4793C23.0103 21.6031 23.6799 21.6179 24.3568 21.5043C23.8657 18.3891 20.9781 16.2838 17.9033 16.7983C18.2854 19.2265 20.1272 21.0414 22.3747 21.4793Z" fill="#D6C678"/>
<path d="M19.3073 8.79589L21.2834 9.64935L21.4499 9.26467C22.3171 7.26108 21.394 4.93323 19.3882 4.06627L17.4122 3.21124L17.2456 3.59594C16.3784 5.6011 17.3015 7.92894 19.3073 8.79589Z" fill="#D6C678"/>
<path d="M19.3073 8.79589L21.2834 9.64935L21.4499 9.26467C22.3171 7.26108 21.394 4.93323 19.3882 4.06627L17.4122 3.21124L17.2456 3.59594C16.3784 5.6011 17.3015 7.92894 19.3073 8.79589Z" fill="#D6C678"/>
<path d="M13.7032 8.48179C14.1854 9.18642 15.1205 9.36048 15.3993 9.40331C15.4906 9.23512 15.7929 8.62925 15.5497 7.92012C15.3152 7.23602 14.7164 6.86894 14.3595 6.65225C13.9407 6.39566 13.5469 6.2748 13.283 6.21437C13.2668 6.44729 13.2609 6.78348 13.3155 7.18596C13.3803 7.65767 13.4407 8.09847 13.7032 8.48179Z" fill="#D6C678"/>
<path d="M13.7032 8.48179C14.1854 9.18642 15.1205 9.36048 15.3993 9.40331C15.4906 9.23512 15.7929 8.62925 15.5497 7.92012C15.3152 7.23602 14.7164 6.86894 14.3595 6.65225C13.9407 6.39566 13.5469 6.2748 13.283 6.21437C13.2668 6.44729 13.2609 6.78348 13.3155 7.18596C13.3803 7.65767 13.4407 8.09847 13.7032 8.48179Z" fill="#D6C678"/>
<path d="M25.6161 9.54334L26.8327 10.245C27.9254 8.35351 27.2765 5.9357 25.3845 4.84325L24.1679 4.13999C23.8081 4.76209 23.637 5.44326 23.637 6.11405C23.637 7.48069 24.3463 8.81055 25.6161 9.54334Z" fill="#D6C678"/>
<path d="M25.6161 9.54334L26.8327 10.245C27.9254 8.35351 27.2765 5.9357 25.3845 4.84325L24.1679 4.13999C23.8081 4.76209 23.637 5.44326 23.637 6.11405C23.637 7.48069 24.3463 8.81055 25.6161 9.54334Z" fill="#D6C678"/>
<path d="M13.0854 25.8639C13.2727 26.0423 13.5557 26.2856 13.9452 26.5228C14.4008 26.803 14.8271 27.0639 15.3639 27.111C16.3504 27.1981 17.2381 26.5228 17.4948 26.3151C17.424 26.1174 17.1423 25.4303 16.3416 25.1341C15.5689 24.8511 14.7813 25.1031 14.3124 25.252C13.7607 25.429 13.3464 25.6811 13.0854 25.8639Z" fill="#D6C678"/>
<path d="M13.0854 25.8639C13.2727 26.0423 13.5557 26.2856 13.9452 26.5228C14.4008 26.803 14.8271 27.0639 15.3639 27.111C16.3504 27.1981 17.2381 26.5228 17.4948 26.3151C17.424 26.1174 17.1423 25.4303 16.3416 25.1341C15.5689 24.8511 14.7813 25.1031 14.3124 25.252C13.7607 25.429 13.3464 25.6811 13.0854 25.8639Z" fill="#D6C678"/>
<path d="M11.1093 23.6215C12.4984 24.5325 14.0749 23.8175 14.5366 23.5846C14.5188 23.1291 14.4083 21.516 13.376 20.3176C12.3804 19.1616 11.1298 19.091 10.3882 19.0482C9.51358 18.9965 8.80424 19.2015 8.34863 19.3798C8.54171 19.884 8.84708 20.5918 9.30856 21.3672C9.84828 22.2754 10.3512 23.1246 11.1093 23.6215Z" fill="#D6C678"/>
<path d="M11.1093 23.6215C12.4984 24.5325 14.0749 23.8175 14.5366 23.5846C14.5188 23.1291 14.4083 21.516 13.376 20.3176C12.3804 19.1616 11.1298 19.091 10.3882 19.0482C9.51358 18.9965 8.80424 19.2015 8.34863 19.3798C8.54171 19.884 8.84708 20.5918 9.30856 21.3672C9.84828 22.2754 10.3512 23.1246 11.1093 23.6215Z" fill="#D6C678"/>
<path d="M11.0298 17.7183C11.4337 17.9054 11.8717 18.0382 12.3318 18.0987C12.3864 16.2279 10.7406 14.4926 8.65391 14.2184C8.61127 15.6764 9.60366 17.0533 11.0298 17.7183Z" fill="#D6C678"/>
<path d="M11.0298 17.7183C11.4337 17.9054 11.8717 18.0382 12.3318 18.0987C12.3864 16.2279 10.7406 14.4926 8.65391 14.2184C8.61127 15.6764 9.60366 17.0533 11.0298 17.7183Z" fill="#D6C678"/>
<path d="M7.99895 27.8616C9.33056 28.1196 10.5798 27.5151 10.9263 27.3352C10.9028 26.8914 10.7641 25.4127 9.49293 24.767C8.80121 24.4146 7.95318 24.4013 7.04627 24.3866C6.27199 24.3749 5.61586 24.447 5.15869 24.5178C5.21914 24.9336 5.36958 25.5485 5.77961 26.178C6.12762 26.7131 6.71292 27.6125 7.99895 27.8616Z" fill="#D6C678"/>
<path d="M7.99895 27.8616C9.33056 28.1196 10.5798 27.5151 10.9263 27.3352C10.9028 26.8914 10.7641 25.4127 9.49293 24.767C8.80121 24.4146 7.95318 24.4013 7.04627 24.3866C6.27199 24.3749 5.61586 24.447 5.15869 24.5178C5.21914 24.9336 5.36958 25.5485 5.77961 26.178C6.12762 26.7131 6.71292 27.6125 7.99895 27.8616Z" fill="#D6C678"/>
<path d="M16.1838 15.7679H16.4508V15.215C16.4508 12.0525 13.8878 9.49014 10.7244 9.49014H10.4575V10.043C10.4575 13.2055 13.022 15.7679 16.1838 15.7679Z" fill="#D6C678"/>
<path d="M16.1838 15.7679H16.4508V15.215C16.4508 12.0525 13.8878 9.49014 10.7244 9.49014H10.4575V10.043C10.4575 13.2055 13.022 15.7679 16.1838 15.7679Z" fill="#D6C678"/>
<path d="M5.27979 16.443C5.87116 17.2376 6.96547 17.4515 7.29275 17.5045C7.39311 17.3203 7.71902 16.6525 7.40641 15.8577C7.10398 15.0926 6.39171 14.6723 5.96701 14.4218C5.46856 14.1285 5.00552 13.9869 4.69428 13.9131C4.68548 14.1711 4.69292 14.5456 4.77391 14.9938C4.86976 15.5201 4.95838 16.011 5.27979 16.443Z" fill="#D6C678"/>
<path d="M5.27979 16.443C5.87116 17.2376 6.96547 17.4515 7.29275 17.5045C7.39311 17.3203 7.71902 16.6525 7.40641 15.8577C7.10398 15.0926 6.39171 14.6723 5.96701 14.4218C5.46856 14.1285 5.00552 13.9869 4.69428 13.9131C4.68548 14.1711 4.69292 14.5456 4.77391 14.9938C4.86976 15.5201 4.95838 16.011 5.27979 16.443Z" fill="#D6C678"/>
<path d="M18.592 13.2586L20.8143 14.2184C21.4943 12.6466 20.7701 10.82 19.1967 10.1404L16.9756 9.18059C16.8016 9.5817 16.7205 9.99884 16.7205 10.4101C16.7205 11.6103 17.4196 12.7528 18.592 13.2586Z" fill="#D6C678"/>
<path d="M18.592 13.2586L20.8143 14.2184C21.4943 12.6466 20.7701 10.82 19.1967 10.1404L16.9756 9.18059C16.8016 9.5817 16.7205 9.99884 16.7205 10.4101C16.7205 11.6103 17.4196 12.7528 18.592 13.2586Z" fill="#D6C678"/>
<path d="M4.52905 30.244L5.78985 30.7335C6.78968 31.1227 7.91648 30.6258 8.3044 29.6262L7.04341 29.1367C6.04358 28.7475 4.91678 29.2445 4.52905 30.244Z" fill="#D6C678"/>
<path d="M4.52905 30.244L5.78985 30.7335C6.78968 31.1227 7.91648 30.6258 8.3044 29.6262L7.04341 29.1367C6.04358 28.7475 4.91678 29.2445 4.52905 30.244Z" fill="#D6C678"/>
<path d="M103 6.14862C102.304 6.32082 101.801 6.49226 101.491 6.66409C101.184 6.83629 100.938 7.05108 100.757 7.30882C100.575 7.56656 100.439 7.95354 100.352 8.46939C100.265 8.98487 100.223 9.78237 100.223 10.8604V31.1392C100.223 32.1866 100.257 32.9524 100.329 33.4369C100.401 33.9213 100.518 34.3042 100.685 34.5855C100.851 34.8667 101.097 35.1013 101.423 35.2888C101.744 35.4764 102.27 35.6639 103 35.8514V37H93.1003V35.8514C94.0007 35.6325 94.6248 35.3826 94.9766 35.1013C95.3246 34.8201 95.5592 34.4058 95.6878 33.8586C95.8126 33.3117 95.877 32.4051 95.877 31.1392V22.1606C95.877 19.801 95.911 17.4129 95.9829 14.9984C96.0547 12.5835 96.1379 10.931 96.2325 10.0401H95.8277L86.4274 33.2725H83.6963L74.9617 9.6647H74.5569C74.6364 10.6183 74.712 12.3459 74.7839 14.846C74.852 17.3468 74.8898 19.9179 74.8898 22.5591V31.1392C74.8898 32.1866 74.9239 32.9524 74.9958 33.4369C75.0676 33.9213 75.1849 34.3042 75.3513 34.5855C75.5178 34.8667 75.7637 35.1013 76.089 35.2888C76.4143 35.4764 76.9401 35.6639 77.6664 35.8514V37H69V35.8514C69.9835 35.6015 70.6417 35.3239 70.9708 35.0191C71.3037 34.7143 71.5231 34.2807 71.6253 33.7181C71.7274 33.1556 71.7804 32.2961 71.7804 31.1392V10.8604C71.7804 9.78237 71.7388 8.99682 71.6593 8.5045C71.5799 8.01218 71.4513 7.62931 71.2697 7.35588C71.0881 7.08245 70.846 6.86357 70.5434 6.69958C70.2445 6.53523 69.7301 6.35182 69 6.14862V5H77.4773L85.8108 27.8103L94.9766 5H103V6.14862Z" fill="white"/>
<path d="M115.525 25.7444C115.525 28.7997 116.048 31.1461 117.093 32.7847C118.139 34.4236 119.634 35.2427 121.584 35.2427C122.652 35.2427 123.56 35.002 124.312 34.5196C125.064 34.0383 125.674 33.3893 126.143 32.5734C126.616 31.7582 126.956 30.8126 127.162 29.7372C127.368 28.6622 127.475 27.5386 127.475 26.3672C127.475 24.187 127.212 22.378 126.697 20.9393C126.178 19.501 125.468 18.4444 124.575 17.7696C123.682 17.0947 122.66 16.7573 121.511 16.7573C119.577 16.7573 118.097 17.536 117.07 19.0931C116.04 20.6501 115.525 22.8675 115.525 25.7444ZM121.221 37C117.902 37 115.369 36.0919 113.621 34.2751C111.874 32.4589 111 29.7705 111 26.2116C111 23.7642 111.458 21.6953 112.374 20.005C113.293 18.3144 114.548 17.0575 116.147 16.2345C117.742 15.4115 119.562 15 121.607 15C125.022 15 127.608 15.9233 129.364 17.7696C131.119 19.6155 132 22.2663 132 25.7221C132 28.1841 131.561 30.26 130.68 31.9507C129.802 33.641 128.559 34.9056 126.945 35.7435C125.334 36.5814 123.427 37 121.221 37Z" fill="white"/>
<path d="M144.129 6V10.4615H139.143V6H144.129ZM136.38 35.8733C137.084 35.6893 137.584 35.5281 137.882 35.3903C138.18 35.2522 138.435 35.0609 138.642 34.8154C138.849 34.5706 139.009 34.1947 139.13 33.6887C139.246 33.1826 139.307 32.393 139.307 31.3197V21.293C139.307 20.3121 139.285 19.5224 139.251 18.9244C139.216 18.3264 139.087 17.8479 138.871 17.4873C138.655 17.1268 138.327 16.8585 137.882 16.6823C137.442 16.506 136.812 16.3569 136 16.2338V15.0151L142.312 14.808H143.965V31.2508C143.965 32.5696 144.038 33.4853 144.181 33.999C144.328 34.5131 144.604 34.9037 145.01 35.1719C145.416 35.4401 146.08 35.6743 147 35.8733V37H136.38V35.8733Z" fill="white"/>
<path d="M148 15.822C148.85 15.6994 149.534 15.4853 150.061 15.179C150.583 14.8727 150.996 14.4781 151.291 13.9958C151.587 13.5134 151.822 12.9088 151.992 12.1815C152.162 11.454 152.34 10.3937 152.526 9H156.134V14.6736H164.34V16.9932H156.134V27.2149C156.134 28.7005 156.202 29.8833 156.336 30.7639C156.47 31.6445 156.725 32.3336 157.097 32.831C157.47 33.3291 157.895 33.6849 158.368 33.8993C158.842 34.1138 159.453 34.2207 160.198 34.2207C160.874 34.2207 161.51 34.0948 162.105 33.8419C162.696 33.5893 163.279 33.2256 163.858 32.7505L165 33.9912C163.798 35.0478 162.66 35.8138 161.583 36.2878C160.506 36.7625 159.393 37 158.243 37C156.057 37 154.429 36.4144 153.364 35.2429C152.296 34.0717 151.761 32.2377 151.761 29.7417V16.9932H148V15.822Z" fill="white"/>
<path d="M181.718 26.5005C178.27 26.5302 175.69 26.9311 173.978 27.7017C172.262 28.4729 171.406 29.6372 171.406 31.1943C171.406 32.0396 171.6 32.7067 171.99 33.1962C172.379 33.6856 172.874 34.0231 173.466 34.2084C174.063 34.3942 174.765 34.4863 175.58 34.4863C176.736 34.4863 177.783 34.2421 178.724 33.7526C179.665 33.2632 180.4 32.6404 180.927 31.884C181.454 31.1273 181.718 30.3791 181.718 29.6372V26.5005ZM182.148 33.4634L181.767 33.3741C180.29 34.6944 178.903 35.6287 177.604 36.177C176.306 36.7253 174.927 37 173.466 37C172.176 37 171.041 36.7813 170.055 36.3439C169.069 35.9066 168.314 35.2913 167.791 34.4973C167.264 33.7044 167 32.7886 167 31.7501C167 29.5851 168.225 27.9129 170.679 26.734C173.13 25.5548 176.809 24.8693 181.718 24.6762V23.2308C181.718 21.6883 181.548 20.4722 181.207 19.5825C180.866 18.6925 180.335 18.04 179.604 17.6246C178.874 17.2096 177.897 17.0019 176.675 17.0019C175.353 17.0019 174.286 17.306 173.479 17.9142C172.675 18.5221 172.067 19.434 171.657 20.6501H168.323V17.7586C169.953 17.0168 171.312 16.472 172.4 16.1232C173.483 15.7748 174.57 15.5001 175.657 15.3002C176.744 15.1 177.848 15 178.968 15C180.647 15 181.998 15.2336 183.016 15.7007C184.034 16.1679 184.797 16.8835 185.308 17.8472C185.815 18.8113 186.071 20.2645 186.071 22.2072V29.9484C186.071 31.0461 186.079 31.8209 186.095 32.2732C186.112 32.7255 186.164 33.1444 186.25 33.53C186.335 33.9157 186.46 34.2233 186.631 34.4534C186.801 34.6834 187.053 34.8794 187.381 35.0428C187.714 35.2062 188.249 35.3763 189 35.5542V36.6441H182.022L182.148 33.4634Z" fill="white"/>
<mask id="mask0_10_56" style="mask-type:luminance" maskUnits="userSpaceOnUse" x="94" y="46" width="12" height="13">
<path d="M103.845 46.7546H105.697V58.8627H103.845V53.4356H96.6909V58.8627H94.8391V46.7546H96.6909V51.9933H103.845V46.7546Z" fill="white"/>
</mask>
<g mask="url(#mask0_10_56)">
<path d="M103.295 47H105V59H103.295V53.6213H96.7055V59H95V47H96.7055V52.192H103.295V47Z" fill="white"/>
</g>
<mask id="mask1_10_56" style="mask-type:luminance" maskUnits="userSpaceOnUse" x="110" y="46" width="13" height="13">
<path d="M119.9 56.3208C120.612 55.4963 120.97 54.323 120.97 52.8002C120.97 51.2774 120.616 50.1067 119.908 49.2881C119.2 48.4698 118.2 48.06 116.905 48.06C115.633 48.06 114.641 48.4698 113.933 49.2881C113.225 50.1067 112.871 51.2774 112.871 52.8002C112.871 54.323 113.225 55.4963 113.933 56.3208C114.641 57.1453 115.633 57.5574 116.905 57.5574C118.185 57.5574 119.184 57.1453 119.9 56.3208ZM113.754 58.2447C112.863 57.741 112.174 57.0254 111.692 56.0979C111.206 55.17 110.964 54.0769 110.964 52.8171C110.964 51.5467 111.206 50.4444 111.68 49.5114C112.159 48.5784 112.847 47.8628 113.742 47.3646C114.641 46.8668 115.691 46.6174 116.905 46.6174C118.126 46.6174 119.184 46.8668 120.079 47.3646C120.978 47.8628 121.663 48.5784 122.141 49.5114C122.62 50.4444 122.861 51.5412 122.861 52.8002C122.861 54.06 122.62 55.1564 122.141 56.089C121.663 57.0224 120.978 57.741 120.079 58.2447C119.184 58.7483 118.126 59 116.905 59C115.691 59 114.641 58.7483 113.754 58.2447Z" fill="white"/>
</mask>
<g mask="url(#mask1_10_56)">
<path d="M120.014 56.4036C120.732 55.6046 121.093 54.4676 121.093 52.9918C121.093 51.516 120.736 50.3815 120.022 49.5882C119.307 48.7952 118.299 48.398 116.992 48.398C115.709 48.398 114.708 48.7952 113.994 49.5882C113.28 50.3815 112.923 51.516 112.923 52.9918C112.923 54.4676 113.28 55.6046 113.994 56.4036C114.708 57.2026 115.709 57.602 116.992 57.602C118.283 57.602 119.292 57.2026 120.014 56.4036ZM113.814 58.268C112.915 57.7799 112.22 57.0864 111.734 56.1875C111.243 55.2883 111 54.229 111 53.0082C111 51.777 111.243 50.7088 111.722 49.8046C112.205 48.9004 112.899 48.2069 113.802 47.7242C114.708 47.2417 115.768 47 116.992 47C118.224 47 119.292 47.2417 120.194 47.7242C121.101 48.2069 121.791 48.9004 122.274 49.8046C122.757 50.7088 123 51.7717 123 52.9918C123 54.2126 122.757 55.2751 122.274 56.179C121.791 57.0836 121.101 57.7799 120.194 58.268C119.292 58.7561 118.224 59 116.992 59C115.768 59 114.708 58.7561 113.814 58.268Z" fill="white"/>
</g>
<mask id="mask2_10_56" style="mask-type:luminance" maskUnits="userSpaceOnUse" x="126" y="46" width="11" height="13">
<path d="M130.396 58.8627V48.2318H126.074V46.7546H136.624V48.2318H132.283V58.8627H130.396Z" fill="white"/>
</mask>
<g mask="url(#mask2_10_56)">
<path d="M130.506 59V48.464H126V47H137V48.464H132.473V59H130.506Z" fill="white"/>
</g>
<mask id="mask3_10_56" style="mask-type:luminance" maskUnits="userSpaceOnUse" x="141" y="46" width="9" height="13">
<path d="M141.055 58.8627V46.7546H149.373V48.1802H142.887V51.9933H149.011V53.4356H142.887V57.4371H149.373V58.8627H141.055Z" fill="white"/>
</mask>
<g mask="url(#mask3_10_56)">
<path d="M142 59V47H149V48.4129H143.542V52.192H148.695V53.6213H143.542V57.5871H149V59H142Z" fill="white"/>
</g>
<mask id="mask4_10_56" style="mask-type:luminance" maskUnits="userSpaceOnUse" x="154" y="46" width="9" height="13">
<path d="M154.403 58.8627V46.7546H156.274V57.3855H162.483V58.8627H154.403Z" fill="white"/>
</mask>
<g mask="url(#mask4_10_56)">
<path d="M154 59V47H156.084V57.536H163V59H154Z" fill="white"/>
</g>
</svg>
